<svg xmlns="http://www.w3.org/2000/svg" xmlns:xlink="http://www.w3.org/1999/xlink" xmlns:lucid="lucid" width="1648.46" height="794.26"><g transform="translate(-37.17950863253918 -432.74365234375)" lucid:page-tab-id="0_0"><path d="M1665.64 1122.53c0 4.4-3.58 8-8 8H1506.4l-21.6-28.86c-2.65-3.54-2.65-9.28 0-12.8l21.6-28.87h151.24c4.42 0 8 3.58 8 8z" stroke="#666" stroke-width="2" fill="#ccc"/><use xlink:href="#a" transform="matrix(1,-2.4492935982947064e-16,2.4492935982947064e-16,1,1493.194897872391,1060.0000000000002) translate(36.74956597222223 28.989583333333336)"/><use xlink:href="#b" transform="matrix(1,-2.4492935982947064e-16,2.4492935982947064e-16,1,1493.194897872391,1060.0000000000002) translate(24.15190972222222 59.252170138888886)"/><path d="M884.36 528c0-4.42 3.58-8 8-8h184c4.42 0 8 3.58 8 8v141c0 4.42-3.58 8-8 8h-184c-4.42 0-8-3.58-8-8z" stroke="#333" stroke-width="2" fill="#f9f8f8"/><path d="M884.36 610.58h200" stroke="#333" stroke-width="2" fill="none"/><use xlink:href="#c" transform="matrix(1,0,0,1,892.3599999819776,528) translate(20.797743055555543 23.963324652777775)"/><use xlink:href="#d" transform="matrix(1,0,0,1,892.3599999819776,528) translate(28.015624999999993 66.97634548611111)"/><use xlink:href="#e" transform="matrix(1,0,0,1,896.3599999819776,618.5776909722222) translate(0 38.120876736111114)"/><use xlink:href="#f" transform="matrix(1,0,0,1,896.3599999819776,618.5776909722222) translate(18.47873263888889 38.120876736111114)"/><path d="M855.22 788c0-4.42 3.58-8 8-8h242.28c4.42 0 8 3.58 8 8v139c0 4.42-3.58 8-8 8H863.22c-4.42 0-8-3.58-8-8z" stroke="#333" stroke-width="2" fill="#f9f8f8"/><path d="M855.22 826.26h258.28m-258.28 54.27h258.28" stroke="#333" stroke-width="2" fill="none"/><use xlink:href="#g" transform="matrix(1,0,0,1,863.2170430003157,788) translate(30.26736111111113 24.12087673611111)"/><use xlink:href="#e" transform="matrix(1,0,0,1,867.2170430003157,888.5251736111111) translate(0 32.120876736111114)"/><use xlink:href="#f" transform="matrix(1,0,0,1,867.2170430003157,888.5251736111111) translate(18.47873263888889 32.120876736111114)"/><path d="M984.36 778v-8.4m0-8.38v-16.78m0-8.4v-16.78m0-8.4v-8.38" stroke="#333" stroke-width="2" fill="none"/><path d="M985.36 779h-2v-1.03h2z" fill="#333"/><path d="M984.36 679.96l12.73 21.52h-25.47z" stroke="#333" stroke-width="2" fill="#fff"/><path d="M984.36 1019v-58.52M984.36 1018.97v1.03" stroke="#333" stroke-width="2" fill="none"/><path d="M984.36 937.96l12.73 21.52h-25.47z" stroke="#333" stroke-width="2" fill="#fff"/><path d="M605.36 1020h758M605.4 1020h-1.04M1363.33 1020h1.03" stroke="#333" stroke-width="2" fill="none"/><path d="M1264.36 1068c0-4.42 3.58-8 8-8h184c4.42 0 8 3.58 8 8v131c0 4.42-3.58 8-8 8h-184c-4.42 0-8-3.58-8-8z" stroke="#333" stroke-width="2" fill="#f9f8f8"/><path d="M1264.36 1106.26h200m-200 46.27h200" stroke="#333" stroke-width="2" fill="none"/><use xlink:href="#h" transform="matrix(1,0,0,1,1272.3571933800577,1068) translate(20.245225694444443 24.12087673611111)"/><use xlink:href="#e" transform="matrix(1,0,0,1,1276.3571933800577,1160.5251736111113) translate(0 32.120876736111114)"/><use xlink:href="#f" transform="matrix(1,0,0,1,1276.3571933800577,1160.5251736111113) translate(18.47873263888889 32.120876736111114)"/><path d="M504.36 1068c0-4.42 3.58-8 8-8h184c4.42 0 8 3.58 8 8v131c0 4.42-3.58 8-8 8h-184c-4.42 0-8-3.58-8-8z" stroke="#333" stroke-width="2" fill="#f9f8f8"/><path d="M504.36 1106.26h200m-200 46.27h200" stroke="#333" stroke-width="2" fill="none"/><use xlink:href="#i" transform="matrix(1,0,0,1,512.3599999819777,1068) translate(3.9800347222222143 24.12087673611111)"/><use xlink:href="#e" transform="matrix(1,0,0,1,516.3599999819777,1160.5251736111113) translate(0 32.120876736111114)"/><use xlink:href="#f" transform="matrix(1,0,0,1,516.3599999819777,1160.5251736111113) translate(18.47873263888889 32.120876736111114)"/><path d="M1009.58 1068c0-4.42 3.58-8 8-8h184c4.42 0 8 3.58 8 8v131c0 4.42-3.58 8-8 8h-184c-4.42 0-8-3.58-8-8z" stroke="#333" stroke-width="2" fill="#f9f8f8"/><path d="M1009.58 1106.26h200m-200 46.27h200" stroke="#333" stroke-width="2" fill="none"/><use xlink:href="#j" transform="matrix(1,0,0,1,1017.5752799996643,1068) translate(6.546223958333343 24.12087673611111)"/><use xlink:href="#e" transform="matrix(1,0,0,1,1021.5752799996643,1160.5251736111113) translate(0 32.120876736111114)"/><use xlink:href="#f" transform="matrix(1,0,0,1,1021.5752799996643,1160.5251736111113) translate(18.47873263888889 32.120876736111114)"/><path d="M756.97 1068c0-4.42 3.58-8 8-8h184c4.42 0 8 3.58 8 8v131c0 4.42-3.58 8-8 8h-184c-4.42 0-8-3.58-8-8z" stroke="#333" stroke-width="2" fill="#f9f8f8"/><path d="M756.97 1106.26h200m-200 46.27h200" stroke="#333" stroke-width="2" fill="none"/><use xlink:href="#k" transform="matrix(1,0,0,1,764.9676399908209,1068) translate(13.707682291666671 24.12087673611111)"/><use xlink:href="#e" transform="matrix(1,0,0,1,768.9676399908209,1160.5251736111113) translate(0 32.120876736111114)"/><use xlink:href="#f" transform="matrix(1,0,0,1,768.9676399908209,1160.5251736111113) translate(18.47873263888889 32.120876736111114)"/><path d="M604.36 1021v37M604.36 1021.03V1020" stroke="#333" stroke-width="2" fill="none"/><path d="M605.36 1059h-2v-1.03h2z" fill="#333"/><path d="M1364.36 1021v37M1364.36 1021.03V1020" stroke="#333" stroke-width="2" fill="none"/><path d="M1365.36 1057.97v1.03h-2v-1.03z" fill="#333"/><path d="M856.97 1058v-37" stroke="#333" stroke-width="2" fill="none"/><path d="M857.97 1059h-2v-1.03h2z" fill="#333"/><path d="M856.97 1021.03V1020M1109.58 1058v-37" stroke="#333" stroke-width="2" fill="none"/><path d="M1110.58 1057.97v1.03h-2v-1.03z" fill="#333"/><path d="M1109.58 1021.03V1020M1145.25 857.5h136.3" stroke="#333" stroke-width="2" fill="none"/><path d="M1115.92 857.5l14.85-14.85 15.15 14.85-15.15 14.85z" stroke="#333" stroke-width="2" fill="#fff"/><path d="M1264.18 867.68l17.22-10.18-17.22-10.18" stroke="#333" stroke-width="2" fill="none"/><path d="M1284.36 788c0-4.42 3.58-8 8-8h164c4.42 0 8 3.58 8 8v139c0 4.42-3.58 8-8 8h-164c-4.42 0-8-3.58-8-8z" stroke="#333" stroke-width="2" fill="#f9f8f8"/><path d="M1284.36 826.26h180m-180 54.27h180" stroke="#333" stroke-width="2" fill="none"/><use xlink:href="#l" transform="matrix(1,0,0,1,1292.3599999819776,788) translate(36.220920138888886 24.12087673611111)"/><use xlink:href="#m" transform="matrix(1,0,0,1,1296.3599999819776,834.2625868055555) translate(0 32.120876736111114)"/><use xlink:href="#n" transform="matrix(1,0,0,1,1296.3599999819776,888.5251736111111) translate(0 32.120876736111114)"/><path d="M1665.64 822c0 4.42-3.58 8-8 8H1498.7l-13.9-18.6c-2.65-3.53-2.65-9.27 0-12.8l13.9-18.6h158.94c4.42 0 8 3.58 8 8z" stroke="#666" stroke-width="2" fill="#ccc"/><use xlink:href="#o" transform="matrix(1,-2.4492935982947064e-16,2.4492935982947064e-16,1,1489.354743275891,780.0000000000001) translate(41.00108506944445 33.620876736111114)"/><path d="M57.18 508c0-4.42 3.58-8 8-8H253.6l21.6 28.86c2.65 3.53 2.65 9.27 0 12.8l-21.6 28.87H65.2c-4.42 0-8-3.6-8-8z" stroke="#666" stroke-width="2" fill="#ccc"/><use xlink:href="#p" transform="matrix(1,0,0,1,57.17950863253918,500) translate(51.32161458333334 28.989583333333336)"/><use xlink:href="#q" transform="matrix(1,0,0,1,57.17950863253918,500) translate(142.01171875 28.989583333333336)"/><use xlink:href="#r" transform="matrix(1,0,0,1,57.17950863253918,500) translate(52.94921875 59.252170138888886)"/><path d="M300 515.38c0-4.42 3.58-8 8-8h413c4.4 0 8 3.58 8 8v281c0 4.42-3.6 8-8 8H308c-4.42 0-8-3.58-8-8z" stroke="#333" stroke-width="2" fill="#f9f8f8"/><path d="M300 553.65h429M300 607.9h429" stroke="#333" stroke-width="2" fill="none"/><use xlink:href="#s" transform="matrix(1,0,0,1,308,515.3832603935525) translate(107.21614583333334 24.12087673611111)"/><use xlink:href="#t" transform="matrix(1,0,0,1,312,615.9084340046636) translate(0 32.10883246527777)"/><use xlink:href="#u" transform="matrix(1,0,0,1,312,615.9084340046636) translate(12.923177083333332 32.10883246527777)"/><use xlink:href="#v" transform="matrix(1,0,0,1,312,615.9084340046636) translate(0 79.4501953125)"/><use xlink:href="#w" transform="matrix(1,0,0,1,312,615.9084340046636) translate(18.47873263888889 79.4501953125)"/><use xlink:href="#x" transform="matrix(1,0,0,1,312,615.9084340046636) translate(157.21571180555557 79.4501953125)"/><use xlink:href="#y" transform="matrix(1,0,0,1,312,615.9084340046636) translate(168.90190972222223 79.4501953125)"/><use xlink:href="#e" transform="matrix(1,0,0,1,312,615.9084340046636) translate(0 126.79155815972223)"/><use xlink:href="#z" transform="matrix(1,0,0,1,312,615.9084340046636) translate(18.47873263888889 126.79155815972223)"/><use xlink:href="#e" transform="matrix(1,0,0,1,312,615.9084340046636) translate(0 174.13292100694446)"/><use xlink:href="#A" transform="matrix(1,0,0,1,312,615.9084340046636) translate(18.47873263888889 174.13292100694446)"/><path d="M760.74 585.45h120.8" stroke="#333" stroke-width="2" fill="none"/><path d="M731.4 585.45l14.85-14.85 15.15 14.85-15.15 14.85z" stroke="#333" stroke-width="2" fill="#fff"/><path d="M864.18 595.63l17.22-10.18-17.22-10.18" stroke="#333" stroke-width="2" fill="none"/><path d="M478.72 461h-97.7l.23 43.56h-2L379 459h99.72zm174.67 14.63h-2V461h-97.73v-2h99.72z" fill="#333"/><path d="M667.24 490.12l-14.85 14.85-14.86-14.85 14.85-15.15z" fill="#333"/><path d="M668.65 490.13l-16.26 16.25-16.27-16.25 16.26-16.6zm-29.7-.02l13.44 13.45 13.43-13.44-13.44-13.7zM391.2 487.65l-10.94 18.73-11.14-18.6 1.7-1.03 9.42 15.7 9.23-15.8z" fill="#333"/><g><use xlink:href="#B" transform="matrix(1,0,0,1,478.72181796880227,443.74365234375) translate(0 27.2392578125)"/><use xlink:href="#C" transform="matrix(1,0,0,1,478.72181796880227,443.74365234375) translate(4.67578125 27.2392578125)"/></g><path d="M280 909.72c0-4.42 3.58-8 8-8h144c4.42 0 8 3.58 8 8v41c0 4.42-3.58 8-8 8H288c-4.42 0-8-3.58-8-8z" stroke="#333" stroke-width="2" fill="#f9f8f8"/><g><use xlink:href="#D" transform="matrix(1,0,0,1,288,909.7213062534163) translate(15.8205295138889 29.12087673611111)"/></g><path d="M120 906.72c0-4.42 3.58-8 8-8h108.3l10.2 13.6c2.63 3.53 2.63 9.27 0 12.8l-10.2 13.6H128c-4.42 0-8-3.58-8-8z" stroke="#666" stroke-width="2" fill="#ccc"/><g><use xlink:href="#E" transform="matrix(1,0,0,1,120,898.7213062534164) translate(29.447916666666664 28.62087673611111)"/></g><path d="M60 1000h368l12 12v48H60z" stroke="#333" stroke-width="2" fill="#f9f8f8"/><path d="M428 1000.95V1012h11.05" stroke="#333" stroke-width="2" fill="#f9f8f8"/><g><use xlink:href="#F" transform="matrix(1,0,0,1,65,1005) translate(0 33.6142578125)"/><use xlink:href="#G" transform="matrix(1,0,0,1,65,1005) translate(40.0078125 33.6142578125)"/><use xlink:href="#H" transform="matrix(1,0,0,1,65,1005) translate(125.9736328125 33.6142578125)"/><use xlink:href="#I" transform="matrix(1,0,0,1,65,1005) translate(160.7783203125 33.6142578125)"/><use xlink:href="#J" transform="matrix(1,0,0,1,65,1005) translate(249.4951171875 33.6142578125)"/><use xlink:href="#K" transform="matrix(1,0,0,1,65,1005) translate(271.142578125 33.6142578125)"/><use xlink:href="#L" transform="matrix(1,0,0,1,65,1005) translate(303.3193359375 33.6142578125)"/></g><path d="M360 960.72V998" stroke="#333" stroke-width="2" fill="none"/><path d="M361 960.75h-2v-1.03h2zM361 999h-2v-1.03h2z" fill="#333"/><path d="M360 869.97V807.2" stroke="#333" stroke-width="2" fill="none"/><path d="M360 899.3l-14.85-14.84L360 869.3l14.85 15.16z" stroke="#333" stroke-width="2" fill="#fff"/><path d="M370.18 824.56L360 807.36l-10.18 17.2" stroke="#333" stroke-width="2" fill="none"/><defs><path fill="#666" d="M1133-1128c-95-42-202-97-328-97-258 0-367 218-367 498 0 326 122 489 367 489 103 0 227-26 373-77v260C1058-5 924 20 776 20c-443 0-662-290-657-749 5-455 236-754 686-754 142 0 285 34 428 103" id="M"/><path fill="#666" d="M633-893c-183 0-230 133-230 332s48 336 232 336c183 0 229-137 229-336s-47-332-231-332zm4-246c347 5 535 225 539 578S978 25 631 20C283 15 96-208 92-561c-4-355 196-583 545-578" id="N"/><path fill="#666" d="M795-1139c261-1 398 148 397 410V0H887v-653c-1-148-42-242-180-242-202 0-242 139-242 369V0H160v-1118h233l41 143h17c62-102 185-163 344-164" id="O"/><path fill="#666" d="M954-63C853 0 774 20 614 20 266 20 92-171 92-553c0-369 188-586 549-586 129 0 245 25 348 76l-90 236c-84-31-156-66-258-66-159 0-238 113-238 338 0 219 79 328 238 328 137 0 223-38 313-97v261" id="P"/><path fill="#666" d="M451-930c71-134 228-244 436-200l-23 286c-220-45-399 61-399 275V0H160v-1118h231l45 188h15" id="Q"/><path fill="#666" d="M836-686c0-141-77-236-213-236-140 0-206 98-215 236h428zm223 627C946-4 838 19 666 20 308 22 92-191 92-551c0-356 187-588 529-588 314 0 504 195 501 508v148H401c5 169 104 277 279 276 158-2 261-33 379-88v236" id="R"/><path fill="#666" d="M498-350c-2 85 52 126 133 127 53 0 117-12 192-35v227C747 3 654 20 543 20c-247 0-350-124-350-370v-539H47v-129l168-102 88-236h195v238h313v229H498v539" id="S"/><g id="a"><use transform="matrix(0.010850694444444444,0,0,0.010850694444444444,0,0)" xlink:href="#M"/><use transform="matrix(0.010850694444444444,0,0,0.010850694444444444,14.16015625,0)" xlink:href="#N"/><use transform="matrix(0.010850694444444444,0,0,0.010850694444444444,27.91883680555556,0)" xlink:href="#O"/><use transform="matrix(0.010850694444444444,0,0,0.010850694444444444,42.52387152777778,0)" xlink:href="#P"/><use transform="matrix(0.010850694444444444,0,0,0.010850694444444444,53.94965277777778,0)" xlink:href="#Q"/><use transform="matrix(0.010850694444444444,0,0,0.010850694444444444,63.595920138888886,0)" xlink:href="#R"/><use transform="matrix(0.010850694444444444,0,0,0.010850694444444444,76.72526041666666,0)" xlink:href="#S"/><use transform="matrix(0.010850694444444444,0,0,0.010850694444444444,86.37152777777777,0)" xlink:href="#R"/></g><path fill="#666" d="M1384-895c-176 0-222 133-223 334V0H856v-653c-1-144-37-242-168-242-78 0-135 29-170 86s-53 152-53 283V0H160v-1118h233l41 143h17c56-98 174-164 325-164 167 0 281 55 340 164h27c55-99 179-165 330-164 265 2 385 133 385 410V0h-306v-653c-1-144-37-242-168-242" id="T"/><path fill="#666" d="M618-1141c286 0 465 117 465 396V0H870l-59-152h-8C704-33 632 18 432 20 216 22 86-113 86-334c0-119 44-202 124-262 109-82 356-99 570-100 11-142-39-219-174-219-89 0-194 27-315 81l-101-206c129-67 271-101 428-101zm-71 938c137 0 235-88 233-223v-92c-190 3-382 4-381 186 0 86 49 129 148 129" id="U"/><path fill="#666" d="M92-557c0-327 132-582 430-582 141 0 248 55 322 164h10c-38-188-18-371-23-581h306V0H903l-59-145h-13C762-35 656 20 514 20 222 20 92-237 92-557zm309 4c0 190 54 330 220 330 191 0 231-123 231-332 0-214-44-336-236-336-161 0-215 151-215 338" id="V"/><path fill="#666" d="M836-831c-99-39-182-77-306-82-139-6-173 83-92 144 51 39 327 139 383 188 71 62 119 126 119 249C940-74 747 21 463 20 305 20 202 0 94-45v-252c93 45 253 94 379 94 111 0 166-32 166-96 0-68-41-76-98-109-79-46-276-119-333-167-74-61-116-125-116-252 0-368 555-367 836-224" id="W"/><g id="b"><use transform="matrix(0.010850694444444444,0,0,0.010850694444444444,0,0)" xlink:href="#M"/><use transform="matrix(0.010850694444444444,0,0,0.010850694444444444,14.16015625,0)" xlink:href="#N"/><use transform="matrix(0.010850694444444444,0,0,0.010850694444444444,27.91883680555556,0)" xlink:href="#T"/><use transform="matrix(0.010850694444444444,0,0,0.010850694444444444,49.73958333333333,0)" xlink:href="#T"/><use transform="matrix(0.010850694444444444,0,0,0.010850694444444444,71.56032986111111,0)" xlink:href="#U"/><use transform="matrix(0.010850694444444444,0,0,0.010850694444444444,84.98263888888889,0)" xlink:href="#O"/><use transform="matrix(0.010850694444444444,0,0,0.010850694444444444,99.58767361111111,0)" xlink:href="#V"/><use transform="matrix(0.010850694444444444,0,0,0.010850694444444444,113.6501736111111,0)" xlink:href="#W"/></g><path fill="#333" d="M1065-242L104-664v-98l961-479v149L283-721l782 328v151" id="X"/><path fill="#333" d="M342 0H176v-1096h166V0zm-82-1282c-61 0-98-43-98-111 0-69 36-110 98-110 59 0 98 43 98 110s-39 111-98 111" id="Y"/><path fill="#333" d="M694-1116c270 0 399 125 398 401V0H926v-709c-1-177-76-266-252-266-250 0-332 133-332 400V0H176v-1096h135l27 150h8c62-101 190-170 348-170" id="Z"/><path fill="#333" d="M354-322c-2 123 60 204 176 205 51 1 114-10 150-20v127C647 7 557 20 506 20 294 20 188-92 188-315v-652H31v-80l157-69 70-234h96v254h318v129H354v645" id="aa"/><path fill="#333" d="M995-51C878-2 799 19 639 20c-329 2-524-221-524-559 0-326 172-577 481-577 278 0 451 210 446 493v105H287c4 242 121 392 358 393 118 0 235-25 350-74v148zM864-653c2-195-85-324-270-324-190 0-288 139-303 324h573" id="ab"/><path fill="#333" d="M340-893c80-153 237-262 467-211l-23 154c-45-10-85-15-120-15-184-3-322 182-322 377V0H176v-1096h137l19 203h8" id="ac"/><path fill="#333" d="M575-1430c-169 0-190 146-184 334h279v129H391V0H225v-967H29v-75l196-60c-15-299 97-465 353-465 58 0 126 12 204 35l-43 133c-64-21-119-31-164-31" id="ad"/><path fill="#333" d="M588-1114c260 0 384 106 385 366V0H850l-33-156h-8C708-34 639 17 442 20 231 23 94-94 94-303c0-221 177-337 531-348l186-6c11-203-40-320-233-320-91 0-195 28-310 84l-51-127c97-53 229-94 371-94zM268-301c-1 123 81 184 207 184 203 0 334-120 332-323v-99c-257 14-539-7-539 238" id="ae"/><path fill="#333" d="M287-543c-1 247 91 418 323 418 91 0 185-20 281-59v147C818 1 725 20 614 20c-329 0-499-221-499-561 0-349 172-575 510-575 96 0 221 26 282 57l-51 141c-61-25-157-50-235-51-223 0-334 142-334 426" id="af"/><path fill="#333" d="M104-393l783-326-783-373v-149l961 479v98L104-242v-151" id="ag"/><g id="c"><use transform="matrix(0.010850694444444444,0,0,0.010850694444444444,0,0)" xlink:href="#X"/><use transform="matrix(0.010850694444444444,0,0,0.010850694444444444,12.706163194444445,0)" xlink:href="#X"/><use transform="matrix(0.010850694444444444,0,0,0.010850694444444444,25.41232638888889,0)" xlink:href="#Y"/><use transform="matrix(0.010850694444444444,0,0,0.010850694444444444,31.03298611111111,0)" xlink:href="#Z"/><use transform="matrix(0.010850694444444444,0,0,0.010850694444444444,44.67230902777778,0)" xlink:href="#aa"/><use transform="matrix(0.010850694444444444,0,0,0.010850694444444444,52.51736111111112,0)" xlink:href="#ab"/><use transform="matrix(0.010850694444444444,0,0,0.010850694444444444,64.98480902777779,0)" xlink:href="#ac"/><use transform="matrix(0.010850694444444444,0,0,0.010850694444444444,74.05598958333334,0)" xlink:href="#ad"/><use transform="matrix(0.010850694444444444,0,0,0.010850694444444444,81.58637152777779,0)" xlink:href="#ae"/><use transform="matrix(0.010850694444444444,0,0,0.010850694444444444,93.9453125,0)" xlink:href="#af"/><use transform="matrix(0.010850694444444444,0,0,0.010850694444444444,104.52473958333333,0)" xlink:href="#ab"/><use transform="matrix(0.010850694444444444,0,0,0.010850694444444444,116.9921875,0)" xlink:href="#ag"/><use transform="matrix(0.010850694444444444,0,0,0.010850694444444444,129.69835069444446,0)" xlink:href="#ag"/></g><path fill="#333" d="M1217-1130c-117-62-172-97-312-97-215 0-336 143-407 319-43 105-64 218-64 339 1 215 78 328 287 329 97 0 210-26 338-77v260C926-6 793 20 659 20c-345 1-536-220-536-573 0-355 166-672 382-817 223-150 607-147 830-10" id="ah"/><path fill="#333" d="M805-696c0-131-48-197-143-197-50 0-94 21-134 61-78 78-135 263-135 422 0 123 50 185 150 185 127 0 193-116 229-233 22-73 33-152 33-238zm-121-443c263 0 424 175 424 443 0 284-101 512-274 626-89 59-194 90-316 90C262 20 90-154 90-410c0-288 103-522 278-638 90-60 195-91 316-91" id="ai"/><path fill="#333" d="M1470-1139c255-9 308 252 256 502L1593 0h-301l138-653c29-101 29-242-82-242-61 0-116 37-166 112-119 179-154 531-215 783H666l137-653c29-101 29-242-82-242-61 0-117 38-167 114C435-599 401-252 338 0H37l237-1118h230l-21 207h6c97-152 216-228 355-228 146 0 233 76 262 228h6c76-122 186-222 358-228" id="aj"/><path fill="#333" d="M608-1139c139 1 230 65 277 164h8l57-143h232L944 0H715l14-145h-4C636-35 529 20 406 20 192 20 90-154 90-385c0-266 113-534 261-655 79-65 164-99 257-99zM395-399c-1 104 35 176 129 176 46 0 90-22 133-67 87-92 142-257 142-441 0-88-54-165-140-164-45 0-87 25-129 72-76 86-135 265-135 424" id="ak"/><path fill="#333" d="M844-1139c190 0 291 125 289 322 0 49-8 109-23 180L977 0H676l137-653c30-107 28-242-92-242-61 0-117 38-167 114C435-599 401-252 338 0H37l237-1118h230l-21 207h6c97-152 216-228 355-228" id="al"/><path fill="#333" d="M725-145C643-47 561 20 406 20 192 20 90-155 90-387c0-265 113-532 260-653 79-65 164-99 258-99 139 0 192 63 254 164h8c11-222 67-386 103-581h301L944 0H715l14-145h-4zm36-329c47-141 85-417-102-421-45 0-87 25-129 72-76 86-135 265-135 424 0 117 46 176 137 176 44 0 86-23 128-69s76-106 101-182" id="am"/><g id="d"><use transform="matrix(0.013020833333333334,0,0,0.013020833333333334,0,0)" xlink:href="#ah"/><use transform="matrix(0.013020833333333334,0,0,0.013020833333333334,16.315104166666668,0)" xlink:href="#ai"/><use transform="matrix(0.013020833333333334,0,0,0.013020833333333334,31.9140625,0)" xlink:href="#aj"/><use transform="matrix(0.013020833333333334,0,0,0.013020833333333334,56.04166666666667,0)" xlink:href="#aj"/><use transform="matrix(0.013020833333333334,0,0,0.013020833333333334,80.16927083333334,0)" xlink:href="#ak"/><use transform="matrix(0.013020833333333334,0,0,0.013020833333333334,96.01562500000001,0)" xlink:href="#al"/><use transform="matrix(0.013020833333333334,0,0,0.013020833333333334,112.12239583333334,0)" xlink:href="#am"/></g><path fill="#333" d="M653-791h412v138H653v426H514v-426H104v-138h410v-428h139v428" id="an"/><use transform="matrix(0.010850694444444444,0,0,0.010850694444444444,0,0)" xlink:href="#an" id="e"/><path fill="#333" d="M440-561L59-1096h189l289 420 288-420h187L631-561 1032 0H844L537-444 227 0H39" id="ao"/><path fill="#333" d="M563 20c-271 0-399-123-399-399v-717h168v711c1 177 76 266 252 266 250 0 331-135 331-401v-576h166V0H944l-24-147h-9C848-44 724 20 563 20" id="ap"/><path fill="#333" d="M383 324C201 116 82-188 82-561c0-378 120-688 301-901h162c-172 227-289 529-289 899 0 361 122 665 287 887H383" id="aq"/><path fill="#333" d="M223-1462c182 213 301 524 301 901 0 373-119 679-301 885H63c166-222 287-526 287-887 0-369-117-672-289-899h162" id="ar"/><g id="f"><use transform="matrix(0.010850694444444444,0,0,0.010850694444444444,0,0)" xlink:href="#ab"/><use transform="matrix(0.010850694444444444,0,0,0.010850694444444444,12.022569444444445,0)" xlink:href="#ao"/><use transform="matrix(0.010850694444444444,0,0,0.010850694444444444,23.220486111111114,0)" xlink:href="#ab"/><use transform="matrix(0.010850694444444444,0,0,0.010850694444444444,35.68793402777778,0)" xlink:href="#af"/><use transform="matrix(0.010850694444444444,0,0,0.010850694444444444,46.26736111111111,0)" xlink:href="#ap"/><use transform="matrix(0.010850694444444444,0,0,0.010850694444444444,59.90668402777778,0)" xlink:href="#aa"/><use transform="matrix(0.010850694444444444,0,0,0.010850694444444444,67.75173611111111,0)" xlink:href="#ab"/><use transform="matrix(0.010850694444444444,0,0,0.010850694444444444,80.21918402777779,0)" xlink:href="#aq"/><use transform="matrix(0.010850694444444444,0,0,0.010850694444444444,86.79470486111111,0)" xlink:href="#ar"/></g><path fill="#333" d="M643-1462c464-5 754 260 754 717 0 491-297 749-799 745H184v-1462h459zm432 725c0-314-139-471-416-471H494v952h133c299 0 448-160 448-481" id="as"/><path fill="#333" d="M479-1407c-1 99-61 150-166 150-111 0-166-50-166-150 0-99 55-149 166-149s166 50 166 149zM465 0H160v-1118h305V0" id="at"/><path fill="#333" d="M451-930c71-134 228-244 436-200l-23 286c-220-45-399 61-399 275V0H160v-1118h231l45 188h15" id="au"/><path fill="#333" d="M836-686c0-141-77-236-213-236-140 0-206 98-215 236h428zm223 627C946-4 838 19 666 20 308 22 92-191 92-551c0-356 187-588 529-588 314 0 504 195 501 508v148H401c5 169 104 277 279 276 158-2 261-33 379-88v236" id="av"/><path fill="#333" d="M954-63C853 0 774 20 614 20 266 20 92-171 92-553c0-369 188-586 549-586 129 0 245 25 348 76l-90 236c-84-31-156-66-258-66-159 0-238 113-238 338 0 219 79 328 238 328 137 0 223-38 313-97v261" id="aw"/><path fill="#333" d="M498-350c-2 85 52 126 133 127 53 0 117-12 192-35v227C747 3 654 20 543 20c-247 0-350-124-350-370v-539H47v-129l168-102 88-236h195v238h313v229H498v539" id="ax"/><path fill="#333" d="M633-893c-183 0-230 133-230 332s48 336 232 336c183 0 229-137 229-336s-47-332-231-332zm4-246c347 5 535 225 539 578S978 25 631 20C283 15 96-208 92-561c-4-355 196-583 545-578" id="ay"/><path fill="#333" d="M795-1139c261-1 398 148 397 410V0H887v-653c-1-148-42-242-180-242-202 0-242 139-242 369V0H160v-1118h233l41 143h17c62-102 185-163 344-164" id="az"/><path fill="#333" d="M618-1141c286 0 465 117 465 396V0H870l-59-152h-8C704-33 632 18 432 20 216 22 86-113 86-334c0-119 44-202 124-262 109-82 356-99 570-100 11-142-39-219-174-219-89 0-194 27-315 81l-101-206c129-67 271-101 428-101zm-71 938c137 0 235-88 233-223v-92c-190 3-382 4-381 186 0 86 49 129 148 129" id="aA"/><path fill="#333" d="M465 0H160v-1556h305V0" id="aB"/><path fill="#333" d="M1458 0c3-430-10-709 15-1145h-9L1087 0H803L451-1147h-9c31 483 15 690 19 1147H184v-1462h422L952-344h6l367-1118h422V0h-289" id="aC"/><path fill="#333" d="M426 0L0-1118h319l216 637c24 81 39 157 45 229h6c3-64 15-141 45-229l215-637h319L739 0H426" id="aD"/><g id="g"><use transform="matrix(0.010850694444444444,0,0,0.010850694444444444,0,0)" xlink:href="#as"/><use transform="matrix(0.010850694444444444,0,0,0.010850694444444444,16.44965277777778,0)" xlink:href="#at"/><use transform="matrix(0.010850694444444444,0,0,0.010850694444444444,23.231336805555554,0)" xlink:href="#au"/><use transform="matrix(0.010850694444444444,0,0,0.010850694444444444,32.87760416666667,0)" xlink:href="#av"/><use transform="matrix(0.010850694444444444,0,0,0.010850694444444444,46.00694444444445,0)" xlink:href="#aw"/><use transform="matrix(0.010850694444444444,0,0,0.010850694444444444,57.43272569444445,0)" xlink:href="#ax"/><use transform="matrix(0.010850694444444444,0,0,0.010850694444444444,67.07899305555556,0)" xlink:href="#at"/><use transform="matrix(0.010850694444444444,0,0,0.010850694444444444,73.86067708333333,0)" xlink:href="#ay"/><use transform="matrix(0.010850694444444444,0,0,0.010850694444444444,87.61935763888889,0)" xlink:href="#az"/><use transform="matrix(0.010850694444444444,0,0,0.010850694444444444,102.22439236111111,0)" xlink:href="#aA"/><use transform="matrix(0.010850694444444444,0,0,0.010850694444444444,115.64670138888889,0)" xlink:href="#aB"/><use transform="matrix(0.010850694444444444,0,0,0.010850694444444444,122.42838541666666,0)" xlink:href="#aC"/><use transform="matrix(0.010850694444444444,0,0,0.010850694444444444,143.38107638888889,0)" xlink:href="#ay"/><use transform="matrix(0.010850694444444444,0,0,0.010850694444444444,156.6948784722222,0)" xlink:href="#aD"/><use transform="matrix(0.010850694444444444,0,0,0.010850694444444444,169.33593749999997,0)" xlink:href="#av"/></g><path fill="#333" d="M776-240c213 0 289-110 289-329v-893h309v946c-8 356-241 531-606 536-358 5-595-195-594-540v-942h309v895c2 220 76 327 293 327" id="aE"/><path fill="#333" d="M782-1139c293 0 422 256 422 578 0 230-70 418-202 512-65 46-141 69-228 69-131 0-234-48-309-143h-16c32 222 9 383 16 615H160v-1610h248l43 145h14c71-111 177-166 317-166zm111 574c0-190-40-330-209-330-184 0-221 128-219 332 2 209 40 336 223 336 137 0 205-113 205-338" id="aF"/><path fill="#333" d="M1133-1128c-95-42-202-97-328-97-258 0-367 218-367 498 0 326 122 489 367 489 103 0 227-26 373-77v260C1058-5 924 20 776 20c-443 0-662-290-657-749 5-455 236-754 686-754 142 0 285 34 428 103" id="aG"/><path fill="#333" d="M1384-895c-176 0-222 133-223 334V0H856v-653c-1-144-37-242-168-242-78 0-135 29-170 86s-53 152-53 283V0H160v-1118h233l41 143h17c56-98 174-164 325-164 167 0 281 55 340 164h27c55-99 179-165 330-164 265 2 385 133 385 410V0h-306v-653c-1-144-37-242-168-242" id="aH"/><path fill="#333" d="M92-557c0-327 132-582 430-582 141 0 248 55 322 164h10c-38-188-18-371-23-581h306V0H903l-59-145h-13C762-35 656 20 514 20 222 20 92-237 92-557zm309 4c0 190 54 330 220 330 191 0 231-123 231-332 0-214-44-336-236-336-161 0-215 151-215 338" id="aI"/><g id="h"><use transform="matrix(0.010850694444444444,0,0,0.010850694444444444,0,0)" xlink:href="#aE"/><use transform="matrix(0.010850694444444444,0,0,0.010850694444444444,16.796875,0)" xlink:href="#aF"/><use transform="matrix(0.010850694444444444,0,0,0.010850694444444444,30.859375,0)" xlink:href="#aG"/><use transform="matrix(0.010850694444444444,0,0,0.010850694444444444,45.01953125,0)" xlink:href="#ay"/><use transform="matrix(0.010850694444444444,0,0,0.010850694444444444,58.77821180555555,0)" xlink:href="#aH"/><use transform="matrix(0.010850694444444444,0,0,0.010850694444444444,80.59895833333334,0)" xlink:href="#aH"/><use transform="matrix(0.010850694444444444,0,0,0.010850694444444444,102.41970486111111,0)" xlink:href="#aA"/><use transform="matrix(0.010850694444444444,0,0,0.010850694444444444,115.84201388888889,0)" xlink:href="#az"/><use transform="matrix(0.010850694444444444,0,0,0.010850694444444444,130.44704861111111,0)" xlink:href="#aI"/></g><path fill="#333" d="M1079 0c-64-298-133-592-202-885h-7L666 0H338L20-1118h304c74 305 149 505 192 862h6c25-292 125-597 189-862h336c64 284 150 545 182 862h6c7-69 49-308 65-367l134-495h299L1411 0h-332" id="aJ"/><g id="i"><use transform="matrix(0.010850694444444444,0,0,0.010850694444444444,0,0)" xlink:href="#as"/><use transform="matrix(0.010850694444444444,0,0,0.010850694444444444,16.44965277777778,0)" xlink:href="#ay"/><use transform="matrix(0.010850694444444444,0,0,0.010850694444444444,29.763454861111114,0)" xlink:href="#aJ"/><use transform="matrix(0.010850694444444444,0,0,0.010850694444444444,48.78472222222223,0)" xlink:href="#az"/><use transform="matrix(0.010850694444444444,0,0,0.010850694444444444,63.38975694444445,0)" xlink:href="#aG"/><use transform="matrix(0.010850694444444444,0,0,0.010850694444444444,77.54991319444446,0)" xlink:href="#ay"/><use transform="matrix(0.010850694444444444,0,0,0.010850694444444444,91.30859375000001,0)" xlink:href="#aH"/><use transform="matrix(0.010850694444444444,0,0,0.010850694444444444,113.1293402777778,0)" xlink:href="#aH"/><use transform="matrix(0.010850694444444444,0,0,0.010850694444444444,134.95008680555557,0)" xlink:href="#aA"/><use transform="matrix(0.010850694444444444,0,0,0.010850694444444444,148.37239583333334,0)" xlink:href="#az"/><use transform="matrix(0.010850694444444444,0,0,0.010850694444444444,162.97743055555557,0)" xlink:href="#aI"/></g><path fill="#333" d="M881-1016c0-191-181-195-387-192v395c210 7 387-9 387-203zm313-8c0 197-121 322-272 387 220 329 363 541 430 637h-344L659-561H494V0H184v-1462h426c360 1 584 108 584 438" id="aK"/><path fill="#333" d="M549-1139c43 0 163 15 194 21h390v155l-175 45c32 50 48 106 48 168 2 289-261 415-574 373-89 78-53 146 121 146h190c229-1 375 93 377 311 0 131-55 232-164 304S691 492 487 492c-156 0-275-28-357-82S6 280 6 182C6 26 113-51 254-84c-55-22-119-89-117-162 3-107 68-140 144-190C169-483 89-600 90-756c1-259 185-383 459-383zM467 14c-100-2-199 51-197 144 3 184 368 146 487 90 62-30 93-71 93-123 0-42-19-70-55-87-64-30-222-23-328-24zm82-569c118 0 165-80 166-197 0-135-55-202-166-202-112 0-168 67-168 202 0 117 52 197 168 197" id="aL"/><path fill="#333" d="M791-1139c262-1 402 148 401 410V0H887v-653c0-161-60-242-180-242-201 0-242 142-242 369V0H160v-1556h305c-1 210 6 368-14 581h16c68-109 176-164 324-164" id="aM"/><g id="j"><use transform="matrix(0.010850694444444444,0,0,0.010850694444444444,0,0)" xlink:href="#aK"/><use transform="matrix(0.010850694444444444,0,0,0.010850694444444444,14.670138888888888,0)" xlink:href="#at"/><use transform="matrix(0.010850694444444444,0,0,0.010850694444444444,21.451822916666664,0)" xlink:href="#aL"/><use transform="matrix(0.010850694444444444,0,0,0.010850694444444444,34.006076388888886,0)" xlink:href="#aM"/><use transform="matrix(0.010850694444444444,0,0,0.010850694444444444,48.61111111111111,0)" xlink:href="#ax"/><use transform="matrix(0.010850694444444444,0,0,0.010850694444444444,58.25737847222221,0)" xlink:href="#aG"/><use transform="matrix(0.010850694444444444,0,0,0.010850694444444444,72.41753472222221,0)" xlink:href="#ay"/><use transform="matrix(0.010850694444444444,0,0,0.010850694444444444,86.17621527777777,0)" xlink:href="#aH"/><use transform="matrix(0.010850694444444444,0,0,0.010850694444444444,107.99696180555556,0)" xlink:href="#aH"/><use transform="matrix(0.010850694444444444,0,0,0.010850694444444444,129.81770833333331,0)" xlink:href="#aA"/><use transform="matrix(0.010850694444444444,0,0,0.010850694444444444,143.2400173611111,0)" xlink:href="#az"/><use transform="matrix(0.010850694444444444,0,0,0.010850694444444444,157.84505208333331,0)" xlink:href="#aI"/></g><path fill="#333" d="M184 0v-1462h310v1206h593V0H184" id="aN"/><path fill="#333" d="M637-1325c-111 0-131 91-123 207h264v229H514V0H209v-889H41v-147l168-82c-18-311 94-449 395-449 105 0 199 16 281 47l-78 224c-61-19-118-29-170-29" id="aO"/><g id="k"><use transform="matrix(0.010850694444444444,0,0,0.010850694444444444,0,0)" xlink:href="#aN"/><use transform="matrix(0.010850694444444444,0,0,0.010850694444444444,12.554253472222221,0)" xlink:href="#av"/><use transform="matrix(0.010850694444444444,0,0,0.010850694444444444,25.68359375,0)" xlink:href="#aO"/><use transform="matrix(0.010850694444444444,0,0,0.010850694444444444,34.28819444444444,0)" xlink:href="#ax"/><use transform="matrix(0.010850694444444444,0,0,0.010850694444444444,43.93446180555556,0)" xlink:href="#aG"/><use transform="matrix(0.010850694444444444,0,0,0.010850694444444444,58.09461805555555,0)" xlink:href="#ay"/><use transform="matrix(0.010850694444444444,0,0,0.010850694444444444,71.85329861111111,0)" xlink:href="#aH"/><use transform="matrix(0.010850694444444444,0,0,0.010850694444444444,93.67404513888889,0)" xlink:href="#aH"/><use transform="matrix(0.010850694444444444,0,0,0.010850694444444444,115.49479166666666,0)" xlink:href="#aA"/><use transform="matrix(0.010850694444444444,0,0,0.010850694444444444,128.91710069444443,0)" xlink:href="#az"/><use transform="matrix(0.010850694444444444,0,0,0.010850694444444444,143.52213541666666,0)" xlink:href="#aI"/></g><path fill="#333" d="M1026 0H184v-1462h842v254H494v321h495v254H494v377h532V0" id="aP"/><g id="l"><use transform="matrix(0.010850694444444444,0,0,0.010850694444444444,0,0)" xlink:href="#aP"/><use transform="matrix(0.010850694444444444,0,0,0.010850694444444444,12.445746527777777,0)" xlink:href="#aB"/><use transform="matrix(0.010850694444444444,0,0,0.010850694444444444,19.227430555555554,0)" xlink:href="#av"/><use transform="matrix(0.010850694444444444,0,0,0.010850694444444444,32.35677083333333,0)" xlink:href="#aH"/><use transform="matrix(0.010850694444444444,0,0,0.010850694444444444,54.17751736111111,0)" xlink:href="#av"/><use transform="matrix(0.010850694444444444,0,0,0.010850694444444444,67.30685763888889,0)" xlink:href="#az"/><use transform="matrix(0.010850694444444444,0,0,0.010850694444444444,81.91189236111111,0)" xlink:href="#ax"/></g><path fill="#333" d="M270 29c-76 0-118-48-118-135 0-84 38-135 118-136 81 0 123 51 123 136 0 82-44 135-123 135" id="aQ"/><g id="m"><use transform="matrix(0.010850694444444444,0,0,0.010850694444444444,0,0)" xlink:href="#aQ"/><use transform="matrix(0.010850694444444444,0,0,0.010850694444444444,5.913628472222222,0)" xlink:href="#aQ"/><use transform="matrix(0.010850694444444444,0,0,0.010850694444444444,11.827256944444445,0)" xlink:href="#aQ"/></g><g id="n"><use transform="matrix(0.010850694444444444,0,0,0.010850694444444444,0,0)" xlink:href="#aQ"/><use transform="matrix(0.010850694444444444,0,0,0.010850694444444444,5.913628472222222,0)" xlink:href="#aQ"/><use transform="matrix(0.010850694444444444,0,0,0.010850694444444444,11.827256944444445,0)" xlink:href="#aQ"/></g><path fill="#666" d="M881-1016c0-191-181-195-387-192v395c210 7 387-9 387-203zm313-8c0 197-121 322-272 387 220 329 363 541 430 637h-344L659-561H494V0H184v-1462h426c360 1 584 108 584 438" id="aR"/><path fill="#666" d="M479-1407c-1 99-61 150-166 150-111 0-166-50-166-150 0-99 55-149 166-149s166 50 166 149zM465 0H160v-1118h305V0" id="aS"/><path fill="#666" d="M426 0L0-1118h319l216 637c24 81 39 157 45 229h6c3-64 15-141 45-229l215-637h319L739 0H426" id="aT"/><g id="o"><use transform="matrix(0.010850694444444444,0,0,0.010850694444444444,0,0)" xlink:href="#aR"/><use transform="matrix(0.010850694444444444,0,0,0.010850694444444444,14.670138888888888,0)" xlink:href="#R"/><use transform="matrix(0.010850694444444444,0,0,0.010850694444444444,27.799479166666664,0)" xlink:href="#P"/><use transform="matrix(0.010850694444444444,0,0,0.010850694444444444,39.225260416666664,0)" xlink:href="#R"/><use transform="matrix(0.010850694444444444,0,0,0.010850694444444444,52.35460069444444,0)" xlink:href="#aS"/><use transform="matrix(0.010850694444444444,0,0,0.010850694444444444,59.13628472222222,0)" xlink:href="#aT"/><use transform="matrix(0.010850694444444444,0,0,0.010850694444444444,71.77734375,0)" xlink:href="#R"/><use transform="matrix(0.010850694444444444,0,0,0.010850694444444444,84.90668402777777,0)" xlink:href="#Q"/></g><path fill="#666" d="M184 0v-1462h310V0H184" id="aU"/><path fill="#666" d="M453-608l133-170 313-340h344L799-633 1270 0H918L596-453 465-348V0H160v-1556h305v694l-16 254h4" id="aV"/><g id="p"><use transform="matrix(0.010850694444444444,0,0,0.010850694444444444,0,0)" xlink:href="#aU"/><use transform="matrix(0.010850694444444444,0,0,0.010850694444444444,7.356770833333333,0)" xlink:href="#O"/><use transform="matrix(0.010850694444444444,0,0,0.010850694444444444,21.961805555555554,0)" xlink:href="#aT"/><use transform="matrix(0.010850694444444444,0,0,0.010850694444444444,34.60286458333333,0)" xlink:href="#N"/><use transform="matrix(0.010850694444444444,0,0,0.010850694444444444,48.361545138888886,0)" xlink:href="#aV"/><use transform="matrix(0.010850694444444444,0,0,0.010850694444444444,61.69704861111111,0)" xlink:href="#R"/><use transform="matrix(0.010850694444444444,0,0,0.010850694444444444,74.82638888888889,0)" xlink:href="#Q"/></g><path fill="#666" d="M1477-784c-48 181-138 364-242 491L1536 0h-377l-115-113C917-24 773 20 612 20 317 20 82-120 82-395c0-228 101-314 268-414-84-100-143-178-143-336 0-218 193-338 428-338 224 0 408 109 409 318 0 79-23 151-69 217S855-819 752-760l284 277c47-78 88-178 123-301h318zM528-627c-64 52-123 101-125 203-2 120 106 188 230 188 84 0 160-20 227-61zm105-620c-84 0-144 41-144 123 0 59 32 123 95 194 57-32 101-63 132-94s46-68 46-109c1-72-57-114-129-114" id="aW"/><use transform="matrix(0.010850694444444444,0,0,0.010850694444444444,0,0)" xlink:href="#aW" id="q"/><path fill="#666" d="M596-1225c-134-8-223 103-163 219 11 21 33 41 61 60s93 53 196 102c137 65 230 130 281 196s76 147 76 242c-3 286-231 426-539 426C352 20 214-9 94-68v-288c159 68 260 115 438 120 123 3 211-41 211-155 0-73-44-105-95-141-63-46-329-160-390-220-78-77-147-167-147-315 0-273 208-420 495-416 177 2 298 46 434 103l-100 241c-131-51-199-78-344-86" id="aX"/><path fill="#666" d="M549-1139c43 0 163 15 194 21h390v155l-175 45c32 50 48 106 48 168 2 289-261 415-574 373-89 78-53 146 121 146h190c229-1 375 93 377 311 0 131-55 232-164 304S691 492 487 492c-156 0-275-28-357-82S6 280 6 182C6 26 113-51 254-84c-55-22-119-89-117-162 3-107 68-140 144-190C169-483 89-600 90-756c1-259 185-383 459-383zM467 14c-100-2-199 51-197 144 3 184 368 146 487 90 62-30 93-71 93-123 0-42-19-70-55-87-64-30-222-23-328-24zm82-569c118 0 165-80 166-197 0-135-55-202-166-202-112 0-168 67-168 202 0 117 52 197 168 197" id="aY"/><path fill="#666" d="M465 0H160v-1556h305V0" id="aZ"/><g id="r"><use transform="matrix(0.010850694444444444,0,0,0.010850694444444444,0,0)" xlink:href="#aX"/><use transform="matrix(0.010850694444444444,0,0,0.010850694444444444,12.239583333333332,0)" xlink:href="#aS"/><use transform="matrix(0.010850694444444444,0,0,0.010850694444444444,19.02126736111111,0)" xlink:href="#O"/><use transform="matrix(0.010850694444444444,0,0,0.010850694444444444,33.62630208333333,0)" xlink:href="#aY"/><use transform="matrix(0.010850694444444444,0,0,0.010850694444444444,46.18055555555556,0)" xlink:href="#aZ"/><use transform="matrix(0.010850694444444444,0,0,0.010850694444444444,52.96223958333333,0)" xlink:href="#R"/><use transform="matrix(0.010850694444444444,0,0,0.010850694444444444,66.0915798611111,0)" xlink:href="#S"/><use transform="matrix(0.010850694444444444,0,0,0.010850694444444444,75.73784722222221,0)" xlink:href="#N"/><use transform="matrix(0.010850694444444444,0,0,0.010850694444444444,89.49652777777777,0)" xlink:href="#O"/></g><path fill="#333" d="M184 0v-1462h310V0H184" id="ba"/><path fill="#333" d="M453-608l133-170 313-340h344L799-633 1270 0H918L596-453 465-348V0H160v-1556h305v694l-16 254h4" id="bb"/><g id="s"><use transform="matrix(0.010850694444444444,0,0,0.010850694444444444,0,0)" xlink:href="#aG"/><use transform="matrix(0.010850694444444444,0,0,0.010850694444444444,14.16015625,0)" xlink:href="#ay"/><use transform="matrix(0.010850694444444444,0,0,0.010850694444444444,27.91883680555556,0)" xlink:href="#aH"/><use transform="matrix(0.010850694444444444,0,0,0.010850694444444444,49.73958333333333,0)" xlink:href="#aH"/><use transform="matrix(0.010850694444444444,0,0,0.010850694444444444,71.56032986111111,0)" xlink:href="#aA"/><use transform="matrix(0.010850694444444444,0,0,0.010850694444444444,84.98263888888889,0)" xlink:href="#az"/><use transform="matrix(0.010850694444444444,0,0,0.010850694444444444,99.58767361111111,0)" xlink:href="#aI"/><use transform="matrix(0.010850694444444444,0,0,0.010850694444444444,113.6501736111111,0)" xlink:href="#ba"/><use transform="matrix(0.010850694444444444,0,0,0.010850694444444444,121.00694444444444,0)" xlink:href="#az"/><use transform="matrix(0.010850694444444444,0,0,0.010850694444444444,135.61197916666666,0)" xlink:href="#aD"/><use transform="matrix(0.010850694444444444,0,0,0.010850694444444444,148.25303819444443,0)" xlink:href="#ay"/><use transform="matrix(0.010850694444444444,0,0,0.010850694444444444,162.01171874999997,0)" xlink:href="#bb"/><use transform="matrix(0.010850694444444444,0,0,0.010850694444444444,175.3472222222222,0)" xlink:href="#av"/><use transform="matrix(0.010850694444444444,0,0,0.010850694444444444,188.47656249999994,0)" xlink:href="#au"/></g><path fill="#333" d="M84-473v-152h491v152H84" id="bc"/><use transform="matrix(0.010850694444444444,0,0,0.010850694444444444,0,0)" xlink:href="#bc" id="t"/><path fill="#333" d="M125-733c6-459 248-750 704-750 153 0 287 28 402 84l-72 146c-111-52-221-78-332-78-334-1-520 251-520 600 0 361 171 600 518 600 102 0 218-18 349-55v149C1073 1 948 20 799 20c-445 1-680-294-674-753" id="bd"/><path fill="#333" d="M621-1116c316 0 501 239 501 567 0 339-180 575-508 569S119-212 115-549c-4-339 178-567 506-567zm-5 141c-239 0-329 168-329 426 0 255 93 430 331 430s332-174 332-430-95-426-334-426" id="be"/><path fill="#333" d="M1368-1116c259 2 372 131 371 401V0h-166v-713c0-168-66-262-230-262-221 0-303 131-303 363V0H874v-713c-1-169-66-262-231-262-235 0-301 142-301 400V0H176v-1096h135l27 150h8c56-99 174-170 324-170 171 0 283 62 336 186h8c60-108 189-187 354-186" id="bf"/><path fill="#333" d="M115-545c0-330 146-571 454-571 149 0 263 54 342 162h13c-20-185-8-401-11-602h166V0H944l-22-147h-9C836-36 722 20 569 20c-309 0-454-234-454-565zm172 2c0 249 78 424 303 424 257 0 327-150 323-426-4-282-68-432-325-432-220 0-301 191-301 434" id="bg"/><path fill="#333" d="M201 0v-1462h170V0H201" id="bh"/><path fill="#333" d="M516-150c94-315 146-423 332-946h178L610 0H416L0-1096h178c98 281 253 670 330 946h8" id="bi"/><path fill="#333" d="M340-561c134-179 332-366 485-535h197L578-629 1053 0H852L465-518 340-410V0H176v-1556h164c-4 336 9 669-8 995h8" id="bj"/><g id="u"><use transform="matrix(0.010850694444444444,0,0,0.010850694444444444,0,0)" xlink:href="#bd"/><use transform="matrix(0.010850694444444444,0,0,0.010850694444444444,14.019097222222221,0)" xlink:href="#be"/><use transform="matrix(0.010850694444444444,0,0,0.010850694444444444,27.44140625,0)" xlink:href="#bf"/><use transform="matrix(0.010850694444444444,0,0,0.010850694444444444,48.111979166666664,0)" xlink:href="#bf"/><use transform="matrix(0.010850694444444444,0,0,0.010850694444444444,68.78255208333333,0)" xlink:href="#ae"/><use transform="matrix(0.010850694444444444,0,0,0.010850694444444444,81.14149305555554,0)" xlink:href="#Z"/><use transform="matrix(0.010850694444444444,0,0,0.010850694444444444,94.78081597222221,0)" xlink:href="#bg"/><use transform="matrix(0.010850694444444444,0,0,0.010850694444444444,108.39843749999997,0)" xlink:href="#bh"/><use transform="matrix(0.010850694444444444,0,0,0.010850694444444444,114.59418402777776,0)" xlink:href="#Z"/><use transform="matrix(0.010850694444444444,0,0,0.010850694444444444,128.23350694444443,0)" xlink:href="#bi"/><use transform="matrix(0.010850694444444444,0,0,0.010850694444444444,139.36631944444443,0)" xlink:href="#be"/><use transform="matrix(0.010850694444444444,0,0,0.010850694444444444,152.7886284722222,0)" xlink:href="#bj"/><use transform="matrix(0.010850694444444444,0,0,0.010850694444444444,164.00824652777774,0)" xlink:href="#ab"/><use transform="matrix(0.010850694444444444,0,0,0.010850694444444444,176.4756944444444,0)" xlink:href="#ac"/><use transform="matrix(0.010850694444444444,0,0,0.010850694444444444,185.54687499999994,0)" xlink:href="#aq"/><use transform="matrix(0.010850694444444444,0,0,0.010850694444444444,192.1223958333333,0)" xlink:href="#ar"/></g><use transform="matrix(0.010850694444444444,0,0,0.010850694444444444,0,0)" xlink:href="#an" id="v"/><path fill="#333" d="M125-741c0-247 161-377 414-375 57 0 109 7 155 20h379v105l-203 24c37 48 72 129 72 219 0 255-227 390-504 345-71 37-106 84-106 141 0 78 66 88 164 88h194c219-1 369 87 369 293 0 121-49 213-146 277s-239 96-426 96c-250 0-448-83-448-306C39 36 147-58 283-86c-52-23-102-79-99-152 4-104 57-143 133-192-107-42-192-164-192-311zM438-25c-143-1-242 70-239 209s131 181 290 181c139 0 242-21 309-63s101-98 101-169c0-147-88-158-262-158H438zm94-970c-158 0-243 88-243 250 0 153 93 233 246 233 162 0 243-79 243-236 0-165-82-247-246-247" id="bk"/><path fill="#333" d="M502-977c-130 0-238 32-238 139 0 75 39 101 95 134 33 19 97 46 192 81 130 48 217 95 263 143s69 108 69 181C883-73 695 20 449 20 304 20 190-3 109-49v-154c91 47 216 86 344 86 149 0 270-36 270-168 0-43-21-76-55-109-56-55-367-158-434-208-74-55-128-109-128-225 0-327 490-342 754-217l-59 135c-110-45-210-68-299-68" id="bl"/><g id="w"><use transform="matrix(0.010850694444444444,0,0,0.010850694444444444,0,0)" xlink:href="#bk"/><use transform="matrix(0.010850694444444444,0,0,0.010850694444444444,12.174479166666666,0)" xlink:href="#ab"/><use transform="matrix(0.010850694444444444,0,0,0.010850694444444444,24.641927083333332,0)" xlink:href="#aa"/><use transform="matrix(0.010850694444444444,0,0,0.010850694444444444,32.486979166666664,0)" xlink:href="#bh"/><use transform="matrix(0.010850694444444444,0,0,0.010850694444444444,38.68272569444444,0)" xlink:href="#Z"/><use transform="matrix(0.010850694444444444,0,0,0.010850694444444444,52.32204861111111,0)" xlink:href="#bl"/><use transform="matrix(0.010850694444444444,0,0,0.010850694444444444,62.92317708333333,0)" xlink:href="#aa"/><use transform="matrix(0.010850694444444444,0,0,0.010850694444444444,70.76822916666666,0)" xlink:href="#ae"/><use transform="matrix(0.010850694444444444,0,0,0.010850694444444444,83.12717013888889,0)" xlink:href="#Z"/><use transform="matrix(0.010850694444444444,0,0,0.010850694444444444,96.76649305555556,0)" xlink:href="#af"/><use transform="matrix(0.010850694444444444,0,0,0.010850694444444444,107.34592013888889,0)" xlink:href="#ab"/><use transform="matrix(0.010850694444444444,0,0,0.010850694444444444,119.81336805555556,0)" xlink:href="#aq"/><use transform="matrix(0.010850694444444444,0,0,0.010850694444444444,126.38888888888889,0)" xlink:href="#ar"/></g><path fill="#333" d="M270 29c-76 0-118-48-118-135 0-84 38-135 118-136 81 0 123 51 123 136 0 82-44 135-123 135zm0-883c-76 0-118-48-118-135 0-90 39-135 118-135 82 0 123 45 123 135 0 82-44 135-123 135" id="bm"/><use transform="matrix(0.010850694444444444,0,0,0.010850694444444444,0,0)" xlink:href="#bm" id="x"/><g id="y"><use transform="matrix(0.010850694444444444,0,0,0.010850694444444444,0,0)" xlink:href="#bd"/><use transform="matrix(0.010850694444444444,0,0,0.010850694444444444,14.019097222222221,0)" xlink:href="#be"/><use transform="matrix(0.010850694444444444,0,0,0.010850694444444444,27.44140625,0)" xlink:href="#bf"/><use transform="matrix(0.010850694444444444,0,0,0.010850694444444444,48.111979166666664,0)" xlink:href="#bf"/><use transform="matrix(0.010850694444444444,0,0,0.010850694444444444,68.78255208333333,0)" xlink:href="#ae"/><use transform="matrix(0.010850694444444444,0,0,0.010850694444444444,81.14149305555554,0)" xlink:href="#Z"/><use transform="matrix(0.010850694444444444,0,0,0.010850694444444444,94.78081597222221,0)" xlink:href="#bg"/><use transform="matrix(0.010850694444444444,0,0,0.010850694444444444,108.39843749999997,0)" xlink:href="#bh"/><use transform="matrix(0.010850694444444444,0,0,0.010850694444444444,114.59418402777776,0)" xlink:href="#Z"/><use transform="matrix(0.010850694444444444,0,0,0.010850694444444444,128.23350694444443,0)" xlink:href="#bi"/><use transform="matrix(0.010850694444444444,0,0,0.010850694444444444,139.36631944444443,0)" xlink:href="#be"/><use transform="matrix(0.010850694444444444,0,0,0.010850694444444444,152.7886284722222,0)" xlink:href="#bj"/><use transform="matrix(0.010850694444444444,0,0,0.010850694444444444,164.00824652777774,0)" xlink:href="#ab"/><use transform="matrix(0.010850694444444444,0,0,0.010850694444444444,176.4756944444444,0)" xlink:href="#ac"/></g><g id="z"><use transform="matrix(0.010850694444444444,0,0,0.010850694444444444,0,0)" xlink:href="#ab"/><use transform="matrix(0.010850694444444444,0,0,0.010850694444444444,12.022569444444445,0)" xlink:href="#ao"/><use transform="matrix(0.010850694444444444,0,0,0.010850694444444444,23.220486111111114,0)" xlink:href="#ab"/><use transform="matrix(0.010850694444444444,0,0,0.010850694444444444,35.68793402777778,0)" xlink:href="#af"/><use transform="matrix(0.010850694444444444,0,0,0.010850694444444444,46.26736111111111,0)" xlink:href="#ap"/><use transform="matrix(0.010850694444444444,0,0,0.010850694444444444,59.90668402777778,0)" xlink:href="#aa"/><use transform="matrix(0.010850694444444444,0,0,0.010850694444444444,67.75173611111111,0)" xlink:href="#ab"/><use transform="matrix(0.010850694444444444,0,0,0.010850694444444444,80.21918402777779,0)" xlink:href="#bd"/><use transform="matrix(0.010850694444444444,0,0,0.010850694444444444,94.23828125,0)" xlink:href="#be"/><use transform="matrix(0.010850694444444444,0,0,0.010850694444444444,107.66059027777777,0)" xlink:href="#bf"/><use transform="matrix(0.010850694444444444,0,0,0.010850694444444444,128.33116319444443,0)" xlink:href="#bf"/><use transform="matrix(0.010850694444444444,0,0,0.010850694444444444,149.0017361111111,0)" xlink:href="#ae"/><use transform="matrix(0.010850694444444444,0,0,0.010850694444444444,161.36067708333331,0)" xlink:href="#Z"/><use transform="matrix(0.010850694444444444,0,0,0.010850694444444444,174.99999999999997,0)" xlink:href="#bg"/><use transform="matrix(0.010850694444444444,0,0,0.010850694444444444,188.61762152777774,0)" xlink:href="#bl"/><use transform="matrix(0.010850694444444444,0,0,0.010850694444444444,199.21874999999994,0)" xlink:href="#aq"/><use transform="matrix(0.010850694444444444,0,0,0.010850694444444444,205.79427083333331,0)" xlink:href="#ar"/></g><g id="A"><use transform="matrix(0.010850694444444444,0,0,0.010850694444444444,0,0)" xlink:href="#ae"/><use transform="matrix(0.010850694444444444,0,0,0.010850694444444444,12.358940972222221,0)" xlink:href="#bg"/><use transform="matrix(0.010850694444444444,0,0,0.010850694444444444,25.9765625,0)" xlink:href="#bg"/><use transform="matrix(0.010850694444444444,0,0,0.010850694444444444,39.59418402777778,0)" xlink:href="#bd"/><use transform="matrix(0.010850694444444444,0,0,0.010850694444444444,53.61328125,0)" xlink:href="#be"/><use transform="matrix(0.010850694444444444,0,0,0.010850694444444444,67.03559027777777,0)" xlink:href="#bf"/><use transform="matrix(0.010850694444444444,0,0,0.010850694444444444,87.70616319444443,0)" xlink:href="#bf"/><use transform="matrix(0.010850694444444444,0,0,0.010850694444444444,108.37673611111109,0)" xlink:href="#ae"/><use transform="matrix(0.010850694444444444,0,0,0.010850694444444444,120.73567708333331,0)" xlink:href="#Z"/><use transform="matrix(0.010850694444444444,0,0,0.010850694444444444,134.37499999999997,0)" xlink:href="#bg"/><use transform="matrix(0.010850694444444444,0,0,0.010850694444444444,147.99262152777774,0)" xlink:href="#aq"/><use transform="matrix(0.010850694444444444,0,0,0.010850694444444444,154.5681423611111,0)" xlink:href="#af"/><use transform="matrix(0.010850694444444444,0,0,0.010850694444444444,165.14756944444443,0)" xlink:href="#be"/><use transform="matrix(0.010850694444444444,0,0,0.010850694444444444,178.56987847222223,0)" xlink:href="#bf"/><use transform="matrix(0.010850694444444444,0,0,0.010850694444444444,199.24045138888883,0)" xlink:href="#bf"/><use transform="matrix(0.010850694444444444,0,0,0.010850694444444444,219.91102430555551,0)" xlink:href="#ae"/><use transform="matrix(0.010850694444444444,0,0,0.010850694444444444,232.26996527777774,0)" xlink:href="#Z"/><use transform="matrix(0.010850694444444444,0,0,0.010850694444444444,245.9092881944444,0)" xlink:href="#bg"/><use transform="matrix(0.010850694444444444,0,0,0.010850694444444444,259.5269097222222,0)" xlink:href="#bm"/><use transform="matrix(0.010850694444444444,0,0,0.010850694444444444,265.4405381944444,0)" xlink:href="#bd"/><use transform="matrix(0.010850694444444444,0,0,0.010850694444444444,279.45963541666663,0)" xlink:href="#be"/><use transform="matrix(0.010850694444444444,0,0,0.010850694444444444,292.8819444444444,0)" xlink:href="#bf"/><use transform="matrix(0.010850694444444444,0,0,0.010850694444444444,313.5525173611111,0)" xlink:href="#bf"/><use transform="matrix(0.010850694444444444,0,0,0.010850694444444444,334.22309027777777,0)" xlink:href="#ae"/><use transform="matrix(0.010850694444444444,0,0,0.010850694444444444,346.58203125,0)" xlink:href="#Z"/><use transform="matrix(0.010850694444444444,0,0,0.010850694444444444,360.22135416666663,0)" xlink:href="#bg"/><use transform="matrix(0.010850694444444444,0,0,0.010850694444444444,373.83897569444446,0)" xlink:href="#ar"/></g><g id="C"><use transform="matrix(0.0087890625,0,0,0.0087890625,0,0)" xlink:href="#Y"/><use transform="matrix(0.0087890625,0,0,0.0087890625,4.552734375,0)" xlink:href="#Z"/><use transform="matrix(0.0087890625,0,0,0.0087890625,15.6005859375,0)" xlink:href="#bl"/><use transform="matrix(0.0087890625,0,0,0.0087890625,24.1875,0)" xlink:href="#aa"/><use transform="matrix(0.0087890625,0,0,0.0087890625,30.5419921875,0)" xlink:href="#ae"/><use transform="matrix(0.0087890625,0,0,0.0087890625,40.552734375,0)" xlink:href="#Z"/><use transform="matrix(0.0087890625,0,0,0.0087890625,51.6005859375,0)" xlink:href="#af"/><use transform="matrix(0.0087890625,0,0,0.0087890625,60.169921875,0)" xlink:href="#ab"/></g><g id="D"><use transform="matrix(0.010850694444444444,0,0,0.010850694444444444,0,0)" xlink:href="#aG"/><use transform="matrix(0.010850694444444444,0,0,0.010850694444444444,14.16015625,0)" xlink:href="#ay"/><use transform="matrix(0.010850694444444444,0,0,0.010850694444444444,27.91883680555556,0)" xlink:href="#az"/><use transform="matrix(0.010850694444444444,0,0,0.010850694444444444,42.52387152777778,0)" xlink:href="#ax"/><use transform="matrix(0.010850694444444444,0,0,0.010850694444444444,52.170138888888886,0)" xlink:href="#au"/><use transform="matrix(0.010850694444444444,0,0,0.010850694444444444,61.81640625,0)" xlink:href="#ay"/><use transform="matrix(0.010850694444444444,0,0,0.010850694444444444,75.57508680555556,0)" xlink:href="#aB"/><use transform="matrix(0.010850694444444444,0,0,0.010850694444444444,82.35677083333333,0)" xlink:href="#aB"/><use transform="matrix(0.010850694444444444,0,0,0.010850694444444444,89.13845486111111,0)" xlink:href="#av"/><use transform="matrix(0.010850694444444444,0,0,0.010850694444444444,102.26779513888887,0)" xlink:href="#au"/></g><g id="E"><use transform="matrix(0.010850694444444444,0,0,0.010850694444444444,0,0)" xlink:href="#M"/><use transform="matrix(0.010850694444444444,0,0,0.010850694444444444,14.16015625,0)" xlink:href="#aZ"/><use transform="matrix(0.010850694444444444,0,0,0.010850694444444444,20.94184027777778,0)" xlink:href="#aS"/><use transform="matrix(0.010850694444444444,0,0,0.010850694444444444,27.72352430555556,0)" xlink:href="#R"/><use transform="matrix(0.010850694444444444,0,0,0.010850694444444444,40.852864583333336,0)" xlink:href="#O"/><use transform="matrix(0.010850694444444444,0,0,0.010850694444444444,55.45789930555556,0)" xlink:href="#S"/></g><path fill="#333" d="M848 0L352-1296h-8c27 395 8 875 14 1296H201v-1462h256L920-256h8l467-1206h254V0h-170c6-439-13-873 14-1294h-8L985 0H848" id="bn"/><path fill="#333" d="M526-162c88-293 120-356 326-934h178L559 152c-47 123-102 209-163 262-93 80-237 94-380 61V342c184 39 305-9 367-180L444 6 2-1096h178c103 283 263 645 338 934h8" id="bo"/><g id="F"><use transform="matrix(0.0087890625,0,0,0.0087890625,0,0)" xlink:href="#bn"/><use transform="matrix(0.0087890625,0,0,0.0087890625,16.2509765625,0)" xlink:href="#ae"/><use transform="matrix(0.0087890625,0,0,0.0087890625,26.26171875,0)" xlink:href="#bo"/></g><path fill="#333" d="M1141-549c0 329-147 569-455 569-159 0-273-61-344-161h-12c23 199 7 418 12 633H176v-1588h135l23 150h8c77-108 175-170 344-170 311 0 455 237 455 567zm-172-2c0-242-88-424-307-424-256 0-323 154-320 426 3 280 68 430 324 430 213 0 303-196 303-432" id="bp"/><g id="G"><use transform="matrix(0.0087890625,0,0,0.0087890625,0,0)" xlink:href="#ac"/><use transform="matrix(0.0087890625,0,0,0.0087890625,6.9873046875,0)" xlink:href="#ab"/><use transform="matrix(0.0087890625,0,0,0.0087890625,17.0859375,0)" xlink:href="#bp"/><use transform="matrix(0.0087890625,0,0,0.0087890625,28.1162109375,0)" xlink:href="#ac"/><use transform="matrix(0.0087890625,0,0,0.0087890625,35.103515625,0)" xlink:href="#ab"/><use transform="matrix(0.0087890625,0,0,0.0087890625,45.2021484375,0)" xlink:href="#bl"/><use transform="matrix(0.0087890625,0,0,0.0087890625,53.7890625,0)" xlink:href="#ab"/><use transform="matrix(0.0087890625,0,0,0.0087890625,63.8876953125,0)" xlink:href="#Z"/><use transform="matrix(0.0087890625,0,0,0.0087890625,74.935546875,0)" xlink:href="#aa"/></g><g id="H"><use transform="matrix(0.0087890625,0,0,0.0087890625,0,0)" xlink:href="#ae"/><use transform="matrix(0.0087890625,0,0,0.0087890625,10.0107421875,0)" xlink:href="#Z"/><use transform="matrix(0.0087890625,0,0,0.0087890625,21.05859375,0)" xlink:href="#bo"/></g><path fill="#333" d="M342 0H176v-1556h166V0" id="bq"/><g id="I"><use transform="matrix(0.0087890625,0,0,0.0087890625,0,0)" xlink:href="#bd"/><use transform="matrix(0.0087890625,0,0,0.0087890625,11.35546875,0)" xlink:href="#be"/><use transform="matrix(0.0087890625,0,0,0.0087890625,22.2275390625,0)" xlink:href="#Z"/><use transform="matrix(0.0087890625,0,0,0.0087890625,33.275390625,0)" xlink:href="#aa"/><use transform="matrix(0.0087890625,0,0,0.0087890625,39.6298828125,0)" xlink:href="#ac"/><use transform="matrix(0.0087890625,0,0,0.0087890625,46.6171875,0)" xlink:href="#be"/><use transform="matrix(0.0087890625,0,0,0.0087890625,57.4892578125,0)" xlink:href="#bq"/><use transform="matrix(0.0087890625,0,0,0.0087890625,62.0419921875,0)" xlink:href="#bq"/><use transform="matrix(0.0087890625,0,0,0.0087890625,66.5947265625,0)" xlink:href="#ab"/><use transform="matrix(0.0087890625,0,0,0.0087890625,76.693359375,0)" xlink:href="#ac"/></g><g id="J"><use transform="matrix(0.0087890625,0,0,0.0087890625,0,0)" xlink:href="#be"/><use transform="matrix(0.0087890625,0,0,0.0087890625,10.8720703125,0)" xlink:href="#ad"/></g><path fill="#333" d="M690-1114c271 2 402 123 402 399V0H926v-709c-1-177-76-266-252-266-251 0-332 135-332 402V0H176v-1556h166c-4 200 8 426-8 612h10c61-100 187-171 346-170" id="br"/><g id="K"><use transform="matrix(0.0087890625,0,0,0.0087890625,0,0)" xlink:href="#aa"/><use transform="matrix(0.0087890625,0,0,0.0087890625,6.3544921875,0)" xlink:href="#br"/><use transform="matrix(0.0087890625,0,0,0.0087890625,17.40234375,0)" xlink:href="#ab"/></g><g id="L"><use transform="matrix(0.0087890625,0,0,0.0087890625,0,0)" xlink:href="#bk"/><use transform="matrix(0.0087890625,0,0,0.0087890625,9.861328125,0)" xlink:href="#ae"/><use transform="matrix(0.0087890625,0,0,0.0087890625,19.8720703125,0)" xlink:href="#bf"/><use transform="matrix(0.0087890625,0,0,0.0087890625,36.615234375,0)" xlink:href="#ab"/><use transform="matrix(0.0087890625,0,0,0.0087890625,46.7138671875,0)" xlink:href="#aQ"/></g></defs></g></svg>