<svg xmlns="http://www.w3.org/2000/svg" xmlns:xlink="http://www.w3.org/1999/xlink" xmlns:lucid="lucid" width="1905.64" height="927"><g transform="translate(20 -180)" lucid:page-tab-id="0_0"><path d="M120 948c0-4.42 3.58-8 8-8h151.25l21.6 28.86c2.64 3.54 2.64 9.27 0 12.8l-21.6 28.87H128c-4.42 0-8-3.6-8-8z" stroke="#666" stroke-width="2" fill="#ccc"/><use xlink:href="#a" transform="matrix(0.9999999999029144,0.00001393452679977973,-0.00001393452679977973,0.9999999999029144,120.00098273492173,940.0000000000001) translate(36.74956597222223 28.989583333333336)"/><use xlink:href="#b" transform="matrix(0.9999999999029144,0.00001393452679977973,-0.00001393452679977973,0.9999999999029144,120.00098273492173,940.0000000000001) translate(24.15190972222222 59.252170138888886)"/><path d="M735.64 408c0-4.42 3.58-8 8-8h184c4.42 0 8 3.58 8 8v141c0 4.42-3.58 8-8 8h-184c-4.42 0-8-3.58-8-8z" stroke="#333" stroke-width="2" fill="#f9f8f8"/><path d="M735.64 490.58h200" stroke="#333" stroke-width="2" fill="none"/><use xlink:href="#c" transform="matrix(1,0,0,1,743.640491367461,408) translate(20.797743055555543 23.963324652777775)"/><use xlink:href="#d" transform="matrix(1,0,0,1,743.640491367461,408) translate(28.015624999999993 66.97634548611111)"/><use xlink:href="#e" transform="matrix(1,0,0,1,747.640491367461,498.57769097222223) translate(0 38.120876736111114)"/><use xlink:href="#f" transform="matrix(1,0,0,1,747.640491367461,498.57769097222223) translate(18.47873263888889 38.120876736111114)"/><path d="M706.5 668c0-4.42 3.58-8 8-8h242.28c4.42 0 8 3.58 8 8v139c0 4.42-3.58 8-8 8H714.5c-4.42 0-8-3.58-8-8z" stroke="#333" stroke-width="2" fill="#f9f8f8"/><path d="M706.5 706.26h258.28M706.5 760.53h258.28" stroke="#333" stroke-width="2" fill="none"/><use xlink:href="#g" transform="matrix(1,0,0,1,714.4975343857991,668) translate(30.26736111111113 24.12087673611111)"/><use xlink:href="#e" transform="matrix(1,0,0,1,718.4975343857991,768.5251736111111) translate(0 32.120876736111114)"/><use xlink:href="#f" transform="matrix(1,0,0,1,718.4975343857991,768.5251736111111) translate(18.47873263888889 32.120876736111114)"/><path d="M835.64 658v-8.4m0-8.38v-16.78m0-8.4v-16.78m0-8.4v-8.38" stroke="#333" stroke-width="2" fill="none"/><path d="M836.64 659h-2v-1.03h2z" fill="#333"/><path d="M835.64 559.96l12.73 21.52H822.9z" stroke="#333" stroke-width="2" fill="#fff"/><path d="M835.64 899v-58.52M835.64 898.97V900" stroke="#333" stroke-width="2" fill="none"/><path d="M835.64 817.96l12.73 21.52H822.9z" stroke="#333" stroke-width="2" fill="#fff"/><path d="M441 900h758M441.03 900H440M1198.97 900h1.03" stroke="#333" stroke-width="2" fill="none"/><path d="M1100 948c0-4.42 3.58-8 8-8h184c4.42 0 8 3.58 8 8v131c0 4.42-3.58 8-8 8h-184c-4.42 0-8-3.58-8-8z" stroke="#333" stroke-width="2" fill="#f9f8f8"/><path d="M1100 986.26h200m-200 46.27h200" stroke="#333" stroke-width="2" fill="none"/><use xlink:href="#h" transform="matrix(1,0,0,1,1107.9971933980805,948) translate(20.245225694444443 24.12087673611111)"/><use xlink:href="#e" transform="matrix(1,0,0,1,1111.9971933980805,1040.525173611111) translate(0 32.120876736111114)"/><use xlink:href="#f" transform="matrix(1,0,0,1,1111.9971933980805,1040.525173611111) translate(18.47873263888889 32.120876736111114)"/><path d="M340 948c0-4.42 3.58-8 8-8h184c4.42 0 8 3.58 8 8v131c0 4.42-3.58 8-8 8H348c-4.42 0-8-3.58-8-8z" stroke="#333" stroke-width="2" fill="#f9f8f8"/><path d="M340 986.26h200m-200 46.27h200" stroke="#333" stroke-width="2" fill="none"/><use xlink:href="#i" transform="matrix(1,0,0,1,348.00000000000006,948) translate(3.9800347222222143 24.12087673611111)"/><use xlink:href="#e" transform="matrix(1,0,0,1,352.00000000000006,1040.525173611111) translate(0 32.120876736111114)"/><use xlink:href="#f" transform="matrix(1,0,0,1,352.00000000000006,1040.525173611111) translate(18.47873263888889 32.120876736111114)"/><path d="M845.22 948c0-4.42 3.58-8 8-8h184c4.42 0 8 3.58 8 8v131c0 4.42-3.58 8-8 8h-184c-4.42 0-8-3.58-8-8z" stroke="#333" stroke-width="2" fill="#f9f8f8"/><path d="M845.22 986.26h200m-200 46.27h200" stroke="#333" stroke-width="2" fill="none"/><use xlink:href="#j" transform="matrix(1,0,0,1,853.215280017687,948) translate(6.546223958333343 24.12087673611111)"/><use xlink:href="#e" transform="matrix(1,0,0,1,857.215280017687,1040.525173611111) translate(0 32.120876736111114)"/><use xlink:href="#f" transform="matrix(1,0,0,1,857.215280017687,1040.525173611111) translate(18.47873263888889 32.120876736111114)"/><path d="M592.6 948c0-4.42 3.6-8 8-8h184c4.43 0 8 3.58 8 8v131c0 4.42-3.57 8-8 8h-184c-4.4 0-8-3.58-8-8z" stroke="#333" stroke-width="2" fill="#f9f8f8"/><path d="M592.6 986.26h200m-200 46.27h200" stroke="#333" stroke-width="2" fill="none"/><use xlink:href="#k" transform="matrix(1,0,0,1,600.6076400088433,948) translate(13.707682291666671 24.12087673611111)"/><use xlink:href="#e" transform="matrix(1,0,0,1,604.6076400088433,1040.525173611111) translate(0 32.120876736111114)"/><use xlink:href="#f" transform="matrix(1,0,0,1,604.6076400088433,1040.525173611111) translate(18.47873263888889 32.120876736111114)"/><path d="M440 901v37M440 901.03V900" stroke="#333" stroke-width="2" fill="none"/><path d="M441 939h-2v-1.03h2z" fill="#333"/><path d="M1200 901v37M1200 901.03V900" stroke="#333" stroke-width="2" fill="none"/><path d="M1201 937.97V939h-2v-1.03z" fill="#333"/><path d="M692.6 938v-37" stroke="#333" stroke-width="2" fill="none"/><path d="M693.6 939h-2v-1.03h2z" fill="#333"/><path d="M692.6 901.03V900M945.22 938v-37" stroke="#333" stroke-width="2" fill="none"/><path d="M946.22 937.97V939h-2v-1.03z" fill="#333"/><path d="M945.22 901.03V900M996.53 706.45l40.34-.05" stroke="#333" stroke-width="2" fill="none"/><path d="M967.2 706.48l14.83-14.86 15.17 14.83-15.14 14.87z" stroke="#333" stroke-width="2" fill="#fff"/><path d="M1052.14 706.4l-14.26 4.64v-9.27z" stroke="#333" stroke-width="2" fill="#333"/><path d="M1056.38 668c0-4.42 3.58-8 8-8h164c4.4 0 8 3.58 8 8v139c0 4.42-3.6 8-8 8h-164c-4.42 0-8-3.58-8-8z" stroke="#333" stroke-width="2" fill="#f9f8f8"/><path d="M1056.38 706.26h180m-180 54.27h180" stroke="#333" stroke-width="2" fill="none"/><use xlink:href="#l" transform="matrix(1,0,0,1,1064.375972835511,668) translate(36.220920138888886 24.12087673611111)"/><use xlink:href="#m" transform="matrix(1,0,0,1,1068.375972835511,714.2625868055555) translate(0 32.120876736111114)"/><use xlink:href="#n" transform="matrix(1,0,0,1,1068.375972835511,768.5251736111111) translate(0 32.120876736111114)"/><path d="M1451.28 702c0 4.42-3.58 8-8 8h-158.93l-13.92-18.6c-2.64-3.53-2.64-9.27 0-12.8l13.92-18.6h158.93c4.42 0 8 3.58 8 8z" stroke="#666" stroke-width="2" fill="#ccc"/><use xlink:href="#o" transform="matrix(1,-2.4492935982947064e-16,2.4492935982947064e-16,1,1274.9952346433513,659.9999999999999) translate(41.00108506944445 33.620876736111114)"/><path d="M261.16 308c0-4.42 3.6-8 8-8h313.27c4.42 0 8 3.58 8 8v139c0 4.42-3.58 8-8 8H269.16c-4.4 0-8-3.58-8-8z" stroke="#333" stroke-width="2" fill="#f9f8f8"/><path d="M261.16 346.26h329.27m-329.27 54.27h329.27" stroke="#333" stroke-width="2" fill="none"/><use xlink:href="#p" transform="matrix(1,0,0,1,269.16400297721924,308) translate(42.91579861111113 24.12087673611111)"/><use xlink:href="#q" transform="matrix(1,0,0,1,273.16400297721924,408.5251736111111) translate(0 32.120876736111114)"/><use xlink:href="#r" transform="matrix(1,0,0,1,273.16400297721924,408.5251736111111) translate(18.47873263888889 32.120876736111114)"/><path d="M0 308c0-4.42 3.58-8 8-8h192.37l17.66 23.6c2.64 3.53 2.64 9.27 0 12.8L200.37 360H8c-4.42 0-8-3.58-8-8z" stroke="#666" stroke-width="2" fill="#ccc"/><use xlink:href="#s" transform="matrix(1,0,0,1,0,300) translate(15.353298611111114 38.620876736111114)"/><path d="M240 520h347.6l24 24v96H240z" stroke="#333" stroke-width="2" fill="#f9f8f8"/><path d="M587.6 520.95V544h23.04" stroke="#333" stroke-width="2" fill="#f9f8f8"/><use xlink:href="#t" transform="matrix(1,0,0,1,244,524) translate(0 26.00173611111111)"/><use xlink:href="#u" transform="matrix(1,0,0,1,244,524) translate(91.33680555555557 26.00173611111111)"/><use xlink:href="#v" transform="matrix(1,0,0,1,244,524) translate(0 62.474826388888886)"/><use xlink:href="#w" transform="matrix(1,0,0,1,244,524) translate(45.13020833333334 62.474826388888886)"/><use xlink:href="#x" transform="matrix(1,0,0,1,244,524) translate(59.91319444444446 62.474826388888886)"/><use xlink:href="#y" transform="matrix(1,0,0,1,244,524) translate(98.8888888888889 62.474826388888886)"/><use xlink:href="#z" transform="matrix(1,0,0,1,244,524) translate(0 98.94791666666667)"/><path d="M425.8 457v61" stroke="#333" stroke-width="2" fill="none"/><path d="M426.8 457.03h-2V456h2zM426.8 519h-2v-1.03h2z" fill="#333"/><path d="M613.32 561.82l107.8-100.66" stroke="#333" stroke-width="2" fill="none"/><path d="M614.02 562.53l-1.43 1.34v-2.74l.06-.06z" fill="#333"/><path d="M732.28 450.74L725 463.86l-6.3-6.77z" stroke="#333" stroke-width="2" fill="#333"/><path d="M303.48 208c0-4.42 3.58-8 8-8H540.1c4.43 0 8 3.58 8 8v44c0 4.42-3.57 8-8 8H311.5c-4.42 0-8-3.58-8-8z" stroke="#333" stroke-width="2" fill="#f9f8f8"/><use xlink:href="#A" transform="matrix(1,0,0,1,308.48013261020674,205) translate(33.0107421875 33.6142578125)"/><use xlink:href="#B" transform="matrix(1,0,0,1,308.48013261020674,205) translate(97.77734375 33.6142578125)"/><path d="M301.16 688c0-4.42 3.6-8 8-8H537.8c4.4 0 8 3.58 8 8v44c0 4.42-3.6 8-8 8H309.16c-4.4 0-8-3.58-8-8z" stroke="#333" stroke-width="2" fill="#f9f8f8"/><use xlink:href="#A" transform="matrix(1,0,0,1,306.1640029772192,685) translate(33.0107421875 33.6142578125)"/><use xlink:href="#B" transform="matrix(1,0,0,1,306.1640029772192,685) translate(97.77734375 33.6142578125)"/><path d="M1054.73 278.26l-6.82 7.96m-6.8 7.97l-13.62 15.92m-6.8 7.96L1007.04 334m-6.82 7.97L986.6 357.9m-6.8 7.97l-13.62 15.92m-6.8 7.96l-6.83 7.96" stroke="#333" stroke-width="2" fill="none"/><path d="M1055.38 278.85l-1.43-1.22 1.43-1.67z" fill="#333"/><path d="M937.92 414.84l4.3-24.63 19.36 16.55z" stroke="#333" stroke-width="2" fill="#fff"/><path d="M1054.38 497.55l-10.37.54m-10.35.53l-20.73 1.08m-10.37.55l-20.73 1.07m-10.36.54l-10.37.54" stroke="#333" stroke-width="2" fill="none"/><path d="M1055.38 498.5l-.98.05-.1-2 1.08-.05z" fill="#333"/><path d="M938.6 503.57l20.83-13.83 1.32 25.42z" stroke="#333" stroke-width="2" fill="#fff"/><path d="M1056.38 208c0-4.42 3.58-8 8-8h242.28c4.42 0 8 3.58 8 8v139c0 4.42-3.58 8-8 8h-242.28c-4.42 0-8-3.58-8-8z" stroke="#333" stroke-width="2" fill="#f9f8f8"/><path d="M1056.38 246.26h258.28m-258.28 54.27h258.28" stroke="#333" stroke-width="2" fill="none"/><g><use xlink:href="#C" transform="matrix(1,0,0,1,1064.3759728355108,208) translate(41.55750868055556 24.12087673611111)"/></g><g><use xlink:href="#q" transform="matrix(1,0,0,1,1068.3759728355108,308.5251736111111) translate(0 32.120876736111114)"/><use xlink:href="#D" transform="matrix(1,0,0,1,1068.3759728355108,308.5251736111111) translate(18.47873263888889 32.120876736111114)"/></g><path d="M1056.38 428c0-4.42 3.58-8 8-8h242.28c4.42 0 8 3.58 8 8v139c0 4.42-3.58 8-8 8h-242.28c-4.42 0-8-3.58-8-8z" stroke="#333" stroke-width="2" fill="#f9f8f8"/><path d="M1056.38 466.26h258.28m-258.28 54.27h258.28" stroke="#333" stroke-width="2" fill="none"/><g><use xlink:href="#E" transform="matrix(1,0,0,1,1064.375972835511,428) translate(40.31510416666667 24.12087673611111)"/></g><g><use xlink:href="#q" transform="matrix(1,0,0,1,1068.375972835511,528.5251736111111) translate(0 32.120876736111114)"/><use xlink:href="#D" transform="matrix(1,0,0,1,1068.375972835511,528.5251736111111) translate(18.47873263888889 32.120876736111114)"/></g><path d="M1345.4 446.67l35.1.22" stroke="#333" stroke-width="2" fill="none"/><path d="M1316.08 446.5l14.94-14.76 15.06 14.94-15.25 14.75z" stroke="#333" stroke-width="2" fill="#fff"/><path d="M1395.76 446.98l-14.3 4.55.07-9.27z" stroke="#333" stroke-width="2" fill="#333"/><g><path d="M1865.64 464c0 4.42-3.58 8-8 8H1698.7l-13.9-18.6c-2.65-3.53-2.65-9.27 0-12.8l13.9-18.6h158.94c4.42 0 8 3.58 8 8z" stroke="#666" stroke-width="2" fill="#ccc"/></g><g><use xlink:href="#o" transform="matrix(1,-2.4492935982947064e-16,2.4492935982947064e-16,1,1689.3547432758908,422.00000000000006) translate(41.00108506944445 33.620876736111114)"/></g><path d="M1400 428c0-4.42 3.58-8 8-8h204c4.42 0 8 3.58 8 8v38c0 4.42-3.58 8-8 8h-204c-4.42 0-8-3.58-8-8z" stroke="#333" stroke-width="2" fill="#f9f8f8"/><g><use xlink:href="#F" transform="matrix(1,0,0,1,1408,428) translate(15.9377170138889 31.75217013888889)"/></g><defs><path fill="#666" d="M1133-1128c-95-42-202-97-328-97-258 0-367 218-367 498 0 326 122 489 367 489 103 0 227-26 373-77v260C1058-5 924 20 776 20c-443 0-662-290-657-749 5-455 236-754 686-754 142 0 285 34 428 103" id="G"/><path fill="#666" d="M633-893c-183 0-230 133-230 332s48 336 232 336c183 0 229-137 229-336s-47-332-231-332zm4-246c347 5 535 225 539 578S978 25 631 20C283 15 96-208 92-561c-4-355 196-583 545-578" id="H"/><path fill="#666" d="M795-1139c261-1 398 148 397 410V0H887v-653c-1-148-42-242-180-242-202 0-242 139-242 369V0H160v-1118h233l41 143h17c62-102 185-163 344-164" id="I"/><path fill="#666" d="M954-63C853 0 774 20 614 20 266 20 92-171 92-553c0-369 188-586 549-586 129 0 245 25 348 76l-90 236c-84-31-156-66-258-66-159 0-238 113-238 338 0 219 79 328 238 328 137 0 223-38 313-97v261" id="J"/><path fill="#666" d="M451-930c71-134 228-244 436-200l-23 286c-220-45-399 61-399 275V0H160v-1118h231l45 188h15" id="K"/><path fill="#666" d="M836-686c0-141-77-236-213-236-140 0-206 98-215 236h428zm223 627C946-4 838 19 666 20 308 22 92-191 92-551c0-356 187-588 529-588 314 0 504 195 501 508v148H401c5 169 104 277 279 276 158-2 261-33 379-88v236" id="L"/><path fill="#666" d="M498-350c-2 85 52 126 133 127 53 0 117-12 192-35v227C747 3 654 20 543 20c-247 0-350-124-350-370v-539H47v-129l168-102 88-236h195v238h313v229H498v539" id="M"/><g id="a"><use transform="matrix(0.010850694444444444,0,0,0.010850694444444444,0,0)" xlink:href="#G"/><use transform="matrix(0.010850694444444444,0,0,0.010850694444444444,14.16015625,0)" xlink:href="#H"/><use transform="matrix(0.010850694444444444,0,0,0.010850694444444444,27.91883680555556,0)" xlink:href="#I"/><use transform="matrix(0.010850694444444444,0,0,0.010850694444444444,42.52387152777778,0)" xlink:href="#J"/><use transform="matrix(0.010850694444444444,0,0,0.010850694444444444,53.94965277777778,0)" xlink:href="#K"/><use transform="matrix(0.010850694444444444,0,0,0.010850694444444444,63.595920138888886,0)" xlink:href="#L"/><use transform="matrix(0.010850694444444444,0,0,0.010850694444444444,76.72526041666666,0)" xlink:href="#M"/><use transform="matrix(0.010850694444444444,0,0,0.010850694444444444,86.37152777777777,0)" xlink:href="#L"/></g><path fill="#666" d="M1384-895c-176 0-222 133-223 334V0H856v-653c-1-144-37-242-168-242-78 0-135 29-170 86s-53 152-53 283V0H160v-1118h233l41 143h17c56-98 174-164 325-164 167 0 281 55 340 164h27c55-99 179-165 330-164 265 2 385 133 385 410V0h-306v-653c-1-144-37-242-168-242" id="N"/><path fill="#666" d="M618-1141c286 0 465 117 465 396V0H870l-59-152h-8C704-33 632 18 432 20 216 22 86-113 86-334c0-119 44-202 124-262 109-82 356-99 570-100 11-142-39-219-174-219-89 0-194 27-315 81l-101-206c129-67 271-101 428-101zm-71 938c137 0 235-88 233-223v-92c-190 3-382 4-381 186 0 86 49 129 148 129" id="O"/><path fill="#666" d="M92-557c0-327 132-582 430-582 141 0 248 55 322 164h10c-38-188-18-371-23-581h306V0H903l-59-145h-13C762-35 656 20 514 20 222 20 92-237 92-557zm309 4c0 190 54 330 220 330 191 0 231-123 231-332 0-214-44-336-236-336-161 0-215 151-215 338" id="P"/><path fill="#666" d="M836-831c-99-39-182-77-306-82-139-6-173 83-92 144 51 39 327 139 383 188 71 62 119 126 119 249C940-74 747 21 463 20 305 20 202 0 94-45v-252c93 45 253 94 379 94 111 0 166-32 166-96 0-68-41-76-98-109-79-46-276-119-333-167-74-61-116-125-116-252 0-368 555-367 836-224" id="Q"/><g id="b"><use transform="matrix(0.010850694444444444,0,0,0.010850694444444444,0,0)" xlink:href="#G"/><use transform="matrix(0.010850694444444444,0,0,0.010850694444444444,14.16015625,0)" xlink:href="#H"/><use transform="matrix(0.010850694444444444,0,0,0.010850694444444444,27.91883680555556,0)" xlink:href="#N"/><use transform="matrix(0.010850694444444444,0,0,0.010850694444444444,49.73958333333333,0)" xlink:href="#N"/><use transform="matrix(0.010850694444444444,0,0,0.010850694444444444,71.56032986111111,0)" xlink:href="#O"/><use transform="matrix(0.010850694444444444,0,0,0.010850694444444444,84.98263888888889,0)" xlink:href="#I"/><use transform="matrix(0.010850694444444444,0,0,0.010850694444444444,99.58767361111111,0)" xlink:href="#P"/><use transform="matrix(0.010850694444444444,0,0,0.010850694444444444,113.6501736111111,0)" xlink:href="#Q"/></g><path fill="#333" d="M1065-242L104-664v-98l961-479v149L283-721l782 328v151" id="R"/><path fill="#333" d="M342 0H176v-1096h166V0zm-82-1282c-61 0-98-43-98-111 0-69 36-110 98-110 59 0 98 43 98 110s-39 111-98 111" id="S"/><path fill="#333" d="M694-1116c270 0 399 125 398 401V0H926v-709c-1-177-76-266-252-266-250 0-332 133-332 400V0H176v-1096h135l27 150h8c62-101 190-170 348-170" id="T"/><path fill="#333" d="M354-322c-2 123 60 204 176 205 51 1 114-10 150-20v127C647 7 557 20 506 20 294 20 188-92 188-315v-652H31v-80l157-69 70-234h96v254h318v129H354v645" id="U"/><path fill="#333" d="M995-51C878-2 799 19 639 20c-329 2-524-221-524-559 0-326 172-577 481-577 278 0 451 210 446 493v105H287c4 242 121 392 358 393 118 0 235-25 350-74v148zM864-653c2-195-85-324-270-324-190 0-288 139-303 324h573" id="V"/><path fill="#333" d="M340-893c80-153 237-262 467-211l-23 154c-45-10-85-15-120-15-184-3-322 182-322 377V0H176v-1096h137l19 203h8" id="W"/><path fill="#333" d="M575-1430c-169 0-190 146-184 334h279v129H391V0H225v-967H29v-75l196-60c-15-299 97-465 353-465 58 0 126 12 204 35l-43 133c-64-21-119-31-164-31" id="X"/><path fill="#333" d="M588-1114c260 0 384 106 385 366V0H850l-33-156h-8C708-34 639 17 442 20 231 23 94-94 94-303c0-221 177-337 531-348l186-6c11-203-40-320-233-320-91 0-195 28-310 84l-51-127c97-53 229-94 371-94zM268-301c-1 123 81 184 207 184 203 0 334-120 332-323v-99c-257 14-539-7-539 238" id="Y"/><path fill="#333" d="M287-543c-1 247 91 418 323 418 91 0 185-20 281-59v147C818 1 725 20 614 20c-329 0-499-221-499-561 0-349 172-575 510-575 96 0 221 26 282 57l-51 141c-61-25-157-50-235-51-223 0-334 142-334 426" id="Z"/><path fill="#333" d="M104-393l783-326-783-373v-149l961 479v98L104-242v-151" id="aa"/><g id="c"><use transform="matrix(0.010850694444444444,0,0,0.010850694444444444,0,0)" xlink:href="#R"/><use transform="matrix(0.010850694444444444,0,0,0.010850694444444444,12.706163194444445,0)" xlink:href="#R"/><use transform="matrix(0.010850694444444444,0,0,0.010850694444444444,25.41232638888889,0)" xlink:href="#S"/><use transform="matrix(0.010850694444444444,0,0,0.010850694444444444,31.03298611111111,0)" xlink:href="#T"/><use transform="matrix(0.010850694444444444,0,0,0.010850694444444444,44.67230902777778,0)" xlink:href="#U"/><use transform="matrix(0.010850694444444444,0,0,0.010850694444444444,52.51736111111112,0)" xlink:href="#V"/><use transform="matrix(0.010850694444444444,0,0,0.010850694444444444,64.98480902777779,0)" xlink:href="#W"/><use transform="matrix(0.010850694444444444,0,0,0.010850694444444444,74.05598958333334,0)" xlink:href="#X"/><use transform="matrix(0.010850694444444444,0,0,0.010850694444444444,81.58637152777779,0)" xlink:href="#Y"/><use transform="matrix(0.010850694444444444,0,0,0.010850694444444444,93.9453125,0)" xlink:href="#Z"/><use transform="matrix(0.010850694444444444,0,0,0.010850694444444444,104.52473958333333,0)" xlink:href="#V"/><use transform="matrix(0.010850694444444444,0,0,0.010850694444444444,116.9921875,0)" xlink:href="#aa"/><use transform="matrix(0.010850694444444444,0,0,0.010850694444444444,129.69835069444446,0)" xlink:href="#aa"/></g><path fill="#333" d="M1217-1130c-117-62-172-97-312-97-215 0-336 143-407 319-43 105-64 218-64 339 1 215 78 328 287 329 97 0 210-26 338-77v260C926-6 793 20 659 20c-345 1-536-220-536-573 0-355 166-672 382-817 223-150 607-147 830-10" id="ab"/><path fill="#333" d="M805-696c0-131-48-197-143-197-50 0-94 21-134 61-78 78-135 263-135 422 0 123 50 185 150 185 127 0 193-116 229-233 22-73 33-152 33-238zm-121-443c263 0 424 175 424 443 0 284-101 512-274 626-89 59-194 90-316 90C262 20 90-154 90-410c0-288 103-522 278-638 90-60 195-91 316-91" id="ac"/><path fill="#333" d="M1470-1139c255-9 308 252 256 502L1593 0h-301l138-653c29-101 29-242-82-242-61 0-116 37-166 112-119 179-154 531-215 783H666l137-653c29-101 29-242-82-242-61 0-117 38-167 114C435-599 401-252 338 0H37l237-1118h230l-21 207h6c97-152 216-228 355-228 146 0 233 76 262 228h6c76-122 186-222 358-228" id="ad"/><path fill="#333" d="M608-1139c139 1 230 65 277 164h8l57-143h232L944 0H715l14-145h-4C636-35 529 20 406 20 192 20 90-154 90-385c0-266 113-534 261-655 79-65 164-99 257-99zM395-399c-1 104 35 176 129 176 46 0 90-22 133-67 87-92 142-257 142-441 0-88-54-165-140-164-45 0-87 25-129 72-76 86-135 265-135 424" id="ae"/><path fill="#333" d="M844-1139c190 0 291 125 289 322 0 49-8 109-23 180L977 0H676l137-653c30-107 28-242-92-242-61 0-117 38-167 114C435-599 401-252 338 0H37l237-1118h230l-21 207h6c97-152 216-228 355-228" id="af"/><path fill="#333" d="M725-145C643-47 561 20 406 20 192 20 90-155 90-387c0-265 113-532 260-653 79-65 164-99 258-99 139 0 192 63 254 164h8c11-222 67-386 103-581h301L944 0H715l14-145h-4zm36-329c47-141 85-417-102-421-45 0-87 25-129 72-76 86-135 265-135 424 0 117 46 176 137 176 44 0 86-23 128-69s76-106 101-182" id="ag"/><g id="d"><use transform="matrix(0.013020833333333334,0,0,0.013020833333333334,0,0)" xlink:href="#ab"/><use transform="matrix(0.013020833333333334,0,0,0.013020833333333334,16.315104166666668,0)" xlink:href="#ac"/><use transform="matrix(0.013020833333333334,0,0,0.013020833333333334,31.9140625,0)" xlink:href="#ad"/><use transform="matrix(0.013020833333333334,0,0,0.013020833333333334,56.04166666666667,0)" xlink:href="#ad"/><use transform="matrix(0.013020833333333334,0,0,0.013020833333333334,80.16927083333334,0)" xlink:href="#ae"/><use transform="matrix(0.013020833333333334,0,0,0.013020833333333334,96.01562500000001,0)" xlink:href="#af"/><use transform="matrix(0.013020833333333334,0,0,0.013020833333333334,112.12239583333334,0)" xlink:href="#ag"/></g><path fill="#333" d="M653-791h412v138H653v426H514v-426H104v-138h410v-428h139v428" id="ah"/><use transform="matrix(0.010850694444444444,0,0,0.010850694444444444,0,0)" xlink:href="#ah" id="e"/><path fill="#333" d="M440-561L59-1096h189l289 420 288-420h187L631-561 1032 0H844L537-444 227 0H39" id="ai"/><path fill="#333" d="M563 20c-271 0-399-123-399-399v-717h168v711c1 177 76 266 252 266 250 0 331-135 331-401v-576h166V0H944l-24-147h-9C848-44 724 20 563 20" id="aj"/><path fill="#333" d="M383 324C201 116 82-188 82-561c0-378 120-688 301-901h162c-172 227-289 529-289 899 0 361 122 665 287 887H383" id="ak"/><path fill="#333" d="M223-1462c182 213 301 524 301 901 0 373-119 679-301 885H63c166-222 287-526 287-887 0-369-117-672-289-899h162" id="al"/><g id="f"><use transform="matrix(0.010850694444444444,0,0,0.010850694444444444,0,0)" xlink:href="#V"/><use transform="matrix(0.010850694444444444,0,0,0.010850694444444444,12.022569444444445,0)" xlink:href="#ai"/><use transform="matrix(0.010850694444444444,0,0,0.010850694444444444,23.220486111111114,0)" xlink:href="#V"/><use transform="matrix(0.010850694444444444,0,0,0.010850694444444444,35.68793402777778,0)" xlink:href="#Z"/><use transform="matrix(0.010850694444444444,0,0,0.010850694444444444,46.26736111111111,0)" xlink:href="#aj"/><use transform="matrix(0.010850694444444444,0,0,0.010850694444444444,59.90668402777778,0)" xlink:href="#U"/><use transform="matrix(0.010850694444444444,0,0,0.010850694444444444,67.75173611111111,0)" xlink:href="#V"/><use transform="matrix(0.010850694444444444,0,0,0.010850694444444444,80.21918402777779,0)" xlink:href="#ak"/><use transform="matrix(0.010850694444444444,0,0,0.010850694444444444,86.79470486111111,0)" xlink:href="#al"/></g><path fill="#333" d="M643-1462c464-5 754 260 754 717 0 491-297 749-799 745H184v-1462h459zm432 725c0-314-139-471-416-471H494v952h133c299 0 448-160 448-481" id="am"/><path fill="#333" d="M479-1407c-1 99-61 150-166 150-111 0-166-50-166-150 0-99 55-149 166-149s166 50 166 149zM465 0H160v-1118h305V0" id="an"/><path fill="#333" d="M451-930c71-134 228-244 436-200l-23 286c-220-45-399 61-399 275V0H160v-1118h231l45 188h15" id="ao"/><path fill="#333" d="M836-686c0-141-77-236-213-236-140 0-206 98-215 236h428zm223 627C946-4 838 19 666 20 308 22 92-191 92-551c0-356 187-588 529-588 314 0 504 195 501 508v148H401c5 169 104 277 279 276 158-2 261-33 379-88v236" id="ap"/><path fill="#333" d="M954-63C853 0 774 20 614 20 266 20 92-171 92-553c0-369 188-586 549-586 129 0 245 25 348 76l-90 236c-84-31-156-66-258-66-159 0-238 113-238 338 0 219 79 328 238 328 137 0 223-38 313-97v261" id="aq"/><path fill="#333" d="M498-350c-2 85 52 126 133 127 53 0 117-12 192-35v227C747 3 654 20 543 20c-247 0-350-124-350-370v-539H47v-129l168-102 88-236h195v238h313v229H498v539" id="ar"/><path fill="#333" d="M633-893c-183 0-230 133-230 332s48 336 232 336c183 0 229-137 229-336s-47-332-231-332zm4-246c347 5 535 225 539 578S978 25 631 20C283 15 96-208 92-561c-4-355 196-583 545-578" id="as"/><path fill="#333" d="M795-1139c261-1 398 148 397 410V0H887v-653c-1-148-42-242-180-242-202 0-242 139-242 369V0H160v-1118h233l41 143h17c62-102 185-163 344-164" id="at"/><path fill="#333" d="M618-1141c286 0 465 117 465 396V0H870l-59-152h-8C704-33 632 18 432 20 216 22 86-113 86-334c0-119 44-202 124-262 109-82 356-99 570-100 11-142-39-219-174-219-89 0-194 27-315 81l-101-206c129-67 271-101 428-101zm-71 938c137 0 235-88 233-223v-92c-190 3-382 4-381 186 0 86 49 129 148 129" id="au"/><path fill="#333" d="M465 0H160v-1556h305V0" id="av"/><path fill="#333" d="M1458 0c3-430-10-709 15-1145h-9L1087 0H803L451-1147h-9c31 483 15 690 19 1147H184v-1462h422L952-344h6l367-1118h422V0h-289" id="aw"/><path fill="#333" d="M426 0L0-1118h319l216 637c24 81 39 157 45 229h6c3-64 15-141 45-229l215-637h319L739 0H426" id="ax"/><g id="g"><use transform="matrix(0.010850694444444444,0,0,0.010850694444444444,0,0)" xlink:href="#am"/><use transform="matrix(0.010850694444444444,0,0,0.010850694444444444,16.44965277777778,0)" xlink:href="#an"/><use transform="matrix(0.010850694444444444,0,0,0.010850694444444444,23.231336805555554,0)" xlink:href="#ao"/><use transform="matrix(0.010850694444444444,0,0,0.010850694444444444,32.87760416666667,0)" xlink:href="#ap"/><use transform="matrix(0.010850694444444444,0,0,0.010850694444444444,46.00694444444445,0)" xlink:href="#aq"/><use transform="matrix(0.010850694444444444,0,0,0.010850694444444444,57.43272569444445,0)" xlink:href="#ar"/><use transform="matrix(0.010850694444444444,0,0,0.010850694444444444,67.07899305555556,0)" xlink:href="#an"/><use transform="matrix(0.010850694444444444,0,0,0.010850694444444444,73.86067708333333,0)" xlink:href="#as"/><use transform="matrix(0.010850694444444444,0,0,0.010850694444444444,87.61935763888889,0)" xlink:href="#at"/><use transform="matrix(0.010850694444444444,0,0,0.010850694444444444,102.22439236111111,0)" xlink:href="#au"/><use transform="matrix(0.010850694444444444,0,0,0.010850694444444444,115.64670138888889,0)" xlink:href="#av"/><use transform="matrix(0.010850694444444444,0,0,0.010850694444444444,122.42838541666666,0)" xlink:href="#aw"/><use transform="matrix(0.010850694444444444,0,0,0.010850694444444444,143.38107638888889,0)" xlink:href="#as"/><use transform="matrix(0.010850694444444444,0,0,0.010850694444444444,156.6948784722222,0)" xlink:href="#ax"/><use transform="matrix(0.010850694444444444,0,0,0.010850694444444444,169.33593749999997,0)" xlink:href="#ap"/></g><path fill="#333" d="M776-240c213 0 289-110 289-329v-893h309v946c-8 356-241 531-606 536-358 5-595-195-594-540v-942h309v895c2 220 76 327 293 327" id="ay"/><path fill="#333" d="M782-1139c293 0 422 256 422 578 0 230-70 418-202 512-65 46-141 69-228 69-131 0-234-48-309-143h-16c32 222 9 383 16 615H160v-1610h248l43 145h14c71-111 177-166 317-166zm111 574c0-190-40-330-209-330-184 0-221 128-219 332 2 209 40 336 223 336 137 0 205-113 205-338" id="az"/><path fill="#333" d="M1133-1128c-95-42-202-97-328-97-258 0-367 218-367 498 0 326 122 489 367 489 103 0 227-26 373-77v260C1058-5 924 20 776 20c-443 0-662-290-657-749 5-455 236-754 686-754 142 0 285 34 428 103" id="aA"/><path fill="#333" d="M1384-895c-176 0-222 133-223 334V0H856v-653c-1-144-37-242-168-242-78 0-135 29-170 86s-53 152-53 283V0H160v-1118h233l41 143h17c56-98 174-164 325-164 167 0 281 55 340 164h27c55-99 179-165 330-164 265 2 385 133 385 410V0h-306v-653c-1-144-37-242-168-242" id="aB"/><path fill="#333" d="M92-557c0-327 132-582 430-582 141 0 248 55 322 164h10c-38-188-18-371-23-581h306V0H903l-59-145h-13C762-35 656 20 514 20 222 20 92-237 92-557zm309 4c0 190 54 330 220 330 191 0 231-123 231-332 0-214-44-336-236-336-161 0-215 151-215 338" id="aC"/><g id="h"><use transform="matrix(0.010850694444444444,0,0,0.010850694444444444,0,0)" xlink:href="#ay"/><use transform="matrix(0.010850694444444444,0,0,0.010850694444444444,16.796875,0)" xlink:href="#az"/><use transform="matrix(0.010850694444444444,0,0,0.010850694444444444,30.859375,0)" xlink:href="#aA"/><use transform="matrix(0.010850694444444444,0,0,0.010850694444444444,45.01953125,0)" xlink:href="#as"/><use transform="matrix(0.010850694444444444,0,0,0.010850694444444444,58.77821180555555,0)" xlink:href="#aB"/><use transform="matrix(0.010850694444444444,0,0,0.010850694444444444,80.59895833333334,0)" xlink:href="#aB"/><use transform="matrix(0.010850694444444444,0,0,0.010850694444444444,102.41970486111111,0)" xlink:href="#au"/><use transform="matrix(0.010850694444444444,0,0,0.010850694444444444,115.84201388888889,0)" xlink:href="#at"/><use transform="matrix(0.010850694444444444,0,0,0.010850694444444444,130.44704861111111,0)" xlink:href="#aC"/></g><path fill="#333" d="M1079 0c-64-298-133-592-202-885h-7L666 0H338L20-1118h304c74 305 149 505 192 862h6c25-292 125-597 189-862h336c64 284 150 545 182 862h6c7-69 49-308 65-367l134-495h299L1411 0h-332" id="aD"/><g id="i"><use transform="matrix(0.010850694444444444,0,0,0.010850694444444444,0,0)" xlink:href="#am"/><use transform="matrix(0.010850694444444444,0,0,0.010850694444444444,16.44965277777778,0)" xlink:href="#as"/><use transform="matrix(0.010850694444444444,0,0,0.010850694444444444,29.763454861111114,0)" xlink:href="#aD"/><use transform="matrix(0.010850694444444444,0,0,0.010850694444444444,48.78472222222223,0)" xlink:href="#at"/><use transform="matrix(0.010850694444444444,0,0,0.010850694444444444,63.38975694444445,0)" xlink:href="#aA"/><use transform="matrix(0.010850694444444444,0,0,0.010850694444444444,77.54991319444446,0)" xlink:href="#as"/><use transform="matrix(0.010850694444444444,0,0,0.010850694444444444,91.30859375000001,0)" xlink:href="#aB"/><use transform="matrix(0.010850694444444444,0,0,0.010850694444444444,113.1293402777778,0)" xlink:href="#aB"/><use transform="matrix(0.010850694444444444,0,0,0.010850694444444444,134.95008680555557,0)" xlink:href="#au"/><use transform="matrix(0.010850694444444444,0,0,0.010850694444444444,148.37239583333334,0)" xlink:href="#at"/><use transform="matrix(0.010850694444444444,0,0,0.010850694444444444,162.97743055555557,0)" xlink:href="#aC"/></g><path fill="#333" d="M881-1016c0-191-181-195-387-192v395c210 7 387-9 387-203zm313-8c0 197-121 322-272 387 220 329 363 541 430 637h-344L659-561H494V0H184v-1462h426c360 1 584 108 584 438" id="aE"/><path fill="#333" d="M549-1139c43 0 163 15 194 21h390v155l-175 45c32 50 48 106 48 168 2 289-261 415-574 373-89 78-53 146 121 146h190c229-1 375 93 377 311 0 131-55 232-164 304S691 492 487 492c-156 0-275-28-357-82S6 280 6 182C6 26 113-51 254-84c-55-22-119-89-117-162 3-107 68-140 144-190C169-483 89-600 90-756c1-259 185-383 459-383zM467 14c-100-2-199 51-197 144 3 184 368 146 487 90 62-30 93-71 93-123 0-42-19-70-55-87-64-30-222-23-328-24zm82-569c118 0 165-80 166-197 0-135-55-202-166-202-112 0-168 67-168 202 0 117 52 197 168 197" id="aF"/><path fill="#333" d="M791-1139c262-1 402 148 401 410V0H887v-653c0-161-60-242-180-242-201 0-242 142-242 369V0H160v-1556h305c-1 210 6 368-14 581h16c68-109 176-164 324-164" id="aG"/><g id="j"><use transform="matrix(0.010850694444444444,0,0,0.010850694444444444,0,0)" xlink:href="#aE"/><use transform="matrix(0.010850694444444444,0,0,0.010850694444444444,14.670138888888888,0)" xlink:href="#an"/><use transform="matrix(0.010850694444444444,0,0,0.010850694444444444,21.451822916666664,0)" xlink:href="#aF"/><use transform="matrix(0.010850694444444444,0,0,0.010850694444444444,34.006076388888886,0)" xlink:href="#aG"/><use transform="matrix(0.010850694444444444,0,0,0.010850694444444444,48.61111111111111,0)" xlink:href="#ar"/><use transform="matrix(0.010850694444444444,0,0,0.010850694444444444,58.25737847222221,0)" xlink:href="#aA"/><use transform="matrix(0.010850694444444444,0,0,0.010850694444444444,72.41753472222221,0)" xlink:href="#as"/><use transform="matrix(0.010850694444444444,0,0,0.010850694444444444,86.17621527777777,0)" xlink:href="#aB"/><use transform="matrix(0.010850694444444444,0,0,0.010850694444444444,107.99696180555556,0)" xlink:href="#aB"/><use transform="matrix(0.010850694444444444,0,0,0.010850694444444444,129.81770833333331,0)" xlink:href="#au"/><use transform="matrix(0.010850694444444444,0,0,0.010850694444444444,143.2400173611111,0)" xlink:href="#at"/><use transform="matrix(0.010850694444444444,0,0,0.010850694444444444,157.84505208333331,0)" xlink:href="#aC"/></g><path fill="#333" d="M184 0v-1462h310v1206h593V0H184" id="aH"/><path fill="#333" d="M637-1325c-111 0-131 91-123 207h264v229H514V0H209v-889H41v-147l168-82c-18-311 94-449 395-449 105 0 199 16 281 47l-78 224c-61-19-118-29-170-29" id="aI"/><g id="k"><use transform="matrix(0.010850694444444444,0,0,0.010850694444444444,0,0)" xlink:href="#aH"/><use transform="matrix(0.010850694444444444,0,0,0.010850694444444444,12.554253472222221,0)" xlink:href="#ap"/><use transform="matrix(0.010850694444444444,0,0,0.010850694444444444,25.68359375,0)" xlink:href="#aI"/><use transform="matrix(0.010850694444444444,0,0,0.010850694444444444,34.28819444444444,0)" xlink:href="#ar"/><use transform="matrix(0.010850694444444444,0,0,0.010850694444444444,43.93446180555556,0)" xlink:href="#aA"/><use transform="matrix(0.010850694444444444,0,0,0.010850694444444444,58.09461805555555,0)" xlink:href="#as"/><use transform="matrix(0.010850694444444444,0,0,0.010850694444444444,71.85329861111111,0)" xlink:href="#aB"/><use transform="matrix(0.010850694444444444,0,0,0.010850694444444444,93.67404513888889,0)" xlink:href="#aB"/><use transform="matrix(0.010850694444444444,0,0,0.010850694444444444,115.49479166666666,0)" xlink:href="#au"/><use transform="matrix(0.010850694444444444,0,0,0.010850694444444444,128.91710069444443,0)" xlink:href="#at"/><use transform="matrix(0.010850694444444444,0,0,0.010850694444444444,143.52213541666666,0)" xlink:href="#aC"/></g><path fill="#333" d="M1026 0H184v-1462h842v254H494v321h495v254H494v377h532V0" id="aJ"/><g id="l"><use transform="matrix(0.010850694444444444,0,0,0.010850694444444444,0,0)" xlink:href="#aJ"/><use transform="matrix(0.010850694444444444,0,0,0.010850694444444444,12.445746527777777,0)" xlink:href="#av"/><use transform="matrix(0.010850694444444444,0,0,0.010850694444444444,19.227430555555554,0)" xlink:href="#ap"/><use transform="matrix(0.010850694444444444,0,0,0.010850694444444444,32.35677083333333,0)" xlink:href="#aB"/><use transform="matrix(0.010850694444444444,0,0,0.010850694444444444,54.17751736111111,0)" xlink:href="#ap"/><use transform="matrix(0.010850694444444444,0,0,0.010850694444444444,67.30685763888889,0)" xlink:href="#at"/><use transform="matrix(0.010850694444444444,0,0,0.010850694444444444,81.91189236111111,0)" xlink:href="#ar"/></g><path fill="#333" d="M270 29c-76 0-118-48-118-135 0-84 38-135 118-136 81 0 123 51 123 136 0 82-44 135-123 135" id="aK"/><g id="m"><use transform="matrix(0.010850694444444444,0,0,0.010850694444444444,0,0)" xlink:href="#aK"/><use transform="matrix(0.010850694444444444,0,0,0.010850694444444444,5.913628472222222,0)" xlink:href="#aK"/><use transform="matrix(0.010850694444444444,0,0,0.010850694444444444,11.827256944444445,0)" xlink:href="#aK"/></g><g id="n"><use transform="matrix(0.010850694444444444,0,0,0.010850694444444444,0,0)" xlink:href="#aK"/><use transform="matrix(0.010850694444444444,0,0,0.010850694444444444,5.913628472222222,0)" xlink:href="#aK"/><use transform="matrix(0.010850694444444444,0,0,0.010850694444444444,11.827256944444445,0)" xlink:href="#aK"/></g><path fill="#666" d="M881-1016c0-191-181-195-387-192v395c210 7 387-9 387-203zm313-8c0 197-121 322-272 387 220 329 363 541 430 637h-344L659-561H494V0H184v-1462h426c360 1 584 108 584 438" id="aL"/><path fill="#666" d="M479-1407c-1 99-61 150-166 150-111 0-166-50-166-150 0-99 55-149 166-149s166 50 166 149zM465 0H160v-1118h305V0" id="aM"/><path fill="#666" d="M426 0L0-1118h319l216 637c24 81 39 157 45 229h6c3-64 15-141 45-229l215-637h319L739 0H426" id="aN"/><g id="o"><use transform="matrix(0.010850694444444444,0,0,0.010850694444444444,0,0)" xlink:href="#aL"/><use transform="matrix(0.010850694444444444,0,0,0.010850694444444444,14.670138888888888,0)" xlink:href="#L"/><use transform="matrix(0.010850694444444444,0,0,0.010850694444444444,27.799479166666664,0)" xlink:href="#J"/><use transform="matrix(0.010850694444444444,0,0,0.010850694444444444,39.225260416666664,0)" xlink:href="#L"/><use transform="matrix(0.010850694444444444,0,0,0.010850694444444444,52.35460069444444,0)" xlink:href="#aM"/><use transform="matrix(0.010850694444444444,0,0,0.010850694444444444,59.13628472222222,0)" xlink:href="#aN"/><use transform="matrix(0.010850694444444444,0,0,0.010850694444444444,71.77734375,0)" xlink:href="#L"/><use transform="matrix(0.010850694444444444,0,0,0.010850694444444444,84.90668402777777,0)" xlink:href="#K"/></g><path fill="#333" d="M1382 0h-309v-631H494V0H184v-1462h310v573h579v-573h309V0" id="aO"/><g id="p"><use transform="matrix(0.010850694444444444,0,0,0.010850694444444444,0,0)" xlink:href="#aO"/><use transform="matrix(0.010850694444444444,0,0,0.010850694444444444,17.003038194444443,0)" xlink:href="#ap"/><use transform="matrix(0.010850694444444444,0,0,0.010850694444444444,30.13237847222222,0)" xlink:href="#av"/><use transform="matrix(0.010850694444444444,0,0,0.010850694444444444,36.9140625,0)" xlink:href="#an"/><use transform="matrix(0.010850694444444444,0,0,0.010850694444444444,43.69574652777778,0)" xlink:href="#aq"/><use transform="matrix(0.010850694444444444,0,0,0.010850694444444444,55.12152777777778,0)" xlink:href="#as"/><use transform="matrix(0.010850694444444444,0,0,0.010850694444444444,68.88020833333333,0)" xlink:href="#az"/><use transform="matrix(0.010850694444444444,0,0,0.010850694444444444,82.94270833333333,0)" xlink:href="#ar"/><use transform="matrix(0.010850694444444444,0,0,0.010850694444444444,92.58897569444444,0)" xlink:href="#ap"/><use transform="matrix(0.010850694444444444,0,0,0.010850694444444444,105.71831597222221,0)" xlink:href="#ao"/><use transform="matrix(0.010850694444444444,0,0,0.010850694444444444,115.80946180555556,0)" xlink:href="#aA"/><use transform="matrix(0.010850694444444444,0,0,0.010850694444444444,129.96961805555554,0)" xlink:href="#as"/><use transform="matrix(0.010850694444444444,0,0,0.010850694444444444,143.7282986111111,0)" xlink:href="#at"/><use transform="matrix(0.010850694444444444,0,0,0.010850694444444444,158.33333333333331,0)" xlink:href="#ar"/><use transform="matrix(0.010850694444444444,0,0,0.010850694444444444,167.97960069444443,0)" xlink:href="#ao"/><use transform="matrix(0.010850694444444444,0,0,0.010850694444444444,177.62586805555554,0)" xlink:href="#as"/><use transform="matrix(0.010850694444444444,0,0,0.010850694444444444,191.38454861111111,0)" xlink:href="#av"/><use transform="matrix(0.010850694444444444,0,0,0.010850694444444444,198.16623263888883,0)" xlink:href="#av"/><use transform="matrix(0.010850694444444444,0,0,0.010850694444444444,204.94791666666663,0)" xlink:href="#ap"/><use transform="matrix(0.010850694444444444,0,0,0.010850694444444444,218.0772569444444,0)" xlink:href="#ao"/></g><use transform="matrix(0.010850694444444444,0,0,0.010850694444444444,0,0)" xlink:href="#ah" id="q"/><path fill="#333" d="M125-733c6-459 248-750 704-750 153 0 287 28 402 84l-72 146c-111-52-221-78-332-78-334-1-520 251-520 600 0 361 171 600 518 600 102 0 218-18 349-55v149C1073 1 948 20 799 20c-445 1-680-294-674-753" id="aP"/><path fill="#333" d="M621-1116c316 0 501 239 501 567 0 339-180 575-508 569S119-212 115-549c-4-339 178-567 506-567zm-5 141c-239 0-329 168-329 426 0 255 93 430 331 430s332-174 332-430-95-426-334-426" id="aQ"/><path fill="#333" d="M1368-1116c259 2 372 131 371 401V0h-166v-713c0-168-66-262-230-262-221 0-303 131-303 363V0H874v-713c-1-169-66-262-231-262-235 0-301 142-301 400V0H176v-1096h135l27 150h8c56-99 174-170 324-170 171 0 283 62 336 186h8c60-108 189-187 354-186" id="aR"/><path fill="#333" d="M115-545c0-330 146-571 454-571 149 0 263 54 342 162h13c-20-185-8-401-11-602h166V0H944l-22-147h-9C836-36 722 20 569 20c-309 0-454-234-454-565zm172 2c0 249 78 424 303 424 257 0 327-150 323-426-4-282-68-432-325-432-220 0-301 191-301 434" id="aS"/><path fill="#333" d="M340-561c134-179 332-366 485-535h197L578-629 1053 0H852L465-518 340-410V0H176v-1556h164c-4 336 9 669-8 995h8" id="aT"/><path fill="#333" d="M526-162c88-293 120-356 326-934h178L559 152c-47 123-102 209-163 262-93 80-237 94-380 61V342c184 39 305-9 367-180L444 6 2-1096h178c103 283 263 645 338 934h8" id="aU"/><path fill="#333" d="M270 29c-76 0-118-48-118-135 0-84 38-135 118-136 81 0 123 51 123 136 0 82-44 135-123 135zm0-883c-76 0-118-48-118-135 0-90 39-135 118-135 82 0 123 45 123 135 0 82-44 135-123 135" id="aV"/><path fill="#333" d="M1257 0h-200L524-709 371-573V0H201v-1462h170v725l663-725h201L647-827" id="aW"/><g id="r"><use transform="matrix(0.010850694444444444,0,0,0.010850694444444444,0,0)" xlink:href="#V"/><use transform="matrix(0.010850694444444444,0,0,0.010850694444444444,12.022569444444445,0)" xlink:href="#ai"/><use transform="matrix(0.010850694444444444,0,0,0.010850694444444444,23.220486111111114,0)" xlink:href="#V"/><use transform="matrix(0.010850694444444444,0,0,0.010850694444444444,35.68793402777778,0)" xlink:href="#Z"/><use transform="matrix(0.010850694444444444,0,0,0.010850694444444444,46.26736111111111,0)" xlink:href="#aj"/><use transform="matrix(0.010850694444444444,0,0,0.010850694444444444,59.90668402777778,0)" xlink:href="#U"/><use transform="matrix(0.010850694444444444,0,0,0.010850694444444444,67.75173611111111,0)" xlink:href="#V"/><use transform="matrix(0.010850694444444444,0,0,0.010850694444444444,80.21918402777779,0)" xlink:href="#aP"/><use transform="matrix(0.010850694444444444,0,0,0.010850694444444444,94.23828125,0)" xlink:href="#aQ"/><use transform="matrix(0.010850694444444444,0,0,0.010850694444444444,107.66059027777777,0)" xlink:href="#aR"/><use transform="matrix(0.010850694444444444,0,0,0.010850694444444444,128.33116319444443,0)" xlink:href="#aR"/><use transform="matrix(0.010850694444444444,0,0,0.010850694444444444,149.0017361111111,0)" xlink:href="#Y"/><use transform="matrix(0.010850694444444444,0,0,0.010850694444444444,161.36067708333331,0)" xlink:href="#T"/><use transform="matrix(0.010850694444444444,0,0,0.010850694444444444,174.99999999999997,0)" xlink:href="#aS"/><use transform="matrix(0.010850694444444444,0,0,0.010850694444444444,188.61762152777774,0)" xlink:href="#ak"/><use transform="matrix(0.010850694444444444,0,0,0.010850694444444444,195.19314236111111,0)" xlink:href="#aT"/><use transform="matrix(0.010850694444444444,0,0,0.010850694444444444,206.41276041666663,0)" xlink:href="#V"/><use transform="matrix(0.010850694444444444,0,0,0.010850694444444444,218.43532986111106,0)" xlink:href="#aU"/><use transform="matrix(0.010850694444444444,0,0,0.010850694444444444,229.63324652777774,0)" xlink:href="#aV"/><use transform="matrix(0.010850694444444444,0,0,0.010850694444444444,235.54687499999994,0)" xlink:href="#aW"/><use transform="matrix(0.010850694444444444,0,0,0.010850694444444444,249.18619791666663,0)" xlink:href="#V"/><use transform="matrix(0.010850694444444444,0,0,0.010850694444444444,261.20876736111103,0)" xlink:href="#aU"/><use transform="matrix(0.010850694444444444,0,0,0.010850694444444444,272.4066840277777,0)" xlink:href="#al"/></g><path fill="#666" d="M184 0v-1462h310V0H184" id="aX"/><path fill="#666" d="M453-608l133-170 313-340h344L799-633 1270 0H918L596-453 465-348V0H160v-1556h305v694l-16 254h4" id="aY"/><path fill="#666" d="M836-1462L291 0H14l545-1462h277" id="aZ"/><path fill="#666" d="M465 0H160v-1556h305V0" id="ba"/><g id="s"><use transform="matrix(0.010850694444444444,0,0,0.010850694444444444,0,0)" xlink:href="#aX"/><use transform="matrix(0.010850694444444444,0,0,0.010850694444444444,7.356770833333333,0)" xlink:href="#I"/><use transform="matrix(0.010850694444444444,0,0,0.010850694444444444,21.961805555555554,0)" xlink:href="#aN"/><use transform="matrix(0.010850694444444444,0,0,0.010850694444444444,34.60286458333333,0)" xlink:href="#H"/><use transform="matrix(0.010850694444444444,0,0,0.010850694444444444,48.361545138888886,0)" xlink:href="#aY"/><use transform="matrix(0.010850694444444444,0,0,0.010850694444444444,61.69704861111111,0)" xlink:href="#L"/><use transform="matrix(0.010850694444444444,0,0,0.010850694444444444,74.82638888888889,0)" xlink:href="#K"/><use transform="matrix(0.010850694444444444,0,0,0.010850694444444444,84.91753472222221,0)" xlink:href="#Q"/><use transform="matrix(0.010850694444444444,0,0,0.010850694444444444,95.96354166666666,0)" xlink:href="#aZ"/><use transform="matrix(0.010850694444444444,0,0,0.010850694444444444,105.14322916666666,0)" xlink:href="#G"/><use transform="matrix(0.010850694444444444,0,0,0.010850694444444444,119.30338541666666,0)" xlink:href="#ba"/><use transform="matrix(0.010850694444444444,0,0,0.010850694444444444,126.08506944444441,0)" xlink:href="#aM"/><use transform="matrix(0.010850694444444444,0,0,0.010850694444444444,132.8667534722222,0)" xlink:href="#L"/><use transform="matrix(0.010850694444444444,0,0,0.010850694444444444,145.99609374999997,0)" xlink:href="#I"/><use transform="matrix(0.010850694444444444,0,0,0.010850694444444444,160.6011284722222,0)" xlink:href="#M"/><use transform="matrix(0.010850694444444444,0,0,0.010850694444444444,170.24739583333331,0)" xlink:href="#Q"/></g><g id="t"><use transform="matrix(0.008680555555555556,0,0,0.008680555555555556,0,0)" xlink:href="#aP"/><use transform="matrix(0.008680555555555556,0,0,0.008680555555555556,11.215277777777779,0)" xlink:href="#aQ"/><use transform="matrix(0.008680555555555556,0,0,0.008680555555555556,21.953125,0)" xlink:href="#aR"/><use transform="matrix(0.008680555555555556,0,0,0.008680555555555556,38.489583333333336,0)" xlink:href="#aR"/><use transform="matrix(0.008680555555555556,0,0,0.008680555555555556,55.02604166666667,0)" xlink:href="#Y"/><use transform="matrix(0.008680555555555556,0,0,0.008680555555555556,64.91319444444446,0)" xlink:href="#T"/><use transform="matrix(0.008680555555555556,0,0,0.008680555555555556,75.82465277777779,0)" xlink:href="#aS"/></g><path fill="#333" d="M63 264c30-115 88-378 105-502h182l15 23C327-69 250 132 188 264H63zM266-854c-80 0-120-52-119-135 0-90 40-135 119-135 82 0 123 45 123 135 0 82-44 135-123 135" id="bb"/><g id="u"><use transform="matrix(0.008680555555555556,0,0,0.008680555555555556,0,0)" xlink:href="#Z"/><use transform="matrix(0.008680555555555556,0,0,0.008680555555555556,8.463541666666668,0)" xlink:href="#aR"/><use transform="matrix(0.008680555555555556,0,0,0.008680555555555556,25.000000000000004,0)" xlink:href="#aS"/><use transform="matrix(0.008680555555555556,0,0,0.008680555555555556,35.89409722222223,0)" xlink:href="#bb"/></g><g id="v"><use transform="matrix(0.008680555555555556,0,0,0.008680555555555556,0,0)" xlink:href="#Z"/><use transform="matrix(0.008680555555555556,0,0,0.008680555555555556,8.463541666666668,0)" xlink:href="#aR"/><use transform="matrix(0.008680555555555556,0,0,0.008680555555555556,25.000000000000004,0)" xlink:href="#aS"/></g><path fill="#333" d="M119-858v-137h930v137H119zm0 409v-137h930v137H119" id="bc"/><use transform="matrix(0.008680555555555556,0,0,0.008680555555555556,0,0)" xlink:href="#bc" id="w"/><path fill="#333" d="M1169-178c39-215 75-309 230-918h172L1268 0h-197c-99-332-184-548-272-911h-8C712-564 610-319 514 0H322L23-1096h174c71 275 124 485 161 629s59 241 64 291h8c76-328 186-611 279-920h180l196 629c37 115 63 211 76 289h8" id="bd"/><g id="x"><use transform="matrix(0.008680555555555556,0,0,0.008680555555555556,0,0)" xlink:href="#T"/><use transform="matrix(0.008680555555555556,0,0,0.008680555555555556,10.911458333333334,0)" xlink:href="#V"/><use transform="matrix(0.008680555555555556,0,0,0.008680555555555556,20.52951388888889,0)" xlink:href="#bd"/></g><path fill="#333" d="M649-1462c450-4 719 268 719 717 0 484-276 748-762 745H201v-1462h448zM578-147c400 1 610-197 610-592 1-379-192-576-570-576H371v1168h207" id="be"/><path fill="#333" d="M690-1114c271 2 402 123 402 399V0H926v-709c-1-177-76-266-252-266-251 0-332 135-332 402V0H176v-1556h166c-4 200 8 426-8 612h10c61-100 187-171 346-170" id="bf"/><path fill="#333" d="M502-977c-130 0-238 32-238 139 0 75 39 101 95 134 33 19 97 46 192 81 130 48 217 95 263 143s69 108 69 181C883-73 695 20 449 20 304 20 190-3 109-49v-154c91 47 216 86 344 86 149 0 270-36 270-168 0-43-21-76-55-109-56-55-367-158-434-208-74-55-128-109-128-225 0-327 490-342 754-217l-59 135c-110-45-210-68-299-68" id="bg"/><path fill="#333" d="M342 0H176v-1556h166V0" id="bh"/><g id="y"><use transform="matrix(0.008680555555555556,0,0,0.008680555555555556,0,0)" xlink:href="#be"/><use transform="matrix(0.008680555555555556,0,0,0.008680555555555556,12.960069444444445,0)" xlink:href="#aQ"/><use transform="matrix(0.008680555555555556,0,0,0.008680555555555556,23.34201388888889,0)" xlink:href="#bd"/><use transform="matrix(0.008680555555555556,0,0,0.008680555555555556,37.170138888888886,0)" xlink:href="#T"/><use transform="matrix(0.008680555555555556,0,0,0.008680555555555556,48.08159722222222,0)" xlink:href="#aP"/><use transform="matrix(0.008680555555555556,0,0,0.008680555555555556,59.296875,0)" xlink:href="#aQ"/><use transform="matrix(0.008680555555555556,0,0,0.008680555555555556,70.03472222222223,0)" xlink:href="#aR"/><use transform="matrix(0.008680555555555556,0,0,0.008680555555555556,86.57118055555557,0)" xlink:href="#aR"/><use transform="matrix(0.008680555555555556,0,0,0.008680555555555556,103.10763888888891,0)" xlink:href="#Y"/><use transform="matrix(0.008680555555555556,0,0,0.008680555555555556,112.99479166666669,0)" xlink:href="#T"/><use transform="matrix(0.008680555555555556,0,0,0.008680555555555556,123.90625000000001,0)" xlink:href="#aS"/><use transform="matrix(0.008680555555555556,0,0,0.008680555555555556,134.80034722222223,0)" xlink:href="#ak"/><use transform="matrix(0.008680555555555556,0,0,0.008680555555555556,140.06076388888889,0)" xlink:href="#U"/><use transform="matrix(0.008680555555555556,0,0,0.008680555555555556,146.33680555555554,0)" xlink:href="#bf"/><use transform="matrix(0.008680555555555556,0,0,0.008680555555555556,157.24826388888889,0)" xlink:href="#S"/><use transform="matrix(0.008680555555555556,0,0,0.008680555555555556,161.74479166666663,0)" xlink:href="#bg"/><use transform="matrix(0.008680555555555556,0,0,0.008680555555555556,170.22569444444443,0)" xlink:href="#aK"/><use transform="matrix(0.008680555555555556,0,0,0.008680555555555556,174.9565972222222,0)" xlink:href="#V"/><use transform="matrix(0.008680555555555556,0,0,0.008680555555555556,184.93055555555554,0)" xlink:href="#bh"/><use transform="matrix(0.008680555555555556,0,0,0.008680555555555556,189.42708333333331,0)" xlink:href="#V"/><use transform="matrix(0.008680555555555556,0,0,0.008680555555555556,199.40104166666666,0)" xlink:href="#aR"/><use transform="matrix(0.008680555555555556,0,0,0.008680555555555556,215.9375,0)" xlink:href="#V"/><use transform="matrix(0.008680555555555556,0,0,0.008680555555555556,225.91145833333334,0)" xlink:href="#T"/><use transform="matrix(0.008680555555555556,0,0,0.008680555555555556,236.82291666666669,0)" xlink:href="#U"/><use transform="matrix(0.008680555555555556,0,0,0.008680555555555556,243.09895833333334,0)" xlink:href="#al"/><use transform="matrix(0.008680555555555556,0,0,0.008680555555555556,248.359375,0)" xlink:href="#bb"/></g><g id="z"><use transform="matrix(0.008680555555555556,0,0,0.008680555555555556,0,0)" xlink:href="#Z"/><use transform="matrix(0.008680555555555556,0,0,0.008680555555555556,8.463541666666668,0)" xlink:href="#aR"/><use transform="matrix(0.008680555555555556,0,0,0.008680555555555556,25.000000000000004,0)" xlink:href="#aS"/><use transform="matrix(0.008680555555555556,0,0,0.008680555555555556,35.89409722222223,0)" xlink:href="#aK"/><use transform="matrix(0.008680555555555556,0,0,0.008680555555555556,40.62500000000001,0)" xlink:href="#V"/><use transform="matrix(0.008680555555555556,0,0,0.008680555555555556,50.243055555555564,0)" xlink:href="#ai"/><use transform="matrix(0.008680555555555556,0,0,0.008680555555555556,59.2013888888889,0)" xlink:href="#V"/><use transform="matrix(0.008680555555555556,0,0,0.008680555555555556,69.17534722222223,0)" xlink:href="#Z"/><use transform="matrix(0.008680555555555556,0,0,0.008680555555555556,77.63888888888889,0)" xlink:href="#aj"/><use transform="matrix(0.008680555555555556,0,0,0.008680555555555556,88.55034722222223,0)" xlink:href="#U"/><use transform="matrix(0.008680555555555556,0,0,0.008680555555555556,94.8263888888889,0)" xlink:href="#V"/><use transform="matrix(0.008680555555555556,0,0,0.008680555555555556,104.80034722222223,0)" xlink:href="#ak"/><use transform="matrix(0.008680555555555556,0,0,0.008680555555555556,110.0607638888889,0)" xlink:href="#al"/><use transform="matrix(0.008680555555555556,0,0,0.008680555555555556,115.32118055555557,0)" xlink:href="#bb"/></g><g id="A"><use transform="matrix(0.0087890625,0,0,0.0087890625,0,0)" xlink:href="#aK"/><use transform="matrix(0.0087890625,0,0,0.0087890625,4.7900390625,0)" xlink:href="#aK"/><use transform="matrix(0.0087890625,0,0,0.0087890625,9.580078125,0)" xlink:href="#aK"/><use transform="matrix(0.0087890625,0,0,0.0087890625,14.3701171875,0)" xlink:href="#aQ"/><use transform="matrix(0.0087890625,0,0,0.0087890625,25.2421875,0)" xlink:href="#U"/><use transform="matrix(0.0087890625,0,0,0.0087890625,31.5966796875,0)" xlink:href="#bf"/><use transform="matrix(0.0087890625,0,0,0.0087890625,42.64453125,0)" xlink:href="#V"/><use transform="matrix(0.0087890625,0,0,0.0087890625,52.7431640625,0)" xlink:href="#W"/></g><g id="B"><use transform="matrix(0.0087890625,0,0,0.0087890625,0,0)" xlink:href="#Z"/><use transform="matrix(0.0087890625,0,0,0.0087890625,8.5693359375,0)" xlink:href="#aQ"/><use transform="matrix(0.0087890625,0,0,0.0087890625,19.44140625,0)" xlink:href="#T"/><use transform="matrix(0.0087890625,0,0,0.0087890625,30.4892578125,0)" xlink:href="#U"/><use transform="matrix(0.0087890625,0,0,0.0087890625,36.84375,0)" xlink:href="#W"/><use transform="matrix(0.0087890625,0,0,0.0087890625,43.8310546875,0)" xlink:href="#aQ"/><use transform="matrix(0.0087890625,0,0,0.0087890625,54.703125,0)" xlink:href="#bh"/><use transform="matrix(0.0087890625,0,0,0.0087890625,59.255859375,0)" xlink:href="#bh"/><use transform="matrix(0.0087890625,0,0,0.0087890625,63.80859375,0)" xlink:href="#V"/><use transform="matrix(0.0087890625,0,0,0.0087890625,73.9072265625,0)" xlink:href="#W"/><use transform="matrix(0.0087890625,0,0,0.0087890625,81.2548828125,0)" xlink:href="#bg"/><use transform="matrix(0.0087890625,0,0,0.0087890625,89.841796875,0)" xlink:href="#aK"/><use transform="matrix(0.0087890625,0,0,0.0087890625,94.6318359375,0)" xlink:href="#aK"/><use transform="matrix(0.0087890625,0,0,0.0087890625,99.421875,0)" xlink:href="#aK"/></g><path fill="#333" d="M1481 0h-394L451-1106h-9c33 431 14 683 19 1106H184v-1462h391l635 1095h7c-26-429-11-678-15-1095h279V0" id="bi"/><path fill="#333" d="M639-223c202 0 242-139 242-369v-526h305V0H952l-41-143h-16C834-43 709 20 551 20c-263 0-397-147-397-409v-729h305v653c1 148 42 242 180 242" id="bj"/><g id="C"><use transform="matrix(0.010850694444444444,0,0,0.010850694444444444,0,0)" xlink:href="#bi"/><use transform="matrix(0.010850694444444444,0,0,0.010850694444444444,18.06640625,0)" xlink:href="#bj"/><use transform="matrix(0.010850694444444444,0,0,0.010850694444444444,32.67144097222222,0)" xlink:href="#av"/><use transform="matrix(0.010850694444444444,0,0,0.010850694444444444,39.453125,0)" xlink:href="#av"/><use transform="matrix(0.010850694444444444,0,0,0.010850694444444444,46.23480902777778,0)" xlink:href="#aA"/><use transform="matrix(0.010850694444444444,0,0,0.010850694444444444,60.39496527777778,0)" xlink:href="#as"/><use transform="matrix(0.010850694444444444,0,0,0.010850694444444444,74.15364583333333,0)" xlink:href="#aB"/><use transform="matrix(0.010850694444444444,0,0,0.010850694444444444,95.97439236111111,0)" xlink:href="#aB"/><use transform="matrix(0.010850694444444444,0,0,0.010850694444444444,117.79513888888889,0)" xlink:href="#au"/><use transform="matrix(0.010850694444444444,0,0,0.010850694444444444,131.21744791666666,0)" xlink:href="#at"/><use transform="matrix(0.010850694444444444,0,0,0.010850694444444444,145.82248263888889,0)" xlink:href="#aC"/></g><g id="D"><use transform="matrix(0.010850694444444444,0,0,0.010850694444444444,0,0)" xlink:href="#V"/><use transform="matrix(0.010850694444444444,0,0,0.010850694444444444,12.022569444444445,0)" xlink:href="#ai"/><use transform="matrix(0.010850694444444444,0,0,0.010850694444444444,23.220486111111114,0)" xlink:href="#V"/><use transform="matrix(0.010850694444444444,0,0,0.010850694444444444,35.68793402777778,0)" xlink:href="#Z"/><use transform="matrix(0.010850694444444444,0,0,0.010850694444444444,46.26736111111111,0)" xlink:href="#aj"/><use transform="matrix(0.010850694444444444,0,0,0.010850694444444444,59.90668402777778,0)" xlink:href="#U"/><use transform="matrix(0.010850694444444444,0,0,0.010850694444444444,67.75173611111111,0)" xlink:href="#V"/><use transform="matrix(0.010850694444444444,0,0,0.010850694444444444,80.21918402777779,0)" xlink:href="#ak"/><use transform="matrix(0.010850694444444444,0,0,0.010850694444444444,86.79470486111111,0)" xlink:href="#al"/></g><path fill="#333" d="M817-1485c460 0 694 282 694 752 0 343-125 581-360 688l352 393h-397L838 20c-476 9-719-278-719-755 0-471 238-750 698-750zm0 258c-273 0-374 198-373 494 0 296 98 493 371 493 247 0 371-164 371-493s-123-494-369-494" id="bk"/><g id="E"><use transform="matrix(0.010850694444444444,0,0,0.010850694444444444,0,0)" xlink:href="#bk"/><use transform="matrix(0.010850694444444444,0,0,0.010850694444444444,17.686631944444443,0)" xlink:href="#bj"/><use transform="matrix(0.010850694444444444,0,0,0.010850694444444444,32.291666666666664,0)" xlink:href="#an"/><use transform="matrix(0.010850694444444444,0,0,0.010850694444444444,39.07335069444444,0)" xlink:href="#ar"/><use transform="matrix(0.010850694444444444,0,0,0.010850694444444444,48.71961805555556,0)" xlink:href="#aA"/><use transform="matrix(0.010850694444444444,0,0,0.010850694444444444,62.87977430555555,0)" xlink:href="#as"/><use transform="matrix(0.010850694444444444,0,0,0.010850694444444444,76.63845486111111,0)" xlink:href="#aB"/><use transform="matrix(0.010850694444444444,0,0,0.010850694444444444,98.45920138888889,0)" xlink:href="#aB"/><use transform="matrix(0.010850694444444444,0,0,0.010850694444444444,120.27994791666666,0)" xlink:href="#au"/><use transform="matrix(0.010850694444444444,0,0,0.010850694444444444,133.70225694444443,0)" xlink:href="#at"/><use transform="matrix(0.010850694444444444,0,0,0.010850694444444444,148.30729166666666,0)" xlink:href="#aC"/></g><path fill="#333" d="M748 0H438v-1204H41v-258h1104v258H748V0" id="bl"/><path fill="#333" d="M596-1225c-134-8-223 103-163 219 11 21 33 41 61 60s93 53 196 102c137 65 230 130 281 196s76 147 76 242c-3 286-231 426-539 426C352 20 214-9 94-68v-288c159 68 260 115 438 120 123 3 211-41 211-155 0-73-44-105-95-141-63-46-329-160-390-220-78-77-147-167-147-315 0-273 208-420 495-416 177 2 298 46 434 103l-100 241c-131-51-199-78-344-86" id="bm"/><g id="F"><use transform="matrix(0.010850694444444444,0,0,0.010850694444444444,0,0)" xlink:href="#bl"/><use transform="matrix(0.010850694444444444,0,0,0.010850694444444444,11.317274305555555,0)" xlink:href="#ap"/><use transform="matrix(0.010850694444444444,0,0,0.010850694444444444,24.446614583333332,0)" xlink:href="#ao"/><use transform="matrix(0.010850694444444444,0,0,0.010850694444444444,34.537760416666664,0)" xlink:href="#aB"/><use transform="matrix(0.010850694444444444,0,0,0.010850694444444444,56.35850694444444,0)" xlink:href="#an"/><use transform="matrix(0.010850694444444444,0,0,0.010850694444444444,63.14019097222222,0)" xlink:href="#at"/><use transform="matrix(0.010850694444444444,0,0,0.010850694444444444,77.74522569444444,0)" xlink:href="#au"/><use transform="matrix(0.010850694444444444,0,0,0.010850694444444444,91.16753472222221,0)" xlink:href="#av"/><use transform="matrix(0.010850694444444444,0,0,0.010850694444444444,97.94921874999997,0)" xlink:href="#bm"/><use transform="matrix(0.010850694444444444,0,0,0.010850694444444444,110.18880208333331,0)" xlink:href="#aq"/><use transform="matrix(0.010850694444444444,0,0,0.010850694444444444,121.61458333333331,0)" xlink:href="#ao"/><use transform="matrix(0.010850694444444444,0,0,0.010850694444444444,131.26085069444443,0)" xlink:href="#ap"/><use transform="matrix(0.010850694444444444,0,0,0.010850694444444444,144.3901909722222,0)" xlink:href="#ap"/><use transform="matrix(0.010850694444444444,0,0,0.010850694444444444,157.51953124999997,0)" xlink:href="#at"/></g></defs></g></svg>