<svg xmlns="http://www.w3.org/2000/svg" xmlns:xlink="http://www.w3.org/1999/xlink" xmlns:lucid="lucid" width="1559.02" height="637.06"><g transform="translate(-130.98333730614945 -125.04471850356242)" lucid:page-tab-id="0_0"><path d="M510 153.04c0-4.4 3.58-8 8-8h483.36c4.42 0 8 3.6 8 8v287c0 4.42-3.58 8-8 8H518c-4.42 0-8-3.58-8-8z" stroke="#333" stroke-width="2" fill="#f9f8f8"/><path d="M510 205.36h499.36M510 259.62h499.36" stroke="#333" stroke-width="2" fill="none"/><use xlink:href="#a" transform="matrix(1,0,0,1,518,153.04471850356242) translate(157.85286458333331 36.84505208333333)"/><use xlink:href="#b" transform="matrix(1,0,0,1,522,267.62240947578465) translate(0 32.10883246527777)"/><use xlink:href="#c" transform="matrix(1,0,0,1,522,267.62240947578465) translate(20.128038194444443 32.10883246527777)"/><use xlink:href="#d" transform="matrix(1,0,0,1,522,267.62240947578465) translate(315.92881944444446 32.10883246527777)"/><use xlink:href="#e" transform="matrix(1,0,0,1,522,267.62240947578465) translate(0 71.4501953125)"/><use xlink:href="#f" transform="matrix(1,0,0,1,522,267.62240947578465) translate(113.6501736111111 71.4501953125)"/><use xlink:href="#g" transform="matrix(1,0,0,1,522,267.62240947578465) translate(289.14930555555554 71.4501953125)"/><use xlink:href="#h" transform="matrix(1,0,0,1,522,267.62240947578465) translate(300.83550347222223 71.4501953125)"/><use xlink:href="#i" transform="matrix(1,0,0,1,522,267.62240947578465) translate(0 118.79155815972223)"/><use xlink:href="#j" transform="matrix(1,0,0,1,522,267.62240947578465) translate(18.47873263888889 118.79155815972223)"/><use xlink:href="#k" transform="matrix(1,0,0,1,522,267.62240947578465) translate(237.5868055555556 118.79155815972223)"/><use xlink:href="#l" transform="matrix(1,0,0,1,522,267.62240947578465) translate(376.49739583333337 118.79155815972223)"/><use xlink:href="#m" transform="matrix(1,0,0,1,522,267.62240947578465) translate(387.89062500000006 118.79155815972223)"/><use xlink:href="#n" transform="matrix(1,0,0,1,522,267.62240947578465) translate(0 166.13292100694446)"/><use xlink:href="#o" transform="matrix(1,0,0,1,522,267.62240947578465) translate(18.47873263888889 166.13292100694446)"/><use xlink:href="#p" transform="matrix(1,0,0,1,522,267.62240947578465) translate(268.8368055555555 166.13292100694446)"/><path d="M574.07 572.1c0-4.42 3.58-8 8-8h356.65c4.42 0 8 3.58 8 8v162c0 4.42-3.58 8-8 8H582.07c-4.42 0-8-3.58-8-8z" stroke="#333" stroke-width="2" fill="#f9f8f8"/><path d="M574.07 610.36h372.65m-372.65 46.27h372.65" stroke="#333" stroke-width="2" fill="none"/><use xlink:href="#q" transform="matrix(1,0,0,1,582.0720933620012,572.1021833072292) translate(58.138671875 24.12087673611111)"/><use xlink:href="#n" transform="matrix(1,0,0,1,586.0720933620012,664.6273569183403) translate(50.88888888888887 23.950195312499996)"/><use xlink:href="#r" transform="matrix(1,0,0,1,586.0720933620012,664.6273569183403) translate(69.36762152777776 23.950195312499996)"/><use xlink:href="#s" transform="matrix(1,0,0,1,586.0720933620012,664.6273569183403) translate(82.60546875 63.29155815972223)"/><use xlink:href="#g" transform="matrix(1,0,0,1,586.0720933620012,664.6273569183403) translate(193.35850694444446 63.29155815972223)"/><use xlink:href="#t" transform="matrix(1,0,0,1,586.0720933620012,664.6273569183403) translate(205.04470486111111 63.29155815972223)"/><path d="M150.98 572.1c0-4.42 3.6-8 8-8h356.65c4.42 0 8 3.58 8 8v162c0 4.42-3.58 8-8 8H158.98c-4.4 0-8-3.58-8-8z" stroke="#333" stroke-width="2" fill="#f9f8f8"/><path d="M150.98 610.36h372.65m-372.65 46.27h372.65" stroke="#333" stroke-width="2" fill="none"/><use xlink:href="#u" transform="matrix(1,0,0,1,158.98333730614945,572.1021833072292) translate(64.86067708333334 24.12087673611111)"/><use xlink:href="#n" transform="matrix(1,0,0,1,162.98333730614945,664.6273569183403) translate(50.88888888888887 23.950195312499996)"/><use xlink:href="#r" transform="matrix(1,0,0,1,162.98333730614945,664.6273569183403) translate(69.36762152777776 23.950195312499996)"/><use xlink:href="#s" transform="matrix(1,0,0,1,162.98333730614945,664.6273569183403) translate(82.60546875 63.29155815972223)"/><use xlink:href="#g" transform="matrix(1,0,0,1,162.98333730614945,664.6273569183403) translate(193.35850694444446 63.29155815972223)"/><use xlink:href="#t" transform="matrix(1,0,0,1,162.98333730614945,664.6273569183403) translate(205.04470486111111 63.29155815972223)"/><path d="M997.16 572.1c0-4.42 3.58-8 8-8h356.65c4.42 0 8 3.58 8 8v162c0 4.42-3.58 8-8 8h-356.64c-4.42 0-8-3.58-8-8z" stroke="#333" stroke-width="2" fill="#f9f8f8"/><path d="M997.16 610.36h372.65m-372.64 46.27h372.65" stroke="#333" stroke-width="2" fill="none"/><use xlink:href="#v" transform="matrix(1,0,0,1,1005.1608494178527,572.1021833072292) translate(67.90429687500001 24.12087673611111)"/><use xlink:href="#n" transform="matrix(1,0,0,1,1009.1608494178527,664.6273569183403) translate(50.88888888888887 23.950195312499996)"/><use xlink:href="#r" transform="matrix(1,0,0,1,1009.1608494178527,664.6273569183403) translate(69.36762152777776 23.950195312499996)"/><use xlink:href="#s" transform="matrix(1,0,0,1,1009.1608494178527,664.6273569183403) translate(82.60546875 63.29155815972223)"/><use xlink:href="#g" transform="matrix(1,0,0,1,1009.1608494178527,664.6273569183403) translate(193.35850694444446 63.29155815972223)"/><use xlink:href="#t" transform="matrix(1,0,0,1,1009.1608494178527,664.6273569183403) translate(205.04470486111111 63.29155815972223)"/><path d="M1120 168c0-4.42 3.58-8 8-8h344c4.42 0 8 3.58 8 8v208c0 4.42-3.58 8-8 8h-344c-4.42 0-8-3.58-8-8z" stroke="#333" stroke-width="2" fill="#f9f8f8"/><path d="M1120 212.32h360m-360 124.94h360" stroke="#333" stroke-width="2" fill="none"/><use xlink:href="#w" transform="matrix(1,0,0,1,1128,168) translate(133.28255208333334 28.845052083333332)"/><use xlink:href="#x" transform="matrix(1,0,0,1,1132,220.31510416666669) translate(113.13888888888889 23.779513888888882)"/><use xlink:href="#y" transform="matrix(1,0,0,1,1132,220.31510416666669) translate(126.06206597222221 23.779513888888882)"/><use xlink:href="#z" transform="matrix(1,0,0,1,1132,220.31510416666669) translate(195.75607638888889 23.779513888888882)"/><use xlink:href="#x" transform="matrix(1,0,0,1,1132,220.31510416666669) translate(106.56336805555556 63.120876736111114)"/><use xlink:href="#A" transform="matrix(1,0,0,1,1132,220.31510416666669) translate(119.48654513888889 63.120876736111114)"/><use xlink:href="#g" transform="matrix(1,0,0,1,1132,220.31510416666669) translate(190.64539930555554 63.120876736111114)"/><use xlink:href="#z" transform="matrix(1,0,0,1,1132,220.31510416666669) translate(202.33159722222223 63.120876736111114)"/><use xlink:href="#x" transform="matrix(1,0,0,1,1132,220.31510416666669) translate(68.28211805555554 102.46223958333334)"/><use xlink:href="#B" transform="matrix(1,0,0,1,1132,220.31510416666669) translate(81.20529513888887 102.46223958333334)"/><use xlink:href="#g" transform="matrix(1,0,0,1,1132,220.31510416666669) translate(181.12934027777777 102.46223958333334)"/><use xlink:href="#C" transform="matrix(1,0,0,1,1132,220.31510416666669) translate(192.81553819444446 102.46223958333334)"/><g><use xlink:href="#D" transform="matrix(1,0,0,1,1132,345.2604166666667) translate(159.12955729166666 24.12087673611111)"/></g><path d="M1041.1 234.35h76.08" stroke="#333" stroke-width="2" fill="none"/><path d="M1011.78 234.35l14.84-14.85 15.16 14.85-15.16 14.85z" stroke="#333" stroke-width="2" fill="#fff"/><path d="M1099.82 244.53l17.22-10.18-17.22-10.18" stroke="#333" stroke-width="2" fill="none"/><g><use xlink:href="#E" transform="matrix(1,0,0,1,1086.1705527739955,208.75298980845903) translate(0 14.4)"/></g><path d="M759.68 503.05v-29.52M759.68 503.02v1.03" stroke="#333" stroke-width="2" fill="none"/><path d="M759.68 451l12.73 21.53h-25.45z" stroke="#333" stroke-width="2" fill="#fff"/><path d="M344.1 504l863.16.1M344.12 504h-1.02M1207.23 504.1h1.03M343.1 504.7v57.4M343.1 504.7v-1" stroke="#333" stroke-width="2" fill="none"/><path d="M344.1 563.1h-2v-1.02h2z" fill="#333"/><path d="M1208.26 505.1v57M1208.26 505.13v-1.03" stroke="#333" stroke-width="2" fill="none"/><path d="M1209.26 563.1h-2v-1.02h2z" fill="#333"/><path d="M759.72 505.05l.7 57.05M759.72 505.07l-.02-1.02" stroke="#333" stroke-width="2" fill="none"/><path d="M761.42 563.1h-2v-1l2-.04z" fill="#333"/><g><path d="M1590 626.63c0 4.42-3.58 8-8 8h-115.6l-21.6-28.86c-2.65-3.54-2.65-9.27 0-12.8l21.6-28.87H1582c4.42 0 8 3.58 8 8z" stroke="#666" stroke-width="2" fill="#ccc"/></g><g><use xlink:href="#F" transform="matrix(1,-2.4492935982947064e-16,2.4492935982947064e-16,1,1453.1948978723917,564.1021833072293) translate(18.74956597222223 28.989583333333336)"/><use xlink:href="#G" transform="matrix(1,-2.4492935982947064e-16,2.4492935982947064e-16,1,1453.1948978723917,564.1021833072293) translate(26.57291666666667 59.252170138888886)"/></g><path d="M320 168c0-4.42 3.58-8 8-8h123.3l13.9 18.6c2.65 3.53 2.65 9.27 0 12.8L451.3 210H328c-4.42 0-8-3.58-8-8z" stroke="#666" stroke-width="2" fill="#ccc"/><g><use xlink:href="#H" transform="matrix(1,0,0,1,320,160) translate(28.57291666666667 33.620876736111114)"/></g><path d="M1670 168c0-4.42-3.58-8-8-8h-117l-19.34 19.34c-3.13 3.13-3.13 8.2 0 11.32L1545 210h117c4.42 0 8-3.58 8-8z" stroke="#666" stroke-width="2" fill="#ccc"/><g><use xlink:href="#I" transform="matrix(1,0,0,1,1532.5,160) translate(25.45073784722222 33.620876736111114)"/></g><defs><path fill="#333" d="M713-1225c-104 0-191 63-189 164 0 41 11 77 33 107s72 69 148 120c139 94 239 195 241 402 4 295-238 452-549 452-147 0-266-30-356-90v-274c129 72 248 108 358 108 158 0 287-85 225-234-35-85-61-85-163-163-90-69-157-131-194-196s-56-134-56-209c0-288 207-445 502-445 145 0 277 33 397 99l-109 233c-104-49-200-74-288-74" id="J"/><path fill="#333" d="M567-223c116 0 190-42 275-82v246C741-6 629 20 506 20 242 20 90-129 90-391c0-287 114-531 284-653 171-123 445-117 636-23l-92 229c-70-28-129-63-224-57-215 14-293 246-299 479-3 121 58 193 172 193" id="K"/><path fill="#333" d="M696-922c-135 0-247 148-268 275 117 3 222-12 286-49 57-33 87-76 87-131 0-63-35-95-105-95zM592-207c150-3 210-32 330-86v227C807-9 677 20 532 20 256 20 90-138 90-412c0-283 128-528 306-638 95-59 200-89 319-89 217 0 374 102 375 305 0 125-56 220-167 288-119 73-305 107-528 102-17 145 58 240 197 237" id="L"/><path fill="#333" d="M844-1139c190 0 291 125 289 322 0 49-8 109-23 180L977 0H676l137-653c30-107 28-242-92-242-61 0-117 38-167 114C435-599 401-252 338 0H37l237-1118h230l-21 207h6c97-152 216-228 355-228" id="M"/><path fill="#333" d="M1217-1130c-117-62-172-97-312-97-215 0-336 143-407 319-43 105-64 218-64 339 1 215 78 328 287 329 97 0 210-26 338-77v260C926-6 793 20 659 20c-345 1-536-220-536-573 0-355 166-672 382-817 223-150 607-147 830-10" id="N"/><path fill="#333" d="M489-911c124-178 242-257 449-217l-66 290c-244-69-382 123-428 338L338 0H37l237-1118h230l-21 207h6" id="O"/><path fill="#333" d="M608-1139c139 1 230 65 277 164h8l57-143h232L944 0H715l14-145h-4C636-35 529 20 406 20 192 20 90-154 90-385c0-266 113-534 261-655 79-65 164-99 257-99zM395-399c-1 104 35 176 129 176 46 0 90-22 133-67 87-92 142-257 142-441 0-88-54-165-140-164-45 0-87 25-129 72-76 86-135 265-135 424" id="P"/><path fill="#333" d="M410 20c-192 0-289-73-291-258 0-33 3-71 12-112l115-539H94l29-147 196-84 132-236h194l-49 238h283l-50 229H547L432-350c-18 73-1 127 82 127 43 0 97-12 162-35v225C602 2 513 20 410 20" id="Q"/><path fill="#333" d="M805-696c0-131-48-197-143-197-50 0-94 21-134 61-78 78-135 263-135 422 0 123 50 185 150 185 127 0 193-116 229-233 22-73 33-152 33-238zm-121-443c263 0 424 175 424 443 0 284-101 512-274 626-89 59-194 90-316 90C262 20 90-154 90-410c0-288 103-522 278-638 90-60 195-91 316-91" id="R"/><g id="a"><use transform="matrix(0.013020833333333334,0,0,0.013020833333333334,0,0)" xlink:href="#J"/><use transform="matrix(0.013020833333333334,0,0,0.013020833333333334,14.127604166666668,0)" xlink:href="#K"/><use transform="matrix(0.013020833333333334,0,0,0.013020833333333334,27.005208333333336,0)" xlink:href="#L"/><use transform="matrix(0.013020833333333334,0,0,0.013020833333333334,41.86197916666667,0)" xlink:href="#M"/><use transform="matrix(0.013020833333333334,0,0,0.013020833333333334,57.96875,0)" xlink:href="#L"/><use transform="matrix(0.013020833333333334,0,0,0.013020833333333334,72.82552083333334,0)" xlink:href="#N"/><use transform="matrix(0.013020833333333334,0,0,0.013020833333333334,89.14062500000001,0)" xlink:href="#O"/><use transform="matrix(0.013020833333333334,0,0,0.013020833333333334,99.83072916666667,0)" xlink:href="#L"/><use transform="matrix(0.013020833333333334,0,0,0.013020833333333334,114.6875,0)" xlink:href="#P"/><use transform="matrix(0.013020833333333334,0,0,0.013020833333333334,130.53385416666666,0)" xlink:href="#Q"/><use transform="matrix(0.013020833333333334,0,0,0.013020833333333334,141.47135416666666,0)" xlink:href="#R"/><use transform="matrix(0.013020833333333334,0,0,0.013020833333333334,157.0703125,0)" xlink:href="#O"/></g><path fill="#333" d="M981-899l-66 340h283v129H891L807 0H670l84-430H451L369 0H233l80-430H51v-129h287l68-340H129v-127h299l82-436h139l-82 436h305l84-436h134l-84 436h264v127H981zM475-559h303l66-340H541" id="S"/><use transform="matrix(0.010850694444444444,0,0,0.010850694444444444,0,0)" xlink:href="#S" id="b"/><path fill="#333" d="M125-741c0-247 161-377 414-375 57 0 109 7 155 20h379v105l-203 24c37 48 72 129 72 219 0 255-227 390-504 345-71 37-106 84-106 141 0 78 66 88 164 88h194c219-1 369 87 369 293 0 121-49 213-146 277s-239 96-426 96c-250 0-448-83-448-306C39 36 147-58 283-86c-52-23-102-79-99-152 4-104 57-143 133-192-107-42-192-164-192-311zM438-25c-143-1-242 70-239 209s131 181 290 181c139 0 242-21 309-63s101-98 101-169c0-147-88-158-262-158H438zm94-970c-158 0-243 88-243 250 0 153 93 233 246 233 162 0 243-79 243-236 0-165-82-247-246-247" id="T"/><path fill="#333" d="M995-51C878-2 799 19 639 20c-329 2-524-221-524-559 0-326 172-577 481-577 278 0 451 210 446 493v105H287c4 242 121 392 358 393 118 0 235-25 350-74v148zM864-653c2-195-85-324-270-324-190 0-288 139-303 324h573" id="U"/><path fill="#333" d="M694-1116c270 0 399 125 398 401V0H926v-709c-1-177-76-266-252-266-250 0-332 133-332 400V0H176v-1096h135l27 150h8c62-101 190-170 348-170" id="V"/><path fill="#333" d="M340-893c80-153 237-262 467-211l-23 154c-45-10-85-15-120-15-184-3-322 182-322 377V0H176v-1096h137l19 203h8" id="W"/><path fill="#333" d="M588-1114c260 0 384 106 385 366V0H850l-33-156h-8C708-34 639 17 442 20 231 23 94-94 94-303c0-221 177-337 531-348l186-6c11-203-40-320-233-320-91 0-195 28-310 84l-51-127c97-53 229-94 371-94zM268-301c-1 123 81 184 207 184 203 0 334-120 332-323v-99c-257 14-539-7-539 238" id="X"/><path fill="#333" d="M354-322c-2 123 60 204 176 205 51 1 114-10 150-20v127C647 7 557 20 506 20 294 20 188-92 188-315v-652H31v-80l157-69 70-234h96v254h318v129H354v645" id="Y"/><path fill="#333" d="M1214-416C1213-138 1004 0 711 0H201v-1462h413c194 0 334 29 421 87s130 150 130 275c0 188-114 295-284 324v10c222 38 333 155 333 350zm-225-667c0-194-147-232-368-232H371v479h280c219-3 338-46 338-247zm43 655c0-204-147-264-370-264H371v547h305c220-1 356-73 356-283" id="Z"/><path fill="#333" d="M563 20c-271 0-399-123-399-399v-717h168v711c1 177 76 266 252 266 250 0 331-135 331-401v-576h166V0H944l-24-147h-9C848-44 724 20 563 20" id="aa"/><path fill="#333" d="M342 0H176v-1096h166V0zm-82-1282c-61 0-98-43-98-111 0-69 36-110 98-110 59 0 98 43 98 110s-39 111-98 111" id="ab"/><path fill="#333" d="M342 0H176v-1556h166V0" id="ac"/><path fill="#333" d="M115-545c0-330 146-571 454-571 149 0 263 54 342 162h13c-20-185-8-401-11-602h166V0H944l-22-147h-9C836-36 722 20 569 20c-309 0-454-234-454-565zm172 2c0 249 78 424 303 424 257 0 327-150 323-426-4-282-68-432-325-432-220 0-301 191-301 434" id="ad"/><path fill="#333" d="M502-977c-130 0-238 32-238 139 0 75 39 101 95 134 33 19 97 46 192 81 130 48 217 95 263 143s69 108 69 181C883-73 695 20 449 20 304 20 190-3 109-49v-154c91 47 216 86 344 86 149 0 270-36 270-168 0-43-21-76-55-109-56-55-367-158-434-208-74-55-128-109-128-225 0-327 490-342 754-217l-59 135c-110-45-210-68-299-68" id="ae"/><path fill="#333" d="M383 324C201 116 82-188 82-561c0-378 120-688 301-901h162c-172 227-289 529-289 899 0 361 122 665 287 887H383" id="af"/><path fill="#333" d="M1169-178c39-215 75-309 230-918h172L1268 0h-197c-99-332-184-548-272-911h-8C712-564 610-319 514 0H322L23-1096h174c71 275 124 485 161 629s59 241 64 291h8c76-328 186-611 279-920h180l196 629c37 115 63 211 76 289h8" id="ag"/><path fill="#333" d="M690-1114c271 2 402 123 402 399V0H926v-709c-1-177-76-266-252-266-251 0-332 135-332 402V0H176v-1556h166c-4 200 8 426-8 612h10c61-100 187-171 346-170" id="ah"/><path fill="#333" d="M270 29c-76 0-118-48-118-135 0-84 38-135 118-136 81 0 123 51 123 136 0 82-44 135-123 135zm0-883c-76 0-118-48-118-135 0-90 39-135 118-135 82 0 123 45 123 135 0 82-44 135-123 135" id="ai"/><path fill="#333" d="M63 264c30-115 88-378 105-502h182l15 23C327-69 250 132 188 264H63" id="aj"/><g id="c"><use transform="matrix(0.010850694444444444,0,0,0.010850694444444444,0,0)" xlink:href="#T"/><use transform="matrix(0.010850694444444444,0,0,0.010850694444444444,12.174479166666666,0)" xlink:href="#U"/><use transform="matrix(0.010850694444444444,0,0,0.010850694444444444,24.641927083333332,0)" xlink:href="#V"/><use transform="matrix(0.010850694444444444,0,0,0.010850694444444444,38.28125,0)" xlink:href="#U"/><use transform="matrix(0.010850694444444444,0,0,0.010850694444444444,50.748697916666664,0)" xlink:href="#W"/><use transform="matrix(0.010850694444444444,0,0,0.010850694444444444,59.375,0)" xlink:href="#X"/><use transform="matrix(0.010850694444444444,0,0,0.010850694444444444,71.73394097222223,0)" xlink:href="#Y"/><use transform="matrix(0.010850694444444444,0,0,0.010850694444444444,79.57899305555556,0)" xlink:href="#U"/><use transform="matrix(0.010850694444444444,0,0,0.010850694444444444,92.04644097222221,0)" xlink:href="#Z"/><use transform="matrix(0.010850694444444444,0,0,0.010850694444444444,106.4453125,0)" xlink:href="#aa"/><use transform="matrix(0.010850694444444444,0,0,0.010850694444444444,120.08463541666666,0)" xlink:href="#ab"/><use transform="matrix(0.010850694444444444,0,0,0.010850694444444444,125.7052951388889,0)" xlink:href="#ac"/><use transform="matrix(0.010850694444444444,0,0,0.010850694444444444,131.32595486111111,0)" xlink:href="#ad"/><use transform="matrix(0.010850694444444444,0,0,0.010850694444444444,144.94357638888889,0)" xlink:href="#ab"/><use transform="matrix(0.010850694444444444,0,0,0.010850694444444444,150.56423611111111,0)" xlink:href="#V"/><use transform="matrix(0.010850694444444444,0,0,0.010850694444444444,164.20355902777777,0)" xlink:href="#T"/><use transform="matrix(0.010850694444444444,0,0,0.010850694444444444,176.37803819444443,0)" xlink:href="#ae"/><use transform="matrix(0.010850694444444444,0,0,0.010850694444444444,186.97916666666666,0)" xlink:href="#af"/><use transform="matrix(0.010850694444444444,0,0,0.010850694444444444,193.5546875,0)" xlink:href="#ag"/><use transform="matrix(0.010850694444444444,0,0,0.010850694444444444,210.83984375,0)" xlink:href="#ab"/><use transform="matrix(0.010850694444444444,0,0,0.010850694444444444,216.46050347222223,0)" xlink:href="#ad"/><use transform="matrix(0.010850694444444444,0,0,0.010850694444444444,230.078125,0)" xlink:href="#Y"/><use transform="matrix(0.010850694444444444,0,0,0.010850694444444444,237.92317708333331,0)" xlink:href="#ah"/><use transform="matrix(0.010850694444444444,0,0,0.010850694444444444,251.5625,0)" xlink:href="#ai"/><use transform="matrix(0.010850694444444444,0,0,0.010850694444444444,257.47612847222223,0)" xlink:href="#ab"/><use transform="matrix(0.010850694444444444,0,0,0.010850694444444444,263.09678819444446,0)" xlink:href="#V"/><use transform="matrix(0.010850694444444444,0,0,0.010850694444444444,276.73611111111114,0)" xlink:href="#Y"/><use transform="matrix(0.010850694444444444,0,0,0.010850694444444444,284.58116319444446,0)" xlink:href="#aj"/></g><g id="d"><use transform="matrix(0.010850694444444444,0,0,0.010850694444444444,0,0)" xlink:href="#ah"/><use transform="matrix(0.010850694444444444,0,0,0.010850694444444444,13.639322916666666,0)" xlink:href="#U"/><use transform="matrix(0.010850694444444444,0,0,0.010850694444444444,26.106770833333332,0)" xlink:href="#ab"/><use transform="matrix(0.010850694444444444,0,0,0.010850694444444444,31.727430555555554,0)" xlink:href="#T"/><use transform="matrix(0.010850694444444444,0,0,0.010850694444444444,43.90190972222222,0)" xlink:href="#ah"/><use transform="matrix(0.010850694444444444,0,0,0.010850694444444444,57.541232638888886,0)" xlink:href="#Y"/><use transform="matrix(0.010850694444444444,0,0,0.010850694444444444,65.38628472222221,0)" xlink:href="#ai"/><use transform="matrix(0.010850694444444444,0,0,0.010850694444444444,71.29991319444444,0)" xlink:href="#ab"/><use transform="matrix(0.010850694444444444,0,0,0.010850694444444444,76.92057291666667,0)" xlink:href="#V"/><use transform="matrix(0.010850694444444444,0,0,0.010850694444444444,90.55989583333334,0)" xlink:href="#Y"/><use transform="matrix(0.010850694444444444,0,0,0.010850694444444444,98.40494791666666,0)" xlink:href="#aj"/></g><path fill="#333" d="M602-1462c329 0 526 109 526 413 0 193-98 324-294 392L1231 0h-201L676-608H371V0H201v-1462h401zm350 422c0-215-129-271-360-273H371v559h233c223 0 348-78 348-286" id="ak"/><path fill="#333" d="M621-1116c316 0 501 239 501 567 0 339-180 575-508 569S119-212 115-549c-4-339 178-567 506-567zm-5 141c-239 0-329 168-329 426 0 255 93 430 331 430s332-174 332-430-95-426-334-426" id="al"/><path fill="#333" d="M1368-1116c259 2 372 131 371 401V0h-166v-713c0-168-66-262-230-262-221 0-303 131-303 363V0H874v-713c-1-169-66-262-231-262-235 0-301 142-301 400V0H176v-1096h135l27 150h8c56-99 174-170 324-170 171 0 283 62 336 186h8c60-108 189-187 354-186" id="am"/><g id="e"><use transform="matrix(0.010850694444444444,0,0,0.010850694444444444,0,0)" xlink:href="#W"/><use transform="matrix(0.010850694444444444,0,0,0.010850694444444444,9.071180555555555,0)" xlink:href="#ai"/><use transform="matrix(0.010850694444444444,0,0,0.010850694444444444,14.98480902777778,0)" xlink:href="#ak"/><use transform="matrix(0.010850694444444444,0,0,0.010850694444444444,28.721788194444443,0)" xlink:href="#X"/><use transform="matrix(0.010850694444444444,0,0,0.010850694444444444,41.080729166666664,0)" xlink:href="#V"/><use transform="matrix(0.010850694444444444,0,0,0.010850694444444444,54.72005208333333,0)" xlink:href="#ad"/><use transform="matrix(0.010850694444444444,0,0,0.010850694444444444,68.3376736111111,0)" xlink:href="#al"/><use transform="matrix(0.010850694444444444,0,0,0.010850694444444444,81.75998263888887,0)" xlink:href="#am"/><use transform="matrix(0.010850694444444444,0,0,0.010850694444444444,102.43055555555556,0)" xlink:href="#aj"/></g><path fill="#333" d="M371 0H201v-1462h815v151H371v535h606v151H371V0" id="an"/><path fill="#333" d="M287-543c-1 247 91 418 323 418 91 0 185-20 281-59v147C818 1 725 20 614 20c-329 0-499-221-499-561 0-349 172-575 510-575 96 0 221 26 282 57l-51 141c-61-25-157-50-235-51-223 0-334 142-334 426" id="ao"/><path fill="#333" d="M223-1462c182 213 301 524 301 901 0 373-119 679-301 885H63c166-222 287-526 287-887 0-369-117-672-289-899h162" id="ap"/><g id="f"><use transform="matrix(0.010850694444444444,0,0,0.010850694444444444,0,0)" xlink:href="#ah"/><use transform="matrix(0.010850694444444444,0,0,0.010850694444444444,13.639322916666666,0)" xlink:href="#U"/><use transform="matrix(0.010850694444444444,0,0,0.010850694444444444,26.106770833333332,0)" xlink:href="#ab"/><use transform="matrix(0.010850694444444444,0,0,0.010850694444444444,31.727430555555554,0)" xlink:href="#T"/><use transform="matrix(0.010850694444444444,0,0,0.010850694444444444,43.90190972222222,0)" xlink:href="#ah"/><use transform="matrix(0.010850694444444444,0,0,0.010850694444444444,57.541232638888886,0)" xlink:href="#Y"/><use transform="matrix(0.010850694444444444,0,0,0.010850694444444444,65.38628472222221,0)" xlink:href="#an"/><use transform="matrix(0.010850694444444444,0,0,0.010850694444444444,76.85546874999999,0)" xlink:href="#X"/><use transform="matrix(0.010850694444444444,0,0,0.010850694444444444,89.2144097222222,0)" xlink:href="#ao"/><use transform="matrix(0.010850694444444444,0,0,0.010850694444444444,99.79383680555553,0)" xlink:href="#Y"/><use transform="matrix(0.010850694444444444,0,0,0.010850694444444444,107.63888888888887,0)" xlink:href="#al"/><use transform="matrix(0.010850694444444444,0,0,0.010850694444444444,121.06119791666663,0)" xlink:href="#W"/><use transform="matrix(0.010850694444444444,0,0,0.010850694444444444,130.13237847222217,0)" xlink:href="#ai"/><use transform="matrix(0.010850694444444444,0,0,0.010850694444444444,136.0460069444444,0)" xlink:href="#ab"/><use transform="matrix(0.010850694444444444,0,0,0.010850694444444444,141.66666666666663,0)" xlink:href="#V"/><use transform="matrix(0.010850694444444444,0,0,0.010850694444444444,155.3059895833333,0)" xlink:href="#Y"/><use transform="matrix(0.010850694444444444,0,0,0.010850694444444444,163.15104166666663,0)" xlink:href="#ap"/></g><use transform="matrix(0.010850694444444444,0,0,0.010850694444444444,0,0)" xlink:href="#ai" id="g"/><path fill="#333" d="M623 324H166v-1786h457v141H334V182h289v142" id="aq"/><path fill="#333" d="M51 182h289v-1503H51v-141h457V324H51V182" id="ar"/><g id="h"><use transform="matrix(0.010850694444444444,0,0,0.010850694444444444,0,0)" xlink:href="#ao"/><use transform="matrix(0.010850694444444444,0,0,0.010850694444444444,10.579427083333332,0)" xlink:href="#ah"/><use transform="matrix(0.010850694444444444,0,0,0.010850694444444444,24.21875,0)" xlink:href="#X"/><use transform="matrix(0.010850694444444444,0,0,0.010850694444444444,36.57769097222222,0)" xlink:href="#W"/><use transform="matrix(0.010850694444444444,0,0,0.010850694444444444,45.64887152777778,0)" xlink:href="#aq"/><use transform="matrix(0.010850694444444444,0,0,0.010850694444444444,52.96223958333333,0)" xlink:href="#ar"/><use transform="matrix(0.010850694444444444,0,0,0.010850694444444444,60.2756076388889,0)" xlink:href="#aq"/><use transform="matrix(0.010850694444444444,0,0,0.010850694444444444,67.58897569444444,0)" xlink:href="#ar"/></g><path fill="#333" d="M653-791h412v138H653v426H514v-426H104v-138h410v-428h139v428" id="as"/><use transform="matrix(0.010850694444444444,0,0,0.010850694444444444,0,0)" xlink:href="#as" id="i"/><path fill="#333" d="M520-119c105 0 184-35 262-67v143C699-1 607 20 506 20 249 22 98-131 98-389c0-274 115-515 278-633 156-113 369-117 562-43l-47 141c-160-67-298-75-423 26-119 97-198 295-198 509 0 164 91 271 250 270" id="at"/><path fill="#333" d="M638-1094c62-31 165-26 234-8l-36 150c-208-55-339 76-414 214-40 71-69 149-88 236L227 0H59l234-1096h139l-22 203h10c81-104 117-151 218-201" id="au"/><path fill="#333" d="M817-59C704-8 636 18 492 20 245 23 98-141 98-391c0-259 120-515 272-629 83-63 172-96 271-96 187 0 307 79 307 252 0 120-56 213-166 282-115 72-291 106-508 103-23 208 46 364 248 358 126-4 186-33 295-84v146zm-35-791c0-80-59-123-151-123-69 0-133 31-193 94S331-729 299-618c155 1 279-19 361-60 81-40 122-97 122-172" id="av"/><path fill="#333" d="M395 20C197 20 98-140 98-350c0-281 108-539 267-665 84-66 175-101 274-101 140 0 231 83 276 192h11l67-172h127L887 0H754l26-209h-8C653-56 527 20 395 20zM270-346c0 138 53 227 179 227 65 0 128-32 193-93 115-108 214-325 216-538 1-130-78-226-203-225-69 0-133 29-193 86-114 107-192 324-192 543" id="aw"/><path fill="#333" d="M303-365c-31 124-35 248 92 248 37 0 85-9 144-26v129C505 2 421 20 375 20c-162 0-258-76-258-237 0-44 6-94 18-150l127-602H90l14-73 185-78 125-228h98l-55 252h274l-26 127H432" id="ax"/><path fill="#333" d="M694-1331c-201-7-359 155-280 351 37 91 87 98 196 167 157 99 210 118 276 249 20 39 27 87 27 140-1 299-221 447-536 444C234 19 136 3 39-43v-170c108 56 221 84 340 84 198 0 352-96 352-283 0-52-18-98-53-138s-100-86-195-140c-101-57-170-113-209-170s-59-124-59-201c-3-257 211-427 479-422 155 3 250 29 365 84l-66 150c-73-44-192-78-299-82" id="ay"/><path fill="#333" d="M791-1116c166-2 276 98 274 264 0 53-9 112-23 180L899 0H729l148-692c13-69 20-117 20-144-2-90-51-143-149-139-156 7-254 112-322 231C314-549 290-247 227 0H59l234-1096h139l-22 203h10c64-81 126-139 186-173s121-50 185-50" id="az"/><path fill="#333" d="M229 324C29-17 45-526 202-899c80-192 208-380 384-563h157c-164 180-284 371-371 570C211-523 205-34 360 324H229" id="aA"/><path fill="#333" d="M958-145c122-335 154-375 406-951h178L1036 0H831c-14-307-41-606-36-930h-9C654-611 504-309 362 0H160l-43-1096h164c6 309 30 642 10 951h6c116-298 297-655 432-951h182c16 302 50 641 41 951h6" id="aB"/><path fill="#333" d="M227 0H59l234-1096h168zm205-1282c-54 0-92-37-92-94 0-71 46-128 115-127 59 0 88 30 88 90 0 66-50 132-111 131" id="aC"/><path fill="#333" d="M393 20C194 19 98-138 98-350c0-283 107-543 266-667 82-64 174-97 275-97 129 0 223 63 281 190h10c26-238 80-416 123-632h166L889 0H750l22-209h-8C697-126 634-67 575-32S456 20 393 20zm467-768c1-144-70-227-211-227-67 0-129 29-187 83-112 104-192 329-192 546 0 151 60 227 179 227 63 0 127-32 194-93 120-109 216-318 217-536" id="aD"/><path fill="#333" d="M791-1114c174-1 275 102 274 276 0 41-8 96-23 166-27 128-74 353-145 672H729l148-692c38-150 27-288-129-283-157 5-254 110-322 231C315-548 290-247 227 0H59l330-1556h168c-50 229-94 447-154 671h11c63-82 125-141 186-176s124-53 191-53" id="aE"/><path fill="#333" d="M143 29C80 28 43-8 43-74c0-98 56-169 152-168 61 1 96 39 96 105 0 91-57 167-148 166zm160-883c-62 0-100-39-100-102 0-98 55-169 151-168 65 0 97 35 97 104 0 91-60 166-148 166" id="aF"/><path fill="#333" d="M291-238l8 23C224-58 134 101 29 264h-129C-16 73 52-94 104-238h187" id="aG"/><g id="j"><use transform="matrix(0.010850694444444444,0,0,0.010850694444444444,0,0)" xlink:href="#at"/><use transform="matrix(0.010850694444444444,0,0,0.010850694444444444,10.004340277777777,0)" xlink:href="#au"/><use transform="matrix(0.010850694444444444,0,0,0.010850694444444444,18.359375,0)" xlink:href="#av"/><use transform="matrix(0.010850694444444444,0,0,0.010850694444444444,29.31857638888889,0)" xlink:href="#aw"/><use transform="matrix(0.010850694444444444,0,0,0.010850694444444444,41.872829861111114,0)" xlink:href="#ax"/><use transform="matrix(0.010850694444444444,0,0,0.010850694444444444,49.07769097222223,0)" xlink:href="#av"/><use transform="matrix(0.010850694444444444,0,0,0.010850694444444444,60.03689236111112,0)" xlink:href="#ay"/><use transform="matrix(0.010850694444444444,0,0,0.010850694444444444,71.19140625,0)" xlink:href="#at"/><use transform="matrix(0.010850694444444444,0,0,0.010850694444444444,81.19574652777777,0)" xlink:href="#av"/><use transform="matrix(0.010850694444444444,0,0,0.010850694444444444,92.15494791666666,0)" xlink:href="#az"/><use transform="matrix(0.010850694444444444,0,0,0.010850694444444444,104.98046874999997,0)" xlink:href="#av"/><use transform="matrix(0.010850694444444444,0,0,0.010850694444444444,115.93967013888887,0)" xlink:href="#aA"/><use transform="matrix(0.010850694444444444,0,0,0.010850694444444444,122.27647569444441,0)" xlink:href="#aB"/><use transform="matrix(0.010850694444444444,0,0,0.010850694444444444,138.20529513888889,0)" xlink:href="#aC"/><use transform="matrix(0.010850694444444444,0,0,0.010850694444444444,143.84765625,0)" xlink:href="#aD"/><use transform="matrix(0.010850694444444444,0,0,0.010850694444444444,156.67317708333334,0)" xlink:href="#ax"/><use transform="matrix(0.010850694444444444,0,0,0.010850694444444444,163.87803819444446,0)" xlink:href="#aE"/><use transform="matrix(0.010850694444444444,0,0,0.010850694444444444,176.7035590277778,0)" xlink:href="#aF"/><use transform="matrix(0.010850694444444444,0,0,0.010850694444444444,182.32421875000003,0)" xlink:href="#aC"/><use transform="matrix(0.010850694444444444,0,0,0.010850694444444444,187.96657986111114,0)" xlink:href="#az"/><use transform="matrix(0.010850694444444444,0,0,0.010850694444444444,200.79210069444449,0)" xlink:href="#ax"/><use transform="matrix(0.010850694444444444,0,0,0.010850694444444444,207.9969618055556,0)" xlink:href="#aG"/></g><path fill="#333" d="M150-674c0-303 259-515 579-422h371l-25 107-211 24c27 41 41 94 41 158 0 280-215 458-512 410-93 35-139 79-139 131 0 68 60 67 129 76 241 32 462 49 461 296 0 123-49 218-146 285S464 492 287 492c-226 0-414-78-414-281 0-70 24-131 72-182S71-66 178-102c-52-27-78-68-78-121 0-120 97-160 193-211-78-39-143-125-143-240zM283-45C148-18 35 53 35 195c0 123 114 167 258 167 121 0 217-22 285-64s102-102 102-179c0-41-19-72-54-98-59-43-233-54-343-66zm290-946c-172 3-256 138-260 311-3 111 62 176 170 174 174-4 256-141 260-317 2-109-61-170-170-168" id="aH"/><path fill="#333" d="M354-1462c198 345 182 854 24 1228C297-42 170 144-4 324h-156C171-43 336-439 336-864c0-227-38-427-113-598h131" id="aI"/><g id="k"><use transform="matrix(0.010850694444444444,0,0,0.010850694444444444,0,0)" xlink:href="#aE"/><use transform="matrix(0.010850694444444444,0,0,0.010850694444444444,12.825520833333332,0)" xlink:href="#av"/><use transform="matrix(0.010850694444444444,0,0,0.010850694444444444,23.78472222222222,0)" xlink:href="#aC"/><use transform="matrix(0.010850694444444444,0,0,0.010850694444444444,29.427083333333332,0)" xlink:href="#aH"/><use transform="matrix(0.010850694444444444,0,0,0.010850694444444444,40.55989583333333,0)" xlink:href="#aE"/><use transform="matrix(0.010850694444444444,0,0,0.010850694444444444,53.38541666666666,0)" xlink:href="#ax"/><use transform="matrix(0.010850694444444444,0,0,0.010850694444444444,60.59027777777778,0)" xlink:href="#aF"/><use transform="matrix(0.010850694444444444,0,0,0.010850694444444444,66.2109375,0)" xlink:href="#aE"/><use transform="matrix(0.010850694444444444,0,0,0.010850694444444444,79.03645833333333,0)" xlink:href="#av"/><use transform="matrix(0.010850694444444444,0,0,0.010850694444444444,89.99565972222221,0)" xlink:href="#aC"/><use transform="matrix(0.010850694444444444,0,0,0.010850694444444444,95.63802083333333,0)" xlink:href="#aH"/><use transform="matrix(0.010850694444444444,0,0,0.010850694444444444,106.77083333333333,0)" xlink:href="#aE"/><use transform="matrix(0.010850694444444444,0,0,0.010850694444444444,119.59635416666666,0)" xlink:href="#ax"/><use transform="matrix(0.010850694444444444,0,0,0.010850694444444444,126.80121527777777,0)" xlink:href="#aI"/></g><use transform="matrix(0.010850694444444444,0,0,0.010850694444444444,0,0)" xlink:href="#aF" id="l"/><g id="m"><use transform="matrix(0.010850694444444444,0,0,0.010850694444444444,0,0)" xlink:href="#ay"/><use transform="matrix(0.010850694444444444,0,0,0.010850694444444444,11.15451388888889,0)" xlink:href="#at"/><use transform="matrix(0.010850694444444444,0,0,0.010850694444444444,21.158854166666664,0)" xlink:href="#av"/><use transform="matrix(0.010850694444444444,0,0,0.010850694444444444,32.11805555555556,0)" xlink:href="#az"/><use transform="matrix(0.010850694444444444,0,0,0.010850694444444444,44.943576388888886,0)" xlink:href="#av"/></g><use transform="matrix(0.010850694444444444,0,0,0.010850694444444444,0,0)" xlink:href="#as" id="n"/><g id="o"><use transform="matrix(0.010850694444444444,0,0,0.010850694444444444,0,0)" xlink:href="#ah"/><use transform="matrix(0.010850694444444444,0,0,0.010850694444444444,13.639322916666666,0)" xlink:href="#U"/><use transform="matrix(0.010850694444444444,0,0,0.010850694444444444,26.106770833333332,0)" xlink:href="#ab"/><use transform="matrix(0.010850694444444444,0,0,0.010850694444444444,31.727430555555554,0)" xlink:href="#T"/><use transform="matrix(0.010850694444444444,0,0,0.010850694444444444,43.90190972222222,0)" xlink:href="#ah"/><use transform="matrix(0.010850694444444444,0,0,0.010850694444444444,57.541232638888886,0)" xlink:href="#Y"/><use transform="matrix(0.010850694444444444,0,0,0.010850694444444444,65.38628472222221,0)" xlink:href="#an"/><use transform="matrix(0.010850694444444444,0,0,0.010850694444444444,76.85546874999999,0)" xlink:href="#X"/><use transform="matrix(0.010850694444444444,0,0,0.010850694444444444,89.2144097222222,0)" xlink:href="#ao"/><use transform="matrix(0.010850694444444444,0,0,0.010850694444444444,99.79383680555553,0)" xlink:href="#Y"/><use transform="matrix(0.010850694444444444,0,0,0.010850694444444444,107.63888888888887,0)" xlink:href="#al"/><use transform="matrix(0.010850694444444444,0,0,0.010850694444444444,121.06119791666663,0)" xlink:href="#W"/><use transform="matrix(0.010850694444444444,0,0,0.010850694444444444,130.13237847222217,0)" xlink:href="#af"/><use transform="matrix(0.010850694444444444,0,0,0.010850694444444444,136.70789930555551,0)" xlink:href="#W"/><use transform="matrix(0.010850694444444444,0,0,0.010850694444444444,145.77907986111106,0)" xlink:href="#ai"/><use transform="matrix(0.010850694444444444,0,0,0.010850694444444444,151.6927083333333,0)" xlink:href="#ak"/><use transform="matrix(0.010850694444444444,0,0,0.010850694444444444,165.42968749999994,0)" xlink:href="#X"/><use transform="matrix(0.010850694444444444,0,0,0.010850694444444444,177.78862847222217,0)" xlink:href="#V"/><use transform="matrix(0.010850694444444444,0,0,0.010850694444444444,191.42795138888883,0)" xlink:href="#ad"/><use transform="matrix(0.010850694444444444,0,0,0.010850694444444444,205.04557291666663,0)" xlink:href="#al"/><use transform="matrix(0.010850694444444444,0,0,0.010850694444444444,218.46788194444437,0)" xlink:href="#am"/><use transform="matrix(0.010850694444444444,0,0,0.010850694444444444,239.13845486111103,0)" xlink:href="#aj"/></g><path fill="#333" d="M575-1430c-169 0-190 146-184 334h279v129H391V0H225v-967H29v-75l196-60c-15-299 97-465 353-465 58 0 126 12 204 35l-43 133c-64-21-119-31-164-31" id="aJ"/><path fill="#333" d="M686 20c-159 0-273-61-344-161h-12L295 0H176v-1556h166c-2 198 6 423-8 606h8c77-109 192-164 344-164 310 0 455 234 455 565 0 329-147 569-455 569zm283-571c0-257-72-424-307-424-256 0-320 146-320 426s68 430 324 430c228 0 303-184 303-432" id="aK"/><g id="p"><use transform="matrix(0.010850694444444444,0,0,0.010850694444444444,0,0)" xlink:href="#aJ"/><use transform="matrix(0.010850694444444444,0,0,0.010850694444444444,7.530381944444444,0)" xlink:href="#X"/><use transform="matrix(0.010850694444444444,0,0,0.010850694444444444,19.889322916666664,0)" xlink:href="#ao"/><use transform="matrix(0.010850694444444444,0,0,0.010850694444444444,30.468749999999993,0)" xlink:href="#Y"/><use transform="matrix(0.010850694444444444,0,0,0.010850694444444444,38.31380208333333,0)" xlink:href="#al"/><use transform="matrix(0.010850694444444444,0,0,0.010850694444444444,51.73611111111111,0)" xlink:href="#W"/><use transform="matrix(0.010850694444444444,0,0,0.010850694444444444,60.807291666666664,0)" xlink:href="#ai"/><use transform="matrix(0.010850694444444444,0,0,0.010850694444444444,66.72092013888889,0)" xlink:href="#ab"/><use transform="matrix(0.010850694444444444,0,0,0.010850694444444444,72.34157986111111,0)" xlink:href="#V"/><use transform="matrix(0.010850694444444444,0,0,0.010850694444444444,85.98090277777779,0)" xlink:href="#Y"/><use transform="matrix(0.010850694444444444,0,0,0.010850694444444444,93.82595486111111,0)" xlink:href="#ap"/><use transform="matrix(0.010850694444444444,0,0,0.010850694444444444,100.40147569444444,0)" xlink:href="#ai"/><use transform="matrix(0.010850694444444444,0,0,0.010850694444444444,106.31510416666666,0)" xlink:href="#aK"/><use transform="matrix(0.010850694444444444,0,0,0.010850694444444444,119.93272569444444,0)" xlink:href="#al"/><use transform="matrix(0.010850694444444444,0,0,0.010850694444444444,133.35503472222223,0)" xlink:href="#al"/><use transform="matrix(0.010850694444444444,0,0,0.010850694444444444,146.77734375,0)" xlink:href="#ac"/><use transform="matrix(0.010850694444444444,0,0,0.010850694444444444,152.39800347222223,0)" xlink:href="#U"/><use transform="matrix(0.010850694444444444,0,0,0.010850694444444444,164.86545138888889,0)" xlink:href="#X"/><use transform="matrix(0.010850694444444444,0,0,0.010850694444444444,177.22439236111111,0)" xlink:href="#V"/></g><path fill="#333" d="M881-1016c0-191-181-195-387-192v395c210 7 387-9 387-203zm313-8c0 197-121 322-272 387 220 329 363 541 430 637h-344L659-561H494V0H184v-1462h426c360 1 584 108 584 438" id="aL"/><path fill="#333" d="M618-1141c286 0 465 117 465 396V0H870l-59-152h-8C704-33 632 18 432 20 216 22 86-113 86-334c0-119 44-202 124-262 109-82 356-99 570-100 11-142-39-219-174-219-89 0-194 27-315 81l-101-206c129-67 271-101 428-101zm-71 938c137 0 235-88 233-223v-92c-190 3-382 4-381 186 0 86 49 129 148 129" id="aM"/><path fill="#333" d="M795-1139c261-1 398 148 397 410V0H887v-653c-1-148-42-242-180-242-202 0-242 139-242 369V0H160v-1118h233l41 143h17c62-102 185-163 344-164" id="aN"/><path fill="#333" d="M92-557c0-327 132-582 430-582 141 0 248 55 322 164h10c-38-188-18-371-23-581h306V0H903l-59-145h-13C762-35 656 20 514 20 222 20 92-237 92-557zm309 4c0 190 54 330 220 330 191 0 231-123 231-332 0-214-44-336-236-336-161 0-215 151-215 338" id="aO"/><path fill="#333" d="M633-893c-183 0-230 133-230 332s48 336 232 336c183 0 229-137 229-336s-47-332-231-332zm4-246c347 5 535 225 539 578S978 25 631 20C283 15 96-208 92-561c-4-355 196-583 545-578" id="aP"/><path fill="#333" d="M1384-895c-176 0-222 133-223 334V0H856v-653c-1-144-37-242-168-242-78 0-135 29-170 86s-53 152-53 283V0H160v-1118h233l41 143h17c56-98 174-164 325-164 167 0 281 55 340 164h27c55-99 179-165 330-164 265 2 385 133 385 410V0h-306v-653c-1-144-37-242-168-242" id="aQ"/><path fill="#333" d="M596-1225c-134-8-223 103-163 219 11 21 33 41 61 60s93 53 196 102c137 65 230 130 281 196s76 147 76 242c-3 286-231 426-539 426C352 20 214-9 94-68v-288c159 68 260 115 438 120 123 3 211-41 211-155 0-73-44-105-95-141-63-46-329-160-390-220-78-77-147-167-147-315 0-273 208-420 495-416 177 2 298 46 434 103l-100 241c-131-51-199-78-344-86" id="aR"/><path fill="#333" d="M954-63C853 0 774 20 614 20 266 20 92-171 92-553c0-369 188-586 549-586 129 0 245 25 348 76l-90 236c-84-31-156-66-258-66-159 0-238 113-238 338 0 219 79 328 238 328 137 0 223-38 313-97v261" id="aS"/><path fill="#333" d="M836-686c0-141-77-236-213-236-140 0-206 98-215 236h428zm223 627C946-4 838 19 666 20 308 22 92-191 92-551c0-356 187-588 529-588 314 0 504 195 501 508v148H401c5 169 104 277 279 276 158-2 261-33 379-88v236" id="aT"/><path fill="#333" d="M1133-1128c-95-42-202-97-328-97-258 0-367 218-367 498 0 326 122 489 367 489 103 0 227-26 373-77v260C1058-5 924 20 776 20c-443 0-662-290-657-749 5-455 236-754 686-754 142 0 285 34 428 103" id="aU"/><path fill="#333" d="M451-930c71-134 228-244 436-200l-23 286c-220-45-399 61-399 275V0H160v-1118h231l45 188h15" id="aV"/><path fill="#333" d="M498-350c-2 85 52 126 133 127 53 0 117-12 192-35v227C747 3 654 20 543 20c-247 0-350-124-350-370v-539H47v-129l168-102 88-236h195v238h313v229H498v539" id="aW"/><g id="q"><use transform="matrix(0.010850694444444444,0,0,0.010850694444444444,0,0)" xlink:href="#aL"/><use transform="matrix(0.010850694444444444,0,0,0.010850694444444444,14.670138888888888,0)" xlink:href="#aM"/><use transform="matrix(0.010850694444444444,0,0,0.010850694444444444,28.092447916666664,0)" xlink:href="#aN"/><use transform="matrix(0.010850694444444444,0,0,0.010850694444444444,42.697482638888886,0)" xlink:href="#aO"/><use transform="matrix(0.010850694444444444,0,0,0.010850694444444444,56.759982638888886,0)" xlink:href="#aP"/><use transform="matrix(0.010850694444444444,0,0,0.010850694444444444,70.51866319444444,0)" xlink:href="#aQ"/><use transform="matrix(0.010850694444444444,0,0,0.010850694444444444,92.33940972222221,0)" xlink:href="#aR"/><use transform="matrix(0.010850694444444444,0,0,0.010850694444444444,104.57899305555556,0)" xlink:href="#aS"/><use transform="matrix(0.010850694444444444,0,0,0.010850694444444444,116.00477430555556,0)" xlink:href="#aT"/><use transform="matrix(0.010850694444444444,0,0,0.010850694444444444,129.13411458333334,0)" xlink:href="#aN"/><use transform="matrix(0.010850694444444444,0,0,0.010850694444444444,143.73914930555557,0)" xlink:href="#aT"/><use transform="matrix(0.010850694444444444,0,0,0.010850694444444444,156.86848958333334,0)" xlink:href="#aU"/><use transform="matrix(0.010850694444444444,0,0,0.010850694444444444,171.02864583333334,0)" xlink:href="#aV"/><use transform="matrix(0.010850694444444444,0,0,0.010850694444444444,180.67491319444443,0)" xlink:href="#aT"/><use transform="matrix(0.010850694444444444,0,0,0.010850694444444444,193.80425347222223,0)" xlink:href="#aM"/><use transform="matrix(0.010850694444444444,0,0,0.010850694444444444,207.2265625,0)" xlink:href="#aW"/><use transform="matrix(0.010850694444444444,0,0,0.010850694444444444,216.87282986111111,0)" xlink:href="#aP"/><use transform="matrix(0.010850694444444444,0,0,0.010850694444444444,230.63151041666666,0)" xlink:href="#aV"/></g><path fill="#333" d="M584-1331c-162 0-287 69-287 219 0 118 43 164 123 214 44 28 112 56 203 89 153 55 259 113 317 176s86 144 86 244c-1 276-228 409-520 409-173 0-307-22-400-67v-164c109 46 257 81 406 82 199 1 342-68 342-244 0-120-47-164-132-214-47-28-121-58-218-93-136-49-234-106-292-173s-87-154-87-261c-1-239 209-369 463-369 145 0 279 27 401 80l-53 148c-121-51-238-76-352-76" id="aX"/><g id="r"><use transform="matrix(0.010850694444444444,0,0,0.010850694444444444,0,0)" xlink:href="#ao"/><use transform="matrix(0.010850694444444444,0,0,0.010850694444444444,10.579427083333332,0)" xlink:href="#W"/><use transform="matrix(0.010850694444444444,0,0,0.010850694444444444,19.205729166666664,0)" xlink:href="#U"/><use transform="matrix(0.010850694444444444,0,0,0.010850694444444444,31.67317708333333,0)" xlink:href="#X"/><use transform="matrix(0.010850694444444444,0,0,0.010850694444444444,44.03211805555555,0)" xlink:href="#Y"/><use transform="matrix(0.010850694444444444,0,0,0.010850694444444444,51.877170138888886,0)" xlink:href="#U"/><use transform="matrix(0.010850694444444444,0,0,0.010850694444444444,64.34461805555556,0)" xlink:href="#aX"/><use transform="matrix(0.010850694444444444,0,0,0.010850694444444444,76.54079861111111,0)" xlink:href="#ao"/><use transform="matrix(0.010850694444444444,0,0,0.010850694444444444,87.12022569444444,0)" xlink:href="#U"/><use transform="matrix(0.010850694444444444,0,0,0.010850694444444444,99.58767361111111,0)" xlink:href="#V"/><use transform="matrix(0.010850694444444444,0,0,0.010850694444444444,113.2269965277778,0)" xlink:href="#U"/><use transform="matrix(0.010850694444444444,0,0,0.010850694444444444,125.69444444444446,0)" xlink:href="#af"/><use transform="matrix(0.010850694444444444,0,0,0.010850694444444444,132.2699652777778,0)" xlink:href="#ag"/><use transform="matrix(0.010850694444444444,0,0,0.010850694444444444,149.5551215277778,0)" xlink:href="#ab"/><use transform="matrix(0.010850694444444444,0,0,0.010850694444444444,155.17578125000003,0)" xlink:href="#ad"/><use transform="matrix(0.010850694444444444,0,0,0.010850694444444444,168.7934027777778,0)" xlink:href="#Y"/><use transform="matrix(0.010850694444444444,0,0,0.010850694444444444,176.63845486111114,0)" xlink:href="#ah"/><use transform="matrix(0.010850694444444444,0,0,0.010850694444444444,190.2777777777778,0)" xlink:href="#ai"/><use transform="matrix(0.010850694444444444,0,0,0.010850694444444444,196.19140625000003,0)" xlink:href="#ab"/><use transform="matrix(0.010850694444444444,0,0,0.010850694444444444,201.81206597222226,0)" xlink:href="#V"/><use transform="matrix(0.010850694444444444,0,0,0.010850694444444444,215.4513888888889,0)" xlink:href="#Y"/><use transform="matrix(0.010850694444444444,0,0,0.010850694444444444,223.29644097222226,0)" xlink:href="#aj"/></g><g id="s"><use transform="matrix(0.010850694444444444,0,0,0.010850694444444444,0,0)" xlink:href="#ah"/><use transform="matrix(0.010850694444444444,0,0,0.010850694444444444,13.639322916666666,0)" xlink:href="#U"/><use transform="matrix(0.010850694444444444,0,0,0.010850694444444444,26.106770833333332,0)" xlink:href="#ab"/><use transform="matrix(0.010850694444444444,0,0,0.010850694444444444,31.727430555555554,0)" xlink:href="#T"/><use transform="matrix(0.010850694444444444,0,0,0.010850694444444444,43.90190972222222,0)" xlink:href="#ah"/><use transform="matrix(0.010850694444444444,0,0,0.010850694444444444,57.541232638888886,0)" xlink:href="#Y"/><use transform="matrix(0.010850694444444444,0,0,0.010850694444444444,65.38628472222221,0)" xlink:href="#ai"/><use transform="matrix(0.010850694444444444,0,0,0.010850694444444444,71.29991319444444,0)" xlink:href="#ab"/><use transform="matrix(0.010850694444444444,0,0,0.010850694444444444,76.92057291666667,0)" xlink:href="#V"/><use transform="matrix(0.010850694444444444,0,0,0.010850694444444444,90.55989583333334,0)" xlink:href="#Y"/><use transform="matrix(0.010850694444444444,0,0,0.010850694444444444,98.40494791666666,0)" xlink:href="#ap"/></g><g id="t"><use transform="matrix(0.010850694444444444,0,0,0.010850694444444444,0,0)" xlink:href="#aX"/><use transform="matrix(0.010850694444444444,0,0,0.010850694444444444,12.196180555555555,0)" xlink:href="#ao"/><use transform="matrix(0.010850694444444444,0,0,0.010850694444444444,22.77560763888889,0)" xlink:href="#U"/><use transform="matrix(0.010850694444444444,0,0,0.010850694444444444,35.24305555555555,0)" xlink:href="#V"/><use transform="matrix(0.010850694444444444,0,0,0.010850694444444444,48.88237847222221,0)" xlink:href="#U"/></g><path fill="#333" d="M817-1485c460 0 694 282 694 752 0 468-238 753-696 753-459 0-696-285-696-755 0-471 238-750 698-750zm0 258c-273 0-374 198-373 494 0 296 98 493 371 493 247 0 371-164 371-493s-123-494-369-494" id="aY"/><path fill="#333" d="M881-995c0-154-85-213-246-213H494v434h102c173 1 285-62 285-221zm-230-467c334-1 543 136 543 456 0 330-225 489-567 486H494V0H184v-1462h467" id="aZ"/><g id="u"><use transform="matrix(0.010850694444444444,0,0,0.010850694444444444,0,0)" xlink:href="#aY"/><use transform="matrix(0.010850694444444444,0,0,0.010850694444444444,17.686631944444443,0)" xlink:href="#aZ"/><use transform="matrix(0.010850694444444444,0,0,0.010850694444444444,31.640625,0)" xlink:href="#aP"/><use transform="matrix(0.010850694444444444,0,0,0.010850694444444444,45.39930555555556,0)" xlink:href="#aV"/><use transform="matrix(0.010850694444444444,0,0,0.010850694444444444,55.490451388888886,0)" xlink:href="#aW"/><use transform="matrix(0.010850694444444444,0,0,0.010850694444444444,65.13671875,0)" xlink:href="#aP"/><use transform="matrix(0.010850694444444444,0,0,0.010850694444444444,78.89539930555556,0)" xlink:href="#aR"/><use transform="matrix(0.010850694444444444,0,0,0.010850694444444444,91.13498263888889,0)" xlink:href="#aS"/><use transform="matrix(0.010850694444444444,0,0,0.010850694444444444,102.56076388888889,0)" xlink:href="#aT"/><use transform="matrix(0.010850694444444444,0,0,0.010850694444444444,115.69010416666666,0)" xlink:href="#aN"/><use transform="matrix(0.010850694444444444,0,0,0.010850694444444444,130.29513888888889,0)" xlink:href="#aT"/><use transform="matrix(0.010850694444444444,0,0,0.010850694444444444,143.42447916666666,0)" xlink:href="#aU"/><use transform="matrix(0.010850694444444444,0,0,0.010850694444444444,157.58463541666666,0)" xlink:href="#aV"/><use transform="matrix(0.010850694444444444,0,0,0.010850694444444444,167.23090277777777,0)" xlink:href="#aT"/><use transform="matrix(0.010850694444444444,0,0,0.010850694444444444,180.36024305555554,0)" xlink:href="#aM"/><use transform="matrix(0.010850694444444444,0,0,0.010850694444444444,193.78255208333331,0)" xlink:href="#aW"/><use transform="matrix(0.010850694444444444,0,0,0.010850694444444444,203.42881944444443,0)" xlink:href="#aP"/><use transform="matrix(0.010850694444444444,0,0,0.010850694444444444,217.18749999999994,0)" xlink:href="#aV"/></g><path fill="#333" d="M184 0v-1462h310v1206h593V0H184" id="ba"/><path fill="#333" d="M479-1407c-1 99-61 150-166 150-111 0-166-50-166-150 0-99 55-149 166-149s166 50 166 149zM465 0H160v-1118h305V0" id="bb"/><path fill="#333" d="M836-831c-99-39-182-77-306-82-139-6-173 83-92 144 51 39 327 139 383 188 71 62 119 126 119 249C940-74 747 21 463 20 305 20 202 0 94-45v-252c93 45 253 94 379 94 111 0 166-32 166-96 0-68-41-76-98-109-79-46-276-119-333-167-74-61-116-125-116-252 0-368 555-367 836-224" id="bc"/><path fill="#333" d="M782-1139c292 0 422 259 422 578 0 185-39 328-116 429S907 20 774 20c-131 0-234-48-309-143h-21L393 0H160v-1556h305c-3 221 8 361-12 583h12c71-111 177-166 317-166zM465-596c-3 221 29 369 223 369 63 0 110-31 150-87 71-99 72-401-1-498-40-53-88-83-153-83-174 0-216 109-219 299" id="bd"/><g id="v"><use transform="matrix(0.010850694444444444,0,0,0.010850694444444444,0,0)" xlink:href="#ba"/><use transform="matrix(0.010850694444444444,0,0,0.010850694444444444,12.554253472222221,0)" xlink:href="#bb"/><use transform="matrix(0.010850694444444444,0,0,0.010850694444444444,19.3359375,0)" xlink:href="#bc"/><use transform="matrix(0.010850694444444444,0,0,0.010850694444444444,30.381944444444443,0)" xlink:href="#bd"/><use transform="matrix(0.010850694444444444,0,0,0.010850694444444444,44.44444444444444,0)" xlink:href="#aP"/><use transform="matrix(0.010850694444444444,0,0,0.010850694444444444,58.203125,0)" xlink:href="#aN"/><use transform="matrix(0.010850694444444444,0,0,0.010850694444444444,72.80815972222223,0)" xlink:href="#aR"/><use transform="matrix(0.010850694444444444,0,0,0.010850694444444444,85.04774305555556,0)" xlink:href="#aS"/><use transform="matrix(0.010850694444444444,0,0,0.010850694444444444,96.47352430555556,0)" xlink:href="#aT"/><use transform="matrix(0.010850694444444444,0,0,0.010850694444444444,109.60286458333333,0)" xlink:href="#aN"/><use transform="matrix(0.010850694444444444,0,0,0.010850694444444444,124.20789930555556,0)" xlink:href="#aT"/><use transform="matrix(0.010850694444444444,0,0,0.010850694444444444,137.33723958333331,0)" xlink:href="#aU"/><use transform="matrix(0.010850694444444444,0,0,0.010850694444444444,151.49739583333331,0)" xlink:href="#aV"/><use transform="matrix(0.010850694444444444,0,0,0.010850694444444444,161.14366319444443,0)" xlink:href="#aT"/><use transform="matrix(0.010850694444444444,0,0,0.010850694444444444,174.2730034722222,0)" xlink:href="#aM"/><use transform="matrix(0.010850694444444444,0,0,0.010850694444444444,187.69531249999994,0)" xlink:href="#aW"/><use transform="matrix(0.010850694444444444,0,0,0.010850694444444444,197.34157986111111,0)" xlink:href="#aP"/><use transform="matrix(0.010850694444444444,0,0,0.010850694444444444,211.10026041666663,0)" xlink:href="#aV"/></g><g id="w"><use transform="matrix(0.013020833333333334,0,0,0.013020833333333334,0,0)" xlink:href="#aR"/><use transform="matrix(0.013020833333333334,0,0,0.013020833333333334,14.6875,0)" xlink:href="#aS"/><use transform="matrix(0.013020833333333334,0,0,0.013020833333333334,28.3984375,0)" xlink:href="#aT"/><use transform="matrix(0.013020833333333334,0,0,0.013020833333333334,44.153645833333336,0)" xlink:href="#aN"/><use transform="matrix(0.013020833333333334,0,0,0.013020833333333334,61.6796875,0)" xlink:href="#aT"/></g><path fill="#333" d="M84-473v-152h491v152H84" id="be"/><use transform="matrix(0.010850694444444444,0,0,0.010850694444444444,0,0)" xlink:href="#be" id="x"/><g id="y"><use transform="matrix(0.010850694444444444,0,0,0.010850694444444444,0,0)" xlink:href="#ag"/><use transform="matrix(0.010850694444444444,0,0,0.010850694444444444,17.28515625,0)" xlink:href="#ab"/><use transform="matrix(0.010850694444444444,0,0,0.010850694444444444,22.90581597222222,0)" xlink:href="#ad"/><use transform="matrix(0.010850694444444444,0,0,0.010850694444444444,36.5234375,0)" xlink:href="#Y"/><use transform="matrix(0.010850694444444444,0,0,0.010850694444444444,44.368489583333336,0)" xlink:href="#ah"/><use transform="matrix(0.010850694444444444,0,0,0.010850694444444444,58.0078125,0)" xlink:href="#ai"/></g><g id="z"><use transform="matrix(0.010850694444444444,0,0,0.010850694444444444,0,0)" xlink:href="#ab"/><use transform="matrix(0.010850694444444444,0,0,0.010850694444444444,5.620659722222222,0)" xlink:href="#V"/><use transform="matrix(0.010850694444444444,0,0,0.010850694444444444,19.25998263888889,0)" xlink:href="#Y"/></g><g id="A"><use transform="matrix(0.010850694444444444,0,0,0.010850694444444444,0,0)" xlink:href="#ah"/><use transform="matrix(0.010850694444444444,0,0,0.010850694444444444,13.639322916666666,0)" xlink:href="#U"/><use transform="matrix(0.010850694444444444,0,0,0.010850694444444444,26.106770833333332,0)" xlink:href="#ab"/><use transform="matrix(0.010850694444444444,0,0,0.010850694444444444,31.727430555555554,0)" xlink:href="#T"/><use transform="matrix(0.010850694444444444,0,0,0.010850694444444444,43.90190972222222,0)" xlink:href="#ah"/><use transform="matrix(0.010850694444444444,0,0,0.010850694444444444,57.541232638888886,0)" xlink:href="#Y"/></g><g id="B"><use transform="matrix(0.010850694444444444,0,0,0.010850694444444444,0,0)" xlink:href="#aK"/><use transform="matrix(0.010850694444444444,0,0,0.010850694444444444,13.617621527777777,0)" xlink:href="#aa"/><use transform="matrix(0.010850694444444444,0,0,0.010850694444444444,27.256944444444443,0)" xlink:href="#ab"/><use transform="matrix(0.010850694444444444,0,0,0.010850694444444444,32.877604166666664,0)" xlink:href="#ac"/><use transform="matrix(0.010850694444444444,0,0,0.010850694444444444,38.498263888888886,0)" xlink:href="#ad"/><use transform="matrix(0.010850694444444444,0,0,0.010850694444444444,52.115885416666664,0)" xlink:href="#ab"/><use transform="matrix(0.010850694444444444,0,0,0.010850694444444444,57.736545138888886,0)" xlink:href="#V"/><use transform="matrix(0.010850694444444444,0,0,0.010850694444444444,71.37586805555556,0)" xlink:href="#T"/><use transform="matrix(0.010850694444444444,0,0,0.010850694444444444,83.55034722222223,0)" xlink:href="#ae"/></g><g id="C"><use transform="matrix(0.010850694444444444,0,0,0.010850694444444444,0,0)" xlink:href="#ao"/><use transform="matrix(0.010850694444444444,0,0,0.010850694444444444,10.579427083333332,0)" xlink:href="#ah"/><use transform="matrix(0.010850694444444444,0,0,0.010850694444444444,24.21875,0)" xlink:href="#X"/><use transform="matrix(0.010850694444444444,0,0,0.010850694444444444,36.57769097222222,0)" xlink:href="#W"/><use transform="matrix(0.010850694444444444,0,0,0.010850694444444444,45.64887152777778,0)" xlink:href="#aq"/><use transform="matrix(0.010850694444444444,0,0,0.010850694444444444,52.96223958333333,0)" xlink:href="#ar"/><use transform="matrix(0.010850694444444444,0,0,0.010850694444444444,60.2756076388889,0)" xlink:href="#aq"/><use transform="matrix(0.010850694444444444,0,0,0.010850694444444444,67.58897569444444,0)" xlink:href="#ar"/></g><path fill="#333" d="M270 29c-76 0-118-48-118-135 0-84 38-135 118-136 81 0 123 51 123 136 0 82-44 135-123 135" id="bf"/><g id="D"><use transform="matrix(0.010850694444444444,0,0,0.010850694444444444,0,0)" xlink:href="#bf"/><use transform="matrix(0.010850694444444444,0,0,0.010850694444444444,5.913628472222222,0)" xlink:href="#bf"/><use transform="matrix(0.010850694444444444,0,0,0.010850694444444444,11.827256944444445,0)" xlink:href="#bf"/></g><path d="M27 0v-27h64v-190l-56 39v-29l58-41h29v221h61V0H27" id="bg"/><use transform="matrix(0.05,0,0,0.05,0,0)" xlink:href="#bg" id="E"/><path fill="#666" d="M1133-1128c-95-42-202-97-328-97-258 0-367 218-367 498 0 326 122 489 367 489 103 0 227-26 373-77v260C1058-5 924 20 776 20c-443 0-662-290-657-749 5-455 236-754 686-754 142 0 285 34 428 103" id="bh"/><path fill="#666" d="M633-893c-183 0-230 133-230 332s48 336 232 336c183 0 229-137 229-336s-47-332-231-332zm4-246c347 5 535 225 539 578S978 25 631 20C283 15 96-208 92-561c-4-355 196-583 545-578" id="bi"/><path fill="#666" d="M795-1139c261-1 398 148 397 410V0H887v-653c-1-148-42-242-180-242-202 0-242 139-242 369V0H160v-1118h233l41 143h17c62-102 185-163 344-164" id="bj"/><path fill="#666" d="M954-63C853 0 774 20 614 20 266 20 92-171 92-553c0-369 188-586 549-586 129 0 245 25 348 76l-90 236c-84-31-156-66-258-66-159 0-238 113-238 338 0 219 79 328 238 328 137 0 223-38 313-97v261" id="bk"/><path fill="#666" d="M451-930c71-134 228-244 436-200l-23 286c-220-45-399 61-399 275V0H160v-1118h231l45 188h15" id="bl"/><path fill="#666" d="M836-686c0-141-77-236-213-236-140 0-206 98-215 236h428zm223 627C946-4 838 19 666 20 308 22 92-191 92-551c0-356 187-588 529-588 314 0 504 195 501 508v148H401c5 169 104 277 279 276 158-2 261-33 379-88v236" id="bm"/><path fill="#666" d="M498-350c-2 85 52 126 133 127 53 0 117-12 192-35v227C747 3 654 20 543 20c-247 0-350-124-350-370v-539H47v-129l168-102 88-236h195v238h313v229H498v539" id="bn"/><g id="F"><use transform="matrix(0.010850694444444444,0,0,0.010850694444444444,0,0)" xlink:href="#bh"/><use transform="matrix(0.010850694444444444,0,0,0.010850694444444444,14.16015625,0)" xlink:href="#bi"/><use transform="matrix(0.010850694444444444,0,0,0.010850694444444444,27.91883680555556,0)" xlink:href="#bj"/><use transform="matrix(0.010850694444444444,0,0,0.010850694444444444,42.52387152777778,0)" xlink:href="#bk"/><use transform="matrix(0.010850694444444444,0,0,0.010850694444444444,53.94965277777778,0)" xlink:href="#bl"/><use transform="matrix(0.010850694444444444,0,0,0.010850694444444444,63.595920138888886,0)" xlink:href="#bm"/><use transform="matrix(0.010850694444444444,0,0,0.010850694444444444,76.72526041666666,0)" xlink:href="#bn"/><use transform="matrix(0.010850694444444444,0,0,0.010850694444444444,86.37152777777777,0)" xlink:href="#bm"/></g><path fill="#666" d="M618-1141c286 0 465 117 465 396V0H870l-59-152h-8C704-33 632 18 432 20 216 22 86-113 86-334c0-119 44-202 124-262 109-82 356-99 570-100 11-142-39-219-174-219-89 0-194 27-315 81l-101-206c129-67 271-101 428-101zm-71 938c137 0 235-88 233-223v-92c-190 3-382 4-381 186 0 86 49 129 148 129" id="bo"/><g id="G"><use transform="matrix(0.010850694444444444,0,0,0.010850694444444444,0,0)" xlink:href="#bh"/><use transform="matrix(0.010850694444444444,0,0,0.010850694444444444,14.16015625,0)" xlink:href="#bl"/><use transform="matrix(0.010850694444444444,0,0,0.010850694444444444,23.80642361111111,0)" xlink:href="#bm"/><use transform="matrix(0.010850694444444444,0,0,0.010850694444444444,36.935763888888886,0)" xlink:href="#bo"/><use transform="matrix(0.010850694444444444,0,0,0.010850694444444444,50.358072916666664,0)" xlink:href="#bn"/><use transform="matrix(0.010850694444444444,0,0,0.010850694444444444,60.00434027777778,0)" xlink:href="#bi"/><use transform="matrix(0.010850694444444444,0,0,0.010850694444444444,73.76302083333333,0)" xlink:href="#bl"/></g><g id="H"><use transform="matrix(0.010850694444444444,0,0,0.010850694444444444,0,0)" xlink:href="#bh"/><use transform="matrix(0.010850694444444444,0,0,0.010850694444444444,14.16015625,0)" xlink:href="#bl"/><use transform="matrix(0.010850694444444444,0,0,0.010850694444444444,23.80642361111111,0)" xlink:href="#bm"/><use transform="matrix(0.010850694444444444,0,0,0.010850694444444444,36.935763888888886,0)" xlink:href="#bo"/><use transform="matrix(0.010850694444444444,0,0,0.010850694444444444,50.358072916666664,0)" xlink:href="#bn"/><use transform="matrix(0.010850694444444444,0,0,0.010850694444444444,60.00434027777778,0)" xlink:href="#bi"/><use transform="matrix(0.010850694444444444,0,0,0.010850694444444444,73.76302083333333,0)" xlink:href="#bl"/></g><path fill="#666" d="M881-995c0-154-85-213-246-213H494v434h102c173 1 285-62 285-221zm-230-467c334-1 543 136 543 456 0 330-225 489-567 486H494V0H184v-1462h467" id="bp"/><path fill="#666" d="M92-557c0-327 132-582 430-582 141 0 248 55 322 164h10c-38-188-18-371-23-581h306V0H903l-59-145h-13C762-35 656 20 514 20 222 20 92-237 92-557zm309 4c0 190 54 330 220 330 191 0 231-123 231-332 0-214-44-336-236-336-161 0-215 151-215 338" id="bq"/><path fill="#666" d="M639-223c202 0 242-139 242-369v-526h305V0H952l-41-143h-16C834-43 709 20 551 20c-263 0-397-147-397-409v-729h305v653c1 148 42 242 180 242" id="br"/><g id="I"><use transform="matrix(0.010850694444444444,0,0,0.010850694444444444,0,0)" xlink:href="#bp"/><use transform="matrix(0.010850694444444444,0,0,0.010850694444444444,13.953993055555555,0)" xlink:href="#bl"/><use transform="matrix(0.010850694444444444,0,0,0.010850694444444444,23.600260416666664,0)" xlink:href="#bi"/><use transform="matrix(0.010850694444444444,0,0,0.010850694444444444,37.35894097222222,0)" xlink:href="#bq"/><use transform="matrix(0.010850694444444444,0,0,0.010850694444444444,51.42144097222222,0)" xlink:href="#br"/><use transform="matrix(0.010850694444444444,0,0,0.010850694444444444,66.02647569444444,0)" xlink:href="#bk"/><use transform="matrix(0.010850694444444444,0,0,0.010850694444444444,77.45225694444444,0)" xlink:href="#bn"/></g></defs></g></svg>