<svg xmlns="http://www.w3.org/2000/svg" xmlns:xlink="http://www.w3.org/1999/xlink" xmlns:lucid="lucid" width="784.87" height="360.59"><g transform="translate(-480 -168.40809461805554)" lucid:page-tab-id="0_0"><path d="M0 0h1760v1360H0z" fill="#fff"/><path d="M750 300h88.3v40H750z" fill="none"/><use xlink:href="#a" transform="matrix(1,0,0,1,750,300) translate(24.254557291666668 29.676432291666664)"/><use xlink:href="#b" transform="matrix(1,0,0,1,750,300) translate(16.23014322916667 47.652408854166666)"/><path d="M540 310c0 11.05-8.95 20-20 20s-20-8.95-20-20 8.95-20 20-20 20 8.95 20 20z" stroke="#333"/><path d="M541.5 310h56.68" stroke="#333" stroke-width="2" fill="none"/><path d="M541.53 311h-1.15l.12-.98-.04-1.02h1.07z" fill="#333"/><path d="M580.82 320.18L598.04 310l-17.22-10.18" stroke="#333" stroke-width="2" fill="none"/><path d="M612 280c-6.63 0-12 5.37-12 12v36c0 6.63 5.37 12 12 12h126c6.63 0 12-5.37 12-12v-36c0-6.63-5.37-12-12-12z" stroke="#333" stroke-width="2" fill="#f9f8f8"/><use xlink:href="#c" transform="matrix(1,0,0,1,608,288) translate(6.3120659722222285 31.75217013888889)"/><path d="M860.12 280c-6.62 0-12 5.37-12 12v36c0 6.63 5.38 12 12 12h126c6.63 0 12-5.37 12-12v-36c0-6.63-5.37-12-12-12z" stroke="#333" stroke-width="2" fill="#f9f8f8"/><use xlink:href="#d" transform="matrix(1,0,0,1,856.1235266945394,288) translate(5.7261284722222285 31.75217013888889)"/><path d="M812 449c-6.63 0-12 5.37-12 12v36c0 6.63 5.37 12 12 12h126c6.63 0 12-5.37 12-12v-36c0-6.63-5.37-12-12-12z" stroke="#333" stroke-width="2" fill="#f9f8f8"/><use xlink:href="#e" transform="matrix(1,0,0,1,808,457) translate(6.501953125000007 31.75217013888889)"/><path d="M1106.87 280c-6.63 0-12 5.37-12 12v36c0 6.63 5.37 12 12 12h126c6.63 0 12-5.37 12-12v-36c0-6.63-5.37-12-12-12z" stroke="#333" stroke-width="2" fill="#f9f8f8"/><use xlink:href="#f" transform="matrix(1,0,0,1,1102.8706721048209,288) translate(14.211371527777786 31.75217013888889)"/><path d="M752 310h93.3" stroke="#333" stroke-width="2" fill="none"/><path d="M752.03 311H751v-2h1.03z" fill="#333"/><path d="M827.94 320.18L845.16 310l-17.22-10.18" stroke="#333" stroke-width="2" fill="none"/><path d="M725.67 418H876v28.18h-2V420H723.67v-78h2z" fill="#333"/><path d="M725.67 342.03h-2V341h2zM886.04 429.33L875 448l-11.04-18.67 1.72-1.02 9.32 15.77 9.32-15.76z" fill="#333"/><use xlink:href="#g" transform="matrix(1,0,0,1,732.6669814832684,388.1092764397091) translate(0 16.626519097222225)"/><use xlink:href="#h" transform="matrix(1,0,0,1,732.6669814832684,388.1092764397091) translate(83.9301215277778 16.626519097222225)"/><path d="M1000.12 310h91.93" stroke="#333" stroke-width="2" fill="none"/><path d="M1000.15 311h-1.03v-2h1.03z" fill="#333"/><path d="M1074.7 320.18l17.2-10.18-17.2-10.18" stroke="#333" stroke-width="2" fill="none"/><path d="M1172.13 278h-2v-87H968.17v-2h203.96zm-267.3-87H702.9v86.18h-2V189h203.96z" fill="#333"/><path d="M1172.13 279h-2v-1.03h2zM712.92 260.33L701.88 279l-11.05-18.67 1.73-1.02 9.32 15.77 9.32-15.76z" fill="#333"/><use xlink:href="#i" transform="matrix(1,0,0,1,904.836521160639,179.40809461805554) translate(0 16.626519097222225)"/><use xlink:href="#j" transform="matrix(1,0,0,1,904.836521160639,179.40809461805554) translate(35.1291232638889 16.626519097222225)"/><path d="M878.34 278h-2v-38h-42.66v-2h44.66zm-108-38H727.7v37.18h-2V238h44.67z" fill="#333"/><path d="M878.34 279h-2v-1.03h2zM737.72 260.33L726.68 279l-11.04-18.67 1.72-1.02 9.32 15.77L736 259.3z" fill="#333"/><use xlink:href="#i" transform="matrix(1,0,0,1,770.3480043718928,228.40809461805554) translate(0 16.626519097222225)"/><use xlink:href="#j" transform="matrix(1,0,0,1,770.3480043718928,228.40809461805554) translate(35.1291232638889 16.626519097222225)"/><path d="M699.1 478h1.86v2h-3.85V342.82h2zm98.9 0v2h-33.7v-2z" fill="#333"/><path d="M799 480h-1.03v-2H799zM709.15 359.67l-1.72 1.02-9.32-15.77-9.3 15.76-1.73-1.03L698.1 341z" fill="#333"/><use xlink:href="#i" transform="matrix(1,0,0,1,700.9579684721975,468.40809461805554) translate(0 16.626519097222225)"/><use xlink:href="#j" transform="matrix(1,0,0,1,700.9579684721975,468.40809461805554) translate(35.1291232638889 16.626519097222225)"/><path d="M656.47 440c0 11.05-8.96 20-20 20-11.05 0-20-8.95-20-20s8.95-20 20-20c11.04 0 20 8.95 20 20z" stroke="#333" stroke-width="2" fill="#fff"/><path d="M648.47 440c0 6.63-5.38 12-12 12-6.63 0-12-5.37-12-12s5.37-12 12-12c6.62 0 12 5.37 12 12z" stroke="#333" stroke-width="2"/><path d="M637.47 417.18h-2V382.5h2zm0-55.86h-2V342h2z" fill="#333"/><path d="M637.47 342.03h-2V341h2zM647.5 400.33L636.48 419l-11.05-18.67 1.73-1.02 9.32 15.77 9.32-15.76z" fill="#333"/><use xlink:href="#i" transform="matrix(1,0,0,1,604.8008642520404,361.32113441255245) translate(0 16.626519097222225)"/><use xlink:href="#j" transform="matrix(1,0,0,1,604.8008642520404,361.32113441255245) translate(35.1291232638889 16.626519097222225)"/><path d="M903.85 278v-38h62.47v37.18" stroke="#333" stroke-width="2" fill="none"/><path d="M904.85 279h-2v-1.03h2z" fill="#333"/><path d="M956.14 259.82l10.18 17.22 10.2-17.22" stroke="#333" stroke-width="2" fill="none"/><use xlink:href="#k" transform="matrix(1,0,0,1,884.5963585565332,217.33333333333331) translate(0 12.444444444444446)"/><use xlink:href="#l" transform="matrix(1,0,0,1,884.5963585565332,217.33333333333331) translate(56.90740740740741 12.444444444444446)"/><path d="M620.97 278v-39h39.12v38.18" stroke="#333" stroke-width="2" fill="none"/><path d="M621.97 279h-2v-1.03h2z" fill="#333"/><path d="M649.9 259.82l10.2 17.22 10.17-17.22" stroke="#333" stroke-width="2" fill="none"/><g><use xlink:href="#k" transform="matrix(1,0,0,1,593.5185069480559,216.33333333333331) translate(0 12.444444444444446)"/><use xlink:href="#m" transform="matrix(1,0,0,1,593.5185069480559,216.33333333333331) translate(56.90740740740741 12.444444444444446)"/></g><path d="M998.12 300H1080v40h-81.88z" fill="none"/><g><use xlink:href="#n" transform="matrix(1,0,0,1,998.1235266945394,300) translate(20.647135416666668 29.676432291666664)"/><use xlink:href="#o" transform="matrix(1,0,0,1,998.1235266945394,300) translate(19.318684895833336 47.652408854166666)"/></g><defs><path fill="#666" d="M584-1331c-162 0-287 69-287 219 0 118 43 164 123 214 44 28 112 56 203 89 153 55 259 113 317 176s86 144 86 244c-1 276-228 409-520 409-173 0-307-22-400-67v-164c109 46 257 81 406 82 199 1 342-68 342-244 0-120-47-164-132-214-47-28-121-58-218-93-136-49-234-106-292-173s-87-154-87-261c-1-239 209-369 463-369 145 0 279 27 401 80l-53 148c-121-51-238-76-352-76" id="p"/><path fill="#666" d="M287-543c-1 247 91 418 323 418 91 0 185-20 281-59v147C818 1 725 20 614 20c-329 0-499-221-499-561 0-349 172-575 510-575 96 0 221 26 282 57l-51 141c-61-25-157-50-235-51-223 0-334 142-334 426" id="q"/><path fill="#666" d="M995-51C878-2 799 19 639 20c-329 2-524-221-524-559 0-326 172-577 481-577 278 0 451 210 446 493v105H287c4 242 121 392 358 393 118 0 235-25 350-74v148zM864-653c2-195-85-324-270-324-190 0-288 139-303 324h573" id="r"/><path fill="#666" d="M694-1116c270 0 399 125 398 401V0H926v-709c-1-177-76-266-252-266-250 0-332 133-332 400V0H176v-1096h135l27 150h8c62-101 190-170 348-170" id="s"/><g id="a"><use transform="matrix(0.007161458333333333,0,0,0.007161458333333333,0,0)" xlink:href="#p"/><use transform="matrix(0.007161458333333333,0,0,0.007161458333333333,8.049479166666666,0)" xlink:href="#q"/><use transform="matrix(0.007161458333333333,0,0,0.007161458333333333,15.031901041666666,0)" xlink:href="#r"/><use transform="matrix(0.007161458333333333,0,0,0.007161458333333333,23.260416666666664,0)" xlink:href="#s"/><use transform="matrix(0.007161458333333333,0,0,0.007161458333333333,32.262369791666664,0)" xlink:href="#r"/></g><path fill="#666" d="M502-977c-130 0-238 32-238 139 0 75 39 101 95 134 33 19 97 46 192 81 130 48 217 95 263 143s69 108 69 181C883-73 695 20 449 20 304 20 190-3 109-49v-154c91 47 216 86 344 86 149 0 270-36 270-168 0-43-21-76-55-109-56-55-367-158-434-208-74-55-128-109-128-225 0-327 490-342 754-217l-59 135c-110-45-210-68-299-68" id="t"/><path fill="#666" d="M342 0H176v-1556h166V0" id="u"/><path fill="#666" d="M354-322c-2 123 60 204 176 205 51 1 114-10 150-20v127C647 7 557 20 506 20 294 20 188-92 188-315v-652H31v-80l157-69 70-234h96v254h318v129H354v645" id="v"/><path fill="#666" d="M115-545c0-330 146-571 454-571 149 0 263 54 342 162h13c-20-185-8-401-11-602h166V0H944l-22-147h-9C836-36 722 20 569 20c-309 0-454-234-454-565zm172 2c0 249 78 424 303 424 257 0 327-150 323-426-4-282-68-432-325-432-220 0-301 191-301 434" id="w"/><g id="b"><use transform="matrix(0.007161458333333333,0,0,0.007161458333333333,0,0)" xlink:href="#t"/><use transform="matrix(0.007161458333333333,0,0,0.007161458333333333,6.996744791666666,0)" xlink:href="#r"/><use transform="matrix(0.007161458333333333,0,0,0.007161458333333333,15.225260416666666,0)" xlink:href="#u"/><use transform="matrix(0.007161458333333333,0,0,0.007161458333333333,18.934895833333332,0)" xlink:href="#r"/><use transform="matrix(0.007161458333333333,0,0,0.007161458333333333,27.163411458333332,0)" xlink:href="#q"/><use transform="matrix(0.007161458333333333,0,0,0.007161458333333333,34.14583333333333,0)" xlink:href="#v"/><use transform="matrix(0.007161458333333333,0,0,0.007161458333333333,39.32356770833333,0)" xlink:href="#r"/><use transform="matrix(0.007161458333333333,0,0,0.007161458333333333,47.55208333333333,0)" xlink:href="#w"/></g><path fill="#333" d="M1458 0c3-430-10-709 15-1145h-9L1087 0H803L451-1147h-9c31 483 15 690 19 1147H184v-1462h422L952-344h6l367-1118h422V0h-289" id="x"/><path fill="#333" d="M836-686c0-141-77-236-213-236-140 0-206 98-215 236h428zm223 627C946-4 838 19 666 20 308 22 92-191 92-551c0-356 187-588 529-588 314 0 504 195 501 508v148H401c5 169 104 277 279 276 158-2 261-33 379-88v236" id="y"/><path fill="#333" d="M795-1139c261-1 398 148 397 410V0H887v-653c-1-148-42-242-180-242-202 0-242 139-242 369V0H160v-1118h233l41 143h17c62-102 185-163 344-164" id="z"/><path fill="#333" d="M639-223c202 0 242-139 242-369v-526h305V0H952l-41-143h-16C834-43 709 20 551 20c-263 0-397-147-397-409v-729h305v653c1 148 42 242 180 242" id="A"/><path fill="#333" d="M596-1225c-134-8-223 103-163 219 11 21 33 41 61 60s93 53 196 102c137 65 230 130 281 196s76 147 76 242c-3 286-231 426-539 426C352 20 214-9 94-68v-288c159 68 260 115 438 120 123 3 211-41 211-155 0-73-44-105-95-141-63-46-329-160-390-220-78-77-147-167-147-315 0-273 208-420 495-416 177 2 298 46 434 103l-100 241c-131-51-199-78-344-86" id="B"/><path fill="#333" d="M498-350c-2 85 52 126 133 127 53 0 117-12 192-35v227C747 3 654 20 543 20c-247 0-350-124-350-370v-539H47v-129l168-102 88-236h195v238h313v229H498v539" id="C"/><path fill="#333" d="M618-1141c286 0 465 117 465 396V0H870l-59-152h-8C704-33 632 18 432 20 216 22 86-113 86-334c0-119 44-202 124-262 109-82 356-99 570-100 11-142-39-219-174-219-89 0-194 27-315 81l-101-206c129-67 271-101 428-101zm-71 938c137 0 235-88 233-223v-92c-190 3-382 4-381 186 0 86 49 129 148 129" id="D"/><g id="c"><use transform="matrix(0.010850694444444444,0,0,0.010850694444444444,0,0)" xlink:href="#x"/><use transform="matrix(0.010850694444444444,0,0,0.010850694444444444,20.95269097222222,0)" xlink:href="#y"/><use transform="matrix(0.010850694444444444,0,0,0.010850694444444444,34.08203125,0)" xlink:href="#z"/><use transform="matrix(0.010850694444444444,0,0,0.010850694444444444,48.68706597222222,0)" xlink:href="#A"/><use transform="matrix(0.010850694444444444,0,0,0.010850694444444444,63.29210069444444,0)" xlink:href="#B"/><use transform="matrix(0.010850694444444444,0,0,0.010850694444444444,75.53168402777777,0)" xlink:href="#C"/><use transform="matrix(0.010850694444444444,0,0,0.010850694444444444,85.17795138888889,0)" xlink:href="#D"/><use transform="matrix(0.010850694444444444,0,0,0.010850694444444444,98.60026041666666,0)" xlink:href="#C"/><use transform="matrix(0.010850694444444444,0,0,0.010850694444444444,108.24652777777777,0)" xlink:href="#y"/></g><path fill="#333" d="M438-727c0 290 111 485 381 489 65 0 130-7 197-20v-305H739v-258h580v758c-169 55-315 82-520 83-455 2-680-287-680-753 0-470 293-750 764-750 150 0 295 30 434 90l-103 248c-107-53-218-80-333-80-276-2-443 212-443 498" id="E"/><path fill="#333" d="M1384-895c-176 0-222 133-223 334V0H856v-653c-1-144-37-242-168-242-78 0-135 29-170 86s-53 152-53 283V0H160v-1118h233l41 143h17c56-98 174-164 325-164 167 0 281 55 340 164h27c55-99 179-165 330-164 265 2 385 133 385 410V0h-306v-653c-1-144-37-242-168-242" id="F"/><g id="d"><use transform="matrix(0.010850694444444444,0,0,0.010850694444444444,0,0)" xlink:href="#E"/><use transform="matrix(0.010850694444444444,0,0,0.010850694444444444,16.09157986111111,0)" xlink:href="#D"/><use transform="matrix(0.010850694444444444,0,0,0.010850694444444444,29.51388888888889,0)" xlink:href="#F"/><use transform="matrix(0.010850694444444444,0,0,0.010850694444444444,51.334635416666664,0)" xlink:href="#y"/><use transform="matrix(0.010850694444444444,0,0,0.010850694444444444,64.46397569444444,0)" xlink:href="#B"/><use transform="matrix(0.010850694444444444,0,0,0.010850694444444444,76.70355902777777,0)" xlink:href="#C"/><use transform="matrix(0.010850694444444444,0,0,0.010850694444444444,86.34982638888889,0)" xlink:href="#D"/><use transform="matrix(0.010850694444444444,0,0,0.010850694444444444,99.77213541666666,0)" xlink:href="#C"/><use transform="matrix(0.010850694444444444,0,0,0.010850694444444444,109.41840277777777,0)" xlink:href="#y"/></g><path fill="#333" d="M1382 0h-309v-631H494V0H184v-1462h310v573h579v-573h309V0" id="G"/><path fill="#333" d="M479-1407c-1 99-61 150-166 150-111 0-166-50-166-150 0-99 55-149 166-149s166 50 166 149zM465 0H160v-1118h305V0" id="H"/><path fill="#333" d="M549-1139c43 0 163 15 194 21h390v155l-175 45c32 50 48 106 48 168 2 289-261 415-574 373-89 78-53 146 121 146h190c229-1 375 93 377 311 0 131-55 232-164 304S691 492 487 492c-156 0-275-28-357-82S6 280 6 182C6 26 113-51 254-84c-55-22-119-89-117-162 3-107 68-140 144-190C169-483 89-600 90-756c1-259 185-383 459-383zM467 14c-100-2-199 51-197 144 3 184 368 146 487 90 62-30 93-71 93-123 0-42-19-70-55-87-64-30-222-23-328-24zm82-569c118 0 165-80 166-197 0-135-55-202-166-202-112 0-168 67-168 202 0 117 52 197 168 197" id="I"/><path fill="#333" d="M791-1139c262-1 402 148 401 410V0H887v-653c0-161-60-242-180-242-201 0-242 142-242 369V0H160v-1556h305c-1 210 6 368-14 581h16c68-109 176-164 324-164" id="J"/><path fill="#333" d="M836-831c-99-39-182-77-306-82-139-6-173 83-92 144 51 39 327 139 383 188 71 62 119 126 119 249C940-74 747 21 463 20 305 20 202 0 94-45v-252c93 45 253 94 379 94 111 0 166-32 166-96 0-68-41-76-98-109-79-46-276-119-333-167-74-61-116-125-116-252 0-368 555-367 836-224" id="K"/><path fill="#333" d="M954-63C853 0 774 20 614 20 266 20 92-171 92-553c0-369 188-586 549-586 129 0 245 25 348 76l-90 236c-84-31-156-66-258-66-159 0-238 113-238 338 0 219 79 328 238 328 137 0 223-38 313-97v261" id="L"/><path fill="#333" d="M633-893c-183 0-230 133-230 332s48 336 232 336c183 0 229-137 229-336s-47-332-231-332zm4-246c347 5 535 225 539 578S978 25 631 20C283 15 96-208 92-561c-4-355 196-583 545-578" id="M"/><path fill="#333" d="M451-930c71-134 228-244 436-200l-23 286c-220-45-399 61-399 275V0H160v-1118h231l45 188h15" id="N"/><g id="e"><use transform="matrix(0.010850694444444444,0,0,0.010850694444444444,0,0)" xlink:href="#G"/><use transform="matrix(0.010850694444444444,0,0,0.010850694444444444,17.003038194444443,0)" xlink:href="#H"/><use transform="matrix(0.010850694444444444,0,0,0.010850694444444444,23.78472222222222,0)" xlink:href="#I"/><use transform="matrix(0.010850694444444444,0,0,0.010850694444444444,36.33897569444444,0)" xlink:href="#J"/><use transform="matrix(0.010850694444444444,0,0,0.010850694444444444,50.944010416666664,0)" xlink:href="#K"/><use transform="matrix(0.010850694444444444,0,0,0.010850694444444444,61.99001736111111,0)" xlink:href="#L"/><use transform="matrix(0.010850694444444444,0,0,0.010850694444444444,73.41579861111111,0)" xlink:href="#M"/><use transform="matrix(0.010850694444444444,0,0,0.010850694444444444,87.17447916666667,0)" xlink:href="#N"/><use transform="matrix(0.010850694444444444,0,0,0.010850694444444444,96.82074652777777,0)" xlink:href="#y"/><use transform="matrix(0.010850694444444444,0,0,0.010850694444444444,109.95008680555556,0)" xlink:href="#K"/></g><path fill="#333" d="M1026 0H184v-1462h842v254H494v321h495v254H494v377h532V0" id="O"/><path fill="#333" d="M92-557c0-327 132-582 430-582 141 0 248 55 322 164h10c-38-188-18-371-23-581h306V0H903l-59-145h-13C762-35 656 20 514 20 222 20 92-237 92-557zm309 4c0 190 54 330 220 330 191 0 231-123 231-332 0-214-44-336-236-336-161 0-215 151-215 338" id="P"/><g id="f"><use transform="matrix(0.010850694444444444,0,0,0.010850694444444444,0,0)" xlink:href="#O"/><use transform="matrix(0.010850694444444444,0,0,0.010850694444444444,12.445746527777777,0)" xlink:href="#z"/><use transform="matrix(0.010850694444444444,0,0,0.010850694444444444,27.05078125,0)" xlink:href="#P"/><use transform="matrix(0.010850694444444444,0,0,0.010850694444444444,41.11328125,0)" xlink:href="#E"/><use transform="matrix(0.010850694444444444,0,0,0.010850694444444444,57.20486111111112,0)" xlink:href="#D"/><use transform="matrix(0.010850694444444444,0,0,0.010850694444444444,70.62717013888889,0)" xlink:href="#F"/><use transform="matrix(0.010850694444444444,0,0,0.010850694444444444,92.44791666666666,0)" xlink:href="#y"/></g><path fill="#666" d="M1311 0h-170v-688H371V0H201v-1462h170v622h770v-622h170V0" id="Q"/><path fill="#666" d="M342 0H176v-1096h166V0zm-82-1282c-61 0-98-43-98-111 0-69 36-110 98-110 59 0 98 43 98 110s-39 111-98 111" id="R"/><path fill="#666" d="M125-741c0-247 161-377 414-375 57 0 109 7 155 20h379v105l-203 24c37 48 72 129 72 219 0 255-227 390-504 345-71 37-106 84-106 141 0 78 66 88 164 88h194c219-1 369 87 369 293 0 121-49 213-146 277s-239 96-426 96c-250 0-448-83-448-306C39 36 147-58 283-86c-52-23-102-79-99-152 4-104 57-143 133-192-107-42-192-164-192-311zM438-25c-143-1-242 70-239 209s131 181 290 181c139 0 242-21 309-63s101-98 101-169c0-147-88-158-262-158H438zm94-970c-158 0-243 88-243 250 0 153 93 233 246 233 162 0 243-79 243-236 0-165-82-247-246-247" id="S"/><path fill="#666" d="M690-1114c271 2 402 123 402 399V0H926v-709c-1-177-76-266-252-266-251 0-332 135-332 402V0H176v-1556h166c-4 200 8 426-8 612h10c61-100 187-171 346-170" id="T"/><path fill="#666" d="M621-1116c316 0 501 239 501 567 0 339-180 575-508 569S119-212 115-549c-4-339 178-567 506-567zm-5 141c-239 0-329 168-329 426 0 255 93 430 331 430s332-174 332-430-95-426-334-426" id="U"/><path fill="#666" d="M340-893c80-153 237-262 467-211l-23 154c-45-10-85-15-120-15-184-3-322 182-322 377V0H176v-1096h137l19 203h8" id="V"/><g id="g"><use transform="matrix(0.007595486111111112,0,0,0.007595486111111112,0,0)" xlink:href="#Q"/><use transform="matrix(0.007595486111111112,0,0,0.007595486111111112,11.47677951388889,0)" xlink:href="#R"/><use transform="matrix(0.007595486111111112,0,0,0.007595486111111112,15.411241319444445,0)" xlink:href="#S"/><use transform="matrix(0.007595486111111112,0,0,0.007595486111111112,23.933376736111114,0)" xlink:href="#T"/><use transform="matrix(0.007595486111111112,0,0,0.007595486111111112,33.480902777777786,0)" xlink:href="#t"/><use transform="matrix(0.007595486111111112,0,0,0.007595486111111112,40.90169270833334,0)" xlink:href="#q"/><use transform="matrix(0.007595486111111112,0,0,0.007595486111111112,48.30729166666668,0)" xlink:href="#U"/><use transform="matrix(0.007595486111111112,0,0,0.007595486111111112,57.70290798611112,0)" xlink:href="#V"/><use transform="matrix(0.007595486111111112,0,0,0.007595486111111112,63.74131944444445,0)" xlink:href="#r"/><use transform="matrix(0.007595486111111112,0,0,0.007595486111111112,72.46853298611113,0)" xlink:href="#t"/></g><g id="h"><use transform="matrix(0.007595486111111112,0,0,0.007595486111111112,0,0)" xlink:href="#t"/><use transform="matrix(0.007595486111111112,0,0,0.007595486111111112,7.420789930555556,0)" xlink:href="#r"/><use transform="matrix(0.007595486111111112,0,0,0.007595486111111112,16.148003472222225,0)" xlink:href="#u"/><use transform="matrix(0.007595486111111112,0,0,0.007595486111111112,20.082465277777782,0)" xlink:href="#r"/><use transform="matrix(0.007595486111111112,0,0,0.007595486111111112,28.80967881944445,0)" xlink:href="#q"/><use transform="matrix(0.007595486111111112,0,0,0.007595486111111112,36.215277777777786,0)" xlink:href="#v"/><use transform="matrix(0.007595486111111112,0,0,0.007595486111111112,41.70681423611112,0)" xlink:href="#r"/><use transform="matrix(0.007595486111111112,0,0,0.007595486111111112,50.434027777777786,0)" xlink:href="#w"/></g><path fill="#666" d="M801-1485c433 0 669 306 669 752 0 368-156 632-432 719l348 362h-247L854 18C372 45 125-259 125-735c0-456 232-750 676-750zm0 152c-345 0-496 236-496 600 0 367 148 604 494 604 348 0 491-235 491-604 0-366-143-600-489-600" id="W"/><path fill="#666" d="M563 20c-271 0-399-123-399-399v-717h168v711c1 177 76 266 252 266 250 0 331-135 331-401v-576h166V0H944l-24-147h-9C848-44 724 20 563 20" id="X"/><g id="i"><use transform="matrix(0.007595486111111112,0,0,0.007595486111111112,0,0)" xlink:href="#W"/><use transform="matrix(0.007595486111111112,0,0,0.007595486111111112,12.114800347222223,0)" xlink:href="#X"/><use transform="matrix(0.007595486111111112,0,0,0.007595486111111112,21.662326388888893,0)" xlink:href="#R"/><use transform="matrix(0.007595486111111112,0,0,0.007595486111111112,25.59678819444445,0)" xlink:href="#v"/></g><path fill="#666" d="M383 324C201 116 82-188 82-561c0-378 120-688 301-901h162c-172 227-289 529-289 899 0 361 122 665 287 887H383" id="Y"/><path fill="#666" d="M319-1462l-40 528H174l-41-528h186" id="Z"/><path fill="#666" d="M223-1462c182 213 301 524 301 901 0 373-119 679-301 885H63c166-222 287-526 287-887 0-369-117-672-289-899h162" id="aa"/><g id="j"><use transform="matrix(0.007595486111111112,0,0,0.007595486111111112,0,0)" xlink:href="#Y"/><use transform="matrix(0.007595486111111112,0,0,0.007595486111111112,4.602864583333334,0)" xlink:href="#Z"/><use transform="matrix(0.007595486111111112,0,0,0.007595486111111112,8.043619791666668,0)" xlink:href="#W"/><use transform="matrix(0.007595486111111112,0,0,0.007595486111111112,20.158420138888893,0)" xlink:href="#Z"/><use transform="matrix(0.007595486111111112,0,0,0.007595486111111112,23.599175347222225,0)" xlink:href="#aa"/></g><path fill="#666" d="M205 0l-28-72H64L36 0H1l101-248h38L239 0h-34zm-38-99l-47-123c-12 45-31 82-46 123h93" id="ab"/><path fill="#666" d="M114-163C36-179 61-72 57 0H25l-1-190h30c1 12-1 29 2 39 6-27 23-49 58-41v29" id="ac"/><path fill="#666" d="M100-194c62-1 85 37 85 99 1 63-27 99-86 99S16-35 15-95c0-66 28-99 85-99zM99-20c44 1 53-31 53-75 0-43-8-75-51-75s-53 32-53 75 10 74 51 75" id="ad"/><path fill="#666" d="M206 0h-36l-40-164L89 0H53L-1-190h32L70-26l43-164h34l41 164 42-164h31" id="ae"/><path fill="#666" d="M135-143c-3-34-86-38-87 0 15 53 115 12 119 90S17 21 10-45l28-5c4 36 97 45 98 0-10-56-113-15-118-90-4-57 82-63 122-42 12 7 21 19 24 35" id="af"/><path fill="#666" d="M68-38c1 34 0 65-14 84H32c9-13 17-26 17-46H33v-38h35" id="ag"/><g id="k"><use transform="matrix(0.04320987654320988,0,0,0.04320987654320988,0,0)" xlink:href="#ab"/><use transform="matrix(0.04320987654320988,0,0,0.04320987654320988,10.370370370370372,0)" xlink:href="#ac"/><use transform="matrix(0.04320987654320988,0,0,0.04320987654320988,15.512345679012347,0)" xlink:href="#ac"/><use transform="matrix(0.04320987654320988,0,0,0.04320987654320988,20.654320987654323,0)" xlink:href="#ad"/><use transform="matrix(0.04320987654320988,0,0,0.04320987654320988,29.296296296296298,0)" xlink:href="#ae"/><use transform="matrix(0.04320987654320988,0,0,0.04320987654320988,40.48765432098766,0)" xlink:href="#af"/><use transform="matrix(0.04320987654320988,0,0,0.04320987654320988,48.26543209876544,0)" xlink:href="#ag"/></g><path fill="#666" d="M185-189c-5-48-123-54-124 2 14 75 158 14 163 119 3 78-121 87-175 55-17-10-28-26-33-46l33-7c5 56 141 63 141-1 0-78-155-14-162-118-5-82 145-84 179-34 5 7 8 16 11 25" id="ah"/><path fill="#666" d="M115-194c55 1 70 41 70 98S169 2 115 4C84 4 66-9 55-30l1 105H24l-1-265h31l2 30c10-21 28-34 59-34zm-8 174c40 0 45-34 45-75s-6-73-45-74c-42 0-51 32-51 76 0 43 10 73 51 73" id="ai"/><path fill="#666" d="M141-36C126-15 110 5 73 4 37 3 15-17 15-53c-1-64 63-63 125-63 3-35-9-54-41-54-24 1-41 7-42 31l-33-3c5-37 33-52 76-52 45 0 72 20 72 64v82c-1 20 7 32 28 27v20c-31 9-61-2-59-35zM48-53c0 20 12 33 32 33 41-3 63-29 60-74-43 2-92-5-92 41" id="aj"/><path fill="#666" d="M96-169c-40 0-48 33-48 73s9 75 48 75c24 0 41-14 43-38l32 2c-6 37-31 61-74 61-59 0-76-41-82-99-10-93 101-131 147-64 4 7 5 14 7 22l-32 3c-4-21-16-35-41-35" id="ak"/><path fill="#666" d="M100-194c63 0 86 42 84 106H49c0 40 14 67 53 68 26 1 43-12 49-29l28 8c-11 28-37 45-77 45C44 4 14-33 15-96c1-61 26-98 85-98zm52 81c6-60-76-77-97-28-3 7-6 17-6 28h103" id="al"/><g id="l"><use transform="matrix(0.04320987654320988,0,0,0.04320987654320988,0,0)" xlink:href="#ah"/><use transform="matrix(0.04320987654320988,0,0,0.04320987654320988,10.370370370370372,0)" xlink:href="#ai"/><use transform="matrix(0.04320987654320988,0,0,0.04320987654320988,19.01234567901235,0)" xlink:href="#aj"/><use transform="matrix(0.04320987654320988,0,0,0.04320987654320988,27.654320987654323,0)" xlink:href="#ak"/><use transform="matrix(0.04320987654320988,0,0,0.04320987654320988,35.4320987654321,0)" xlink:href="#al"/></g><path fill="#666" d="M30 0v-248h187v28H63v79h144v27H63v87h162V0H30" id="am"/><path fill="#666" d="M117-194c89-4 53 116 60 194h-32v-121c0-31-8-49-39-48C34-167 62-67 57 0H25l-1-190h30c1 10-1 24 2 32 11-22 29-35 61-36" id="an"/><path fill="#666" d="M59-47c-2 24 18 29 38 22v24C64 9 27 4 27-40v-127H5v-23h24l9-43h21v43h35v23H59v120" id="ao"/><g id="m"><use transform="matrix(0.04320987654320988,0,0,0.04320987654320988,0,0)" xlink:href="#am"/><use transform="matrix(0.04320987654320988,0,0,0.04320987654320988,10.370370370370372,0)" xlink:href="#an"/><use transform="matrix(0.04320987654320988,0,0,0.04320987654320988,19.01234567901235,0)" xlink:href="#ao"/><use transform="matrix(0.04320987654320988,0,0,0.04320987654320988,23.333333333333336,0)" xlink:href="#al"/><use transform="matrix(0.04320987654320988,0,0,0.04320987654320988,31.97530864197531,0)" xlink:href="#ac"/></g><path fill="#666" d="M305-731c0 386 189 602 569 602 101 0 200-12 297-35v-450H844v-152h497v711c-160 50-302 75-514 75-450 0-708-292-702-751 7-475 281-752 758-752 156 0 301 29 436 86l-66 150c-132-56-259-84-381-84-359-3-567 235-567 600" id="ap"/><path fill="#666" d="M588-1114c260 0 384 106 385 366V0H850l-33-156h-8C708-34 639 17 442 20 231 23 94-94 94-303c0-221 177-337 531-348l186-6c11-203-40-320-233-320-91 0-195 28-310 84l-51-127c97-53 229-94 371-94zM268-301c-1 123 81 184 207 184 203 0 334-120 332-323v-99c-257 14-539-7-539 238" id="aq"/><path fill="#666" d="M1368-1116c259 2 372 131 371 401V0h-166v-713c0-168-66-262-230-262-221 0-303 131-303 363V0H874v-713c-1-169-66-262-231-262-235 0-301 142-301 400V0H176v-1096h135l27 150h8c56-99 174-170 324-170 171 0 283 62 336 186h8c60-108 189-187 354-186" id="ar"/><g id="n"><use transform="matrix(0.007161458333333333,0,0,0.007161458333333333,0,0)" xlink:href="#ap"/><use transform="matrix(0.007161458333333333,0,0,0.007161458333333333,10.677734375,0)" xlink:href="#aq"/><use transform="matrix(0.007161458333333333,0,0,0.007161458333333333,18.834635416666664,0)" xlink:href="#ar"/><use transform="matrix(0.007161458333333333,0,0,0.007161458333333333,32.477213541666664,0)" xlink:href="#r"/></g><path fill="#666" d="M1016 0H201v-1462h815v151H371v471h606v150H371v538h645V0" id="as"/><g id="o"><use transform="matrix(0.007161458333333333,0,0,0.007161458333333333,0,0)" xlink:href="#as"/><use transform="matrix(0.007161458333333333,0,0,0.007161458333333333,8.156901041666666,0)" xlink:href="#s"/><use transform="matrix(0.007161458333333333,0,0,0.007161458333333333,17.158854166666664,0)" xlink:href="#w"/><use transform="matrix(0.007161458333333333,0,0,0.007161458333333333,26.146484374999996,0)" xlink:href="#r"/><use transform="matrix(0.007161458333333333,0,0,0.007161458333333333,34.375,0)" xlink:href="#w"/></g></defs></g></svg>