<svg xmlns="http://www.w3.org/2000/svg" xmlns:xlink="http://www.w3.org/1999/xlink" xmlns:lucid="lucid" width="690" height="281"><g transform="translate(-480 -199)" lucid:page-tab-id="0_0"><path d="M0 0h1760v1360H0z" fill="#fff"/><path d="M540 310c0 11.05-8.95 20-20 20s-20-8.95-20-20 8.95-20 20-20 20 8.95 20 20z" stroke="#333"/><path d="M541.5 310h56.68" stroke="#333" stroke-width="2" fill="none"/><path d="M541.53 311h-1.15l.12-.98-.04-1.02h1.07z" fill="#333"/><path d="M580.82 320.18L598.04 310l-17.22-10.18" stroke="#333" stroke-width="2" fill="none"/><path d="M612 280c-6.63 0-12 5.37-12 12v36c0 6.63 5.37 12 12 12h126c6.63 0 12-5.37 12-12v-36c0-6.63-5.37-12-12-12z" stroke="#333" stroke-width="2" fill="#f9f8f8"/><use xlink:href="#a" transform="matrix(1,0,0,1,608,288) translate(6.3120659722222285 31.75217013888889)"/><path d="M812 280c-6.63 0-12 5.37-12 12v36c0 6.63 5.37 12 12 12h126c6.63 0 12-5.37 12-12v-36c0-6.63-5.37-12-12-12z" stroke="#333" stroke-width="2" fill="#f9f8f8"/><use xlink:href="#b" transform="matrix(1,0,0,1,808,288) translate(5.7261284722222285 31.75217013888889)"/><path d="M812 400c-6.63 0-12 5.37-12 12v36c0 6.63 5.37 12 12 12h126c6.63 0 12-5.37 12-12v-36c0-6.63-5.37-12-12-12z" stroke="#333" stroke-width="2" fill="#f9f8f8"/><use xlink:href="#c" transform="matrix(1,0,0,1,808,408) translate(6.501953125000007 31.75217013888889)"/><path d="M1012 280c-6.63 0-12 5.37-12 12v36c0 6.63 5.37 12 12 12h126c6.63 0 12-5.37 12-12v-36c0-6.63-5.37-12-12-12z" stroke="#333" stroke-width="2" fill="#f9f8f8"/><use xlink:href="#d" transform="matrix(1,0,0,1,1008,288) translate(14.211371527777786 31.75217013888889)"/><path d="M752 310h45.18" stroke="#333" stroke-width="2" fill="none"/><path d="M752.03 311H751v-2h1.03z" fill="#333"/><path d="M779.82 320.18L797.04 310l-17.22-10.18M724.67 342v28H875v27.18" stroke="#333" stroke-width="2" fill="none"/><path d="M725.67 342.03h-2V341h2z" fill="#333"/><path d="M864.82 379.82L875 397.04l10.18-17.22M952 310h45.18" stroke="#333" stroke-width="2" fill="none"/><path d="M952.03 311H951v-2h1.03z" fill="#333"/><path d="M979.82 320.18L997.04 310l-17.22-10.18M1076.26 278v-68H656.63v67.18" stroke="#333" stroke-width="2" fill="none"/><path d="M1077.26 279h-2v-1.03h2z" fill="#333"/><path d="M646.45 259.82l10.18 17.22 10.18-17.22M875.24 278v-39H701.1v38.18" stroke="#333" stroke-width="2" fill="none"/><path d="M876.24 279h-2v-1.03h2z" fill="#333"/><path d="M690.9 259.82l10.2 17.22 10.17-17.22M798 430h-99.9v-87.18" stroke="#333" stroke-width="2" fill="none"/><path d="M799 431h-1.03v-2H799z" fill="#333"/><path d="M708.3 360.18l-10.2-17.22-10.17 17.22" stroke="#333" stroke-width="2" fill="none"/><path d="M656.47 440c0 11.05-8.96 20-20 20-11.05 0-20-8.95-20-20s8.95-20 20-20c11.04 0 20 8.95 20 20z" stroke="#333" stroke-width="2" fill="#fff"/><path d="M648.47 440c0 6.63-5.38 12-12 12-6.63 0-12-5.37-12-12s5.37-12 12-12c6.62 0 12 5.37 12 12z" stroke="#333" stroke-width="2"/><path d="M636.47 342v75.18" stroke="#333" stroke-width="2" fill="none"/><path d="M637.47 342.03h-2V341h2z" fill="#333"/><path d="M626.3 399.82l10.17 17.2 10.18-17.2" stroke="#333" stroke-width="2" fill="none"/><defs><path fill="#333" d="M1458 0c3-430-10-709 15-1145h-9L1087 0H803L451-1147h-9c31 483 15 690 19 1147H184v-1462h422L952-344h6l367-1118h422V0h-289" id="e"/><path fill="#333" d="M836-686c0-141-77-236-213-236-140 0-206 98-215 236h428zm223 627C946-4 838 19 666 20 308 22 92-191 92-551c0-356 187-588 529-588 314 0 504 195 501 508v148H401c5 169 104 277 279 276 158-2 261-33 379-88v236" id="f"/><path fill="#333" d="M795-1139c261-1 398 148 397 410V0H887v-653c-1-148-42-242-180-242-202 0-242 139-242 369V0H160v-1118h233l41 143h17c62-102 185-163 344-164" id="g"/><path fill="#333" d="M639-223c202 0 242-139 242-369v-526h305V0H952l-41-143h-16C834-43 709 20 551 20c-263 0-397-147-397-409v-729h305v653c1 148 42 242 180 242" id="h"/><path fill="#333" d="M596-1225c-134-8-223 103-163 219 11 21 33 41 61 60s93 53 196 102c137 65 230 130 281 196s76 147 76 242c-3 286-231 426-539 426C352 20 214-9 94-68v-288c159 68 260 115 438 120 123 3 211-41 211-155 0-73-44-105-95-141-63-46-329-160-390-220-78-77-147-167-147-315 0-273 208-420 495-416 177 2 298 46 434 103l-100 241c-131-51-199-78-344-86" id="i"/><path fill="#333" d="M498-350c-2 85 52 126 133 127 53 0 117-12 192-35v227C747 3 654 20 543 20c-247 0-350-124-350-370v-539H47v-129l168-102 88-236h195v238h313v229H498v539" id="j"/><path fill="#333" d="M618-1141c286 0 465 117 465 396V0H870l-59-152h-8C704-33 632 18 432 20 216 22 86-113 86-334c0-119 44-202 124-262 109-82 356-99 570-100 11-142-39-219-174-219-89 0-194 27-315 81l-101-206c129-67 271-101 428-101zm-71 938c137 0 235-88 233-223v-92c-190 3-382 4-381 186 0 86 49 129 148 129" id="k"/><g id="a"><use transform="matrix(0.010850694444444444,0,0,0.010850694444444444,0,0)" xlink:href="#e"/><use transform="matrix(0.010850694444444444,0,0,0.010850694444444444,20.95269097222222,0)" xlink:href="#f"/><use transform="matrix(0.010850694444444444,0,0,0.010850694444444444,34.08203125,0)" xlink:href="#g"/><use transform="matrix(0.010850694444444444,0,0,0.010850694444444444,48.68706597222222,0)" xlink:href="#h"/><use transform="matrix(0.010850694444444444,0,0,0.010850694444444444,63.29210069444444,0)" xlink:href="#i"/><use transform="matrix(0.010850694444444444,0,0,0.010850694444444444,75.53168402777777,0)" xlink:href="#j"/><use transform="matrix(0.010850694444444444,0,0,0.010850694444444444,85.17795138888889,0)" xlink:href="#k"/><use transform="matrix(0.010850694444444444,0,0,0.010850694444444444,98.60026041666666,0)" xlink:href="#j"/><use transform="matrix(0.010850694444444444,0,0,0.010850694444444444,108.24652777777777,0)" xlink:href="#f"/></g><path fill="#333" d="M438-727c0 290 111 485 381 489 65 0 130-7 197-20v-305H739v-258h580v758c-169 55-315 82-520 83-455 2-680-287-680-753 0-470 293-750 764-750 150 0 295 30 434 90l-103 248c-107-53-218-80-333-80-276-2-443 212-443 498" id="l"/><path fill="#333" d="M1384-895c-176 0-222 133-223 334V0H856v-653c-1-144-37-242-168-242-78 0-135 29-170 86s-53 152-53 283V0H160v-1118h233l41 143h17c56-98 174-164 325-164 167 0 281 55 340 164h27c55-99 179-165 330-164 265 2 385 133 385 410V0h-306v-653c-1-144-37-242-168-242" id="m"/><g id="b"><use transform="matrix(0.010850694444444444,0,0,0.010850694444444444,0,0)" xlink:href="#l"/><use transform="matrix(0.010850694444444444,0,0,0.010850694444444444,16.09157986111111,0)" xlink:href="#k"/><use transform="matrix(0.010850694444444444,0,0,0.010850694444444444,29.51388888888889,0)" xlink:href="#m"/><use transform="matrix(0.010850694444444444,0,0,0.010850694444444444,51.334635416666664,0)" xlink:href="#f"/><use transform="matrix(0.010850694444444444,0,0,0.010850694444444444,64.46397569444444,0)" xlink:href="#i"/><use transform="matrix(0.010850694444444444,0,0,0.010850694444444444,76.70355902777777,0)" xlink:href="#j"/><use transform="matrix(0.010850694444444444,0,0,0.010850694444444444,86.34982638888889,0)" xlink:href="#k"/><use transform="matrix(0.010850694444444444,0,0,0.010850694444444444,99.77213541666666,0)" xlink:href="#j"/><use transform="matrix(0.010850694444444444,0,0,0.010850694444444444,109.41840277777777,0)" xlink:href="#f"/></g><path fill="#333" d="M1382 0h-309v-631H494V0H184v-1462h310v573h579v-573h309V0" id="n"/><path fill="#333" d="M479-1407c-1 99-61 150-166 150-111 0-166-50-166-150 0-99 55-149 166-149s166 50 166 149zM465 0H160v-1118h305V0" id="o"/><path fill="#333" d="M549-1139c43 0 163 15 194 21h390v155l-175 45c32 50 48 106 48 168 2 289-261 415-574 373-89 78-53 146 121 146h190c229-1 375 93 377 311 0 131-55 232-164 304S691 492 487 492c-156 0-275-28-357-82S6 280 6 182C6 26 113-51 254-84c-55-22-119-89-117-162 3-107 68-140 144-190C169-483 89-600 90-756c1-259 185-383 459-383zM467 14c-100-2-199 51-197 144 3 184 368 146 487 90 62-30 93-71 93-123 0-42-19-70-55-87-64-30-222-23-328-24zm82-569c118 0 165-80 166-197 0-135-55-202-166-202-112 0-168 67-168 202 0 117 52 197 168 197" id="p"/><path fill="#333" d="M791-1139c262-1 402 148 401 410V0H887v-653c0-161-60-242-180-242-201 0-242 142-242 369V0H160v-1556h305c-1 210 6 368-14 581h16c68-109 176-164 324-164" id="q"/><path fill="#333" d="M836-831c-99-39-182-77-306-82-139-6-173 83-92 144 51 39 327 139 383 188 71 62 119 126 119 249C940-74 747 21 463 20 305 20 202 0 94-45v-252c93 45 253 94 379 94 111 0 166-32 166-96 0-68-41-76-98-109-79-46-276-119-333-167-74-61-116-125-116-252 0-368 555-367 836-224" id="r"/><path fill="#333" d="M954-63C853 0 774 20 614 20 266 20 92-171 92-553c0-369 188-586 549-586 129 0 245 25 348 76l-90 236c-84-31-156-66-258-66-159 0-238 113-238 338 0 219 79 328 238 328 137 0 223-38 313-97v261" id="s"/><path fill="#333" d="M633-893c-183 0-230 133-230 332s48 336 232 336c183 0 229-137 229-336s-47-332-231-332zm4-246c347 5 535 225 539 578S978 25 631 20C283 15 96-208 92-561c-4-355 196-583 545-578" id="t"/><path fill="#333" d="M451-930c71-134 228-244 436-200l-23 286c-220-45-399 61-399 275V0H160v-1118h231l45 188h15" id="u"/><g id="c"><use transform="matrix(0.010850694444444444,0,0,0.010850694444444444,0,0)" xlink:href="#n"/><use transform="matrix(0.010850694444444444,0,0,0.010850694444444444,17.003038194444443,0)" xlink:href="#o"/><use transform="matrix(0.010850694444444444,0,0,0.010850694444444444,23.78472222222222,0)" xlink:href="#p"/><use transform="matrix(0.010850694444444444,0,0,0.010850694444444444,36.33897569444444,0)" xlink:href="#q"/><use transform="matrix(0.010850694444444444,0,0,0.010850694444444444,50.944010416666664,0)" xlink:href="#r"/><use transform="matrix(0.010850694444444444,0,0,0.010850694444444444,61.99001736111111,0)" xlink:href="#s"/><use transform="matrix(0.010850694444444444,0,0,0.010850694444444444,73.41579861111111,0)" xlink:href="#t"/><use transform="matrix(0.010850694444444444,0,0,0.010850694444444444,87.17447916666667,0)" xlink:href="#u"/><use transform="matrix(0.010850694444444444,0,0,0.010850694444444444,96.82074652777777,0)" xlink:href="#f"/><use transform="matrix(0.010850694444444444,0,0,0.010850694444444444,109.95008680555556,0)" xlink:href="#r"/></g><path fill="#333" d="M1026 0H184v-1462h842v254H494v321h495v254H494v377h532V0" id="v"/><path fill="#333" d="M92-557c0-327 132-582 430-582 141 0 248 55 322 164h10c-38-188-18-371-23-581h306V0H903l-59-145h-13C762-35 656 20 514 20 222 20 92-237 92-557zm309 4c0 190 54 330 220 330 191 0 231-123 231-332 0-214-44-336-236-336-161 0-215 151-215 338" id="w"/><g id="d"><use transform="matrix(0.010850694444444444,0,0,0.010850694444444444,0,0)" xlink:href="#v"/><use transform="matrix(0.010850694444444444,0,0,0.010850694444444444,12.445746527777777,0)" xlink:href="#g"/><use transform="matrix(0.010850694444444444,0,0,0.010850694444444444,27.05078125,0)" xlink:href="#w"/><use transform="matrix(0.010850694444444444,0,0,0.010850694444444444,41.11328125,0)" xlink:href="#l"/><use transform="matrix(0.010850694444444444,0,0,0.010850694444444444,57.20486111111112,0)" xlink:href="#k"/><use transform="matrix(0.010850694444444444,0,0,0.010850694444444444,70.62717013888889,0)" xlink:href="#m"/><use transform="matrix(0.010850694444444444,0,0,0.010850694444444444,92.44791666666666,0)" xlink:href="#f"/></g></defs></g></svg>