<svg xmlns="http://www.w3.org/2000/svg" xmlns:xlink="http://www.w3.org/1999/xlink" xmlns:lucid="lucid" width="1690" height="840.57"><g transform="translate(-60 -240)" lucid:page-tab-id="0_0"><path d="M0 0h1870.4v1323.2H0z" fill="#fff"/><path d="M992.55 620h240v60h-240z" fill="none"/><use xlink:href="#a" transform="matrix(1,0,0,1,992.5526409512606,620) translate(103.24074074074076 41.54444444444444)"/><path d="M1000 485c0-4.42 3.58-8 8-8h209.1c4.42 0 8 3.58 8 8v150c0 4.42-3.58 8-8 8H1008c-4.42 0-8-3.58-8-8z" stroke="#333" stroke-width="2" fill="#f9f8f8"/><path d="M1000 523.26h225.1M1000 569.53h225.1" stroke="#333" stroke-width="2" fill="none"/><use xlink:href="#b" transform="matrix(1,0,0,1,1008,485) translate(9.475911458333343 24.12087673611111)"/><use xlink:href="#c" transform="matrix(1,0,0,1,1012,577.5251736111111) translate(39.43750000000001 21.778808593749996)"/><use xlink:href="#d" transform="matrix(1,0,0,1,1012,577.5251736111111) translate(56.068359375 21.778808593749996)"/><use xlink:href="#c" transform="matrix(1,0,0,1,1012,577.5251736111111) translate(84.701171875 51.73876953125)"/><use xlink:href="#e" transform="matrix(1,0,0,1,1012,577.5251736111111) translate(101.33203125 51.73876953125)"/><path d="M1000 688c0-4.42 3.58-8 8-8h209.1c4.42 0 8 3.58 8 8v150c0 4.42-3.58 8-8 8H1008c-4.42 0-8-3.58-8-8z" stroke="#333" stroke-width="2" fill="#f9f8f8"/><path d="M1000 726.26h225.1M1000 772.53h225.1" stroke="#333" stroke-width="2" fill="none"/><use xlink:href="#f" transform="matrix(1,0,0,1,1008,688) translate(13.555772569444457 24.12087673611111)"/><use xlink:href="#c" transform="matrix(1,0,0,1,1012,780.5251736111111) translate(39.43750000000001 21.778808593749996)"/><use xlink:href="#d" transform="matrix(1,0,0,1,1012,780.5251736111111) translate(56.068359375 21.778808593749996)"/><use xlink:href="#c" transform="matrix(1,0,0,1,1012,780.5251736111111) translate(84.701171875 51.73876953125)"/><use xlink:href="#e" transform="matrix(1,0,0,1,1012,780.5251736111111) translate(101.33203125 51.73876953125)"/><path d="M1320 586.6c0-4.42 3.58-8 8-8h233.9c4.43 0 8 3.58 8 8v150c0 4.42-3.57 8-8 8H1328c-4.42 0-8-3.58-8-8z" stroke="#333" stroke-width="2" fill="#f9f8f8"/><path d="M1320 624.86h249.9M1320 671.13h249.9" stroke="#333" stroke-width="2" fill="none"/><use xlink:href="#g" transform="matrix(1,0,0,1,1328,586.5999999999999) translate(39.36870659722223 24.12087673611111)"/><use xlink:href="#h" transform="matrix(1,0,0,1,1328,586.5999999999999) translate(108.58528645833334 24.12087673611111)"/><use xlink:href="#i" transform="matrix(1,0,0,1,1332,632.8625868055555) translate(94.06553819444444 24.12087673611111)"/><use xlink:href="#j" transform="matrix(1,0,0,1,1332,632.8625868055555) translate(114.19357638888889 24.12087673611111)"/><use xlink:href="#k" transform="matrix(1,0,0,1,1332,679.125173611111) translate(53.69824218750001 21.778808593749996)"/><use xlink:href="#l" transform="matrix(1,0,0,1,1332,679.125173611111) translate(69.9091796875 21.778808593749996)"/><use xlink:href="#k" transform="matrix(1,0,0,1,1332,679.125173611111) translate(97.306640625 51.73876953125)"/><use xlink:href="#m" transform="matrix(1,0,0,1,1332,679.125173611111) translate(113.517578125 51.73876953125)"/><path d="M907.04 740.93h90.14" stroke="#333" stroke-width="2" fill="none"/><path d="M877.7 740.93l14.85-14.85 15.15 14.85-15.15 14.85z" stroke="#333" stroke-width="2" fill="#fff"/><path d="M979.82 751.1l17.22-10.17-17.22-10.18" stroke="#333" stroke-width="2" fill="none"/><use xlink:href="#n" transform="matrix(1,0,0,1,962.5650806189392,715.3299238266164) translate(0 14.4)"/><path d="M1477.5 519.2c0 4.43-3.57 8-8 8h-210.7l-14-18.7c-2.65-3.53-2.65-9.26 0-12.8l14-18.7h210.7c4.43 0 8 3.58 8 8z" stroke="#666" stroke-width="2" fill="#ccc"/><use xlink:href="#o" transform="matrix(1,-2.4492935982947064e-16,2.4492935982947064e-16,1,1249.393891935692,477.00000000000006) translate(15.400607638888914 34.120876736111114)"/><use xlink:href="#p" transform="matrix(1,-2.4492935982947064e-16,2.4492935982947064e-16,1,1249.393891935692,477.00000000000006) translate(120.6740451388889 34.120876736111114)"/><path d="M80 586.6c0-4.42 3.58-8 8-8h123.3l13.9 18.6c2.65 3.53 2.65 9.27 0 12.8l-13.9 18.6H88c-4.42 0-8-3.58-8-8z" stroke="#666" stroke-width="2" fill="#ccc"/><use xlink:href="#q" transform="matrix(1,0,0,1,80,578.5999999999999) translate(26.825954861111114 33.620876736111114)"/><path d="M1730 586.6c0-4.42-3.58-8-8-8h-117l-19.34 19.34c-3.13 3.13-3.13 8.2 0 11.32L1605 628.6h117c4.42 0 8-3.58 8-8z" stroke="#666" stroke-width="2" fill="#ccc"/><use xlink:href="#r" transform="matrix(1,0,0,1,1592.5,578.5999999999999) translate(22.5373263888889 33.620876736111114)"/><path d="M480 260h479.9l40.1 40.1v160.47H480z" stroke="#666" stroke-width="2" fill="#f9f8f8" fill-opacity=".43"/><path d="M959.9 260.95v39.16h39.15" stroke="#666" stroke-width="2" fill="#f9f8f8" fill-opacity=".43"/><use xlink:href="#s" transform="matrix(1,0,0,1,480,260) translate(18 32.039279513888886)"/><use xlink:href="#t" transform="matrix(1,0,0,1,480,260) translate(35.5 32.039279513888886)"/><use xlink:href="#u" transform="matrix(1,0,0,1,480,260) translate(71.72200520833333 32.039279513888886)"/><use xlink:href="#v" transform="matrix(1,0,0,1,480,260) translate(139.59266493055554 32.039279513888886)"/><use xlink:href="#w" transform="matrix(1,0,0,1,480,260) translate(226.0147569444444 32.039279513888886)"/><use xlink:href="#x" transform="matrix(1,0,0,1,480,260) translate(272.93164062499994 32.039279513888886)"/><use xlink:href="#y" transform="matrix(1,0,0,1,480,260) translate(295.1043836805555 32.039279513888886)"/><use xlink:href="#z" transform="matrix(1,0,0,1,480,260) translate(327.6783854166666 32.039279513888886)"/><use xlink:href="#A" transform="matrix(1,0,0,1,480,260) translate(400.56727430555543 32.039279513888886)"/><use xlink:href="#B" transform="matrix(1,0,0,1,480,260) translate(18 54.85333767361112)"/><use xlink:href="#C" transform="matrix(1,0,0,1,480,260) translate(18 76.64240017361112)"/><use xlink:href="#D" transform="matrix(1,0,0,1,480,260) translate(103.00868055555557 76.64240017361112)"/><use xlink:href="#E" transform="matrix(1,0,0,1,480,260) translate(142.66145833333334 76.64240017361112)"/><use xlink:href="#F" transform="matrix(1,0,0,1,480,260) translate(198.33854166666669 76.64240017361112)"/><use xlink:href="#G" transform="matrix(1,0,0,1,480,260) translate(18 98.43146267361112)"/><use xlink:href="#H" transform="matrix(1,0,0,1,480,260) translate(36.47222222222222 98.43146267361112)"/><use xlink:href="#I" transform="matrix(1,0,0,1,480,260) translate(51.611111111111114 98.43146267361112)"/><use xlink:href="#J" transform="matrix(1,0,0,1,480,260) translate(61.489583333333336 98.43146267361112)"/><use xlink:href="#K" transform="matrix(1,0,0,1,480,260) translate(242.73090277777777 98.43146267361112)"/><use xlink:href="#L" transform="matrix(1,0,0,1,480,260) translate(252.609375 98.43146267361112)"/><use xlink:href="#M" transform="matrix(1,0,0,1,480,260) translate(277.5572916666667 98.43146267361112)"/><use xlink:href="#N" transform="matrix(1,0,0,1,480,260) translate(36.01 120.22052517361112)"/><use xlink:href="#O" transform="matrix(1,0,0,1,480,260) translate(54.48222222222222 120.22052517361112)"/><use xlink:href="#P" transform="matrix(1,0,0,1,480,260) translate(36.01 142.00958767361112)"/><use xlink:href="#Q" transform="matrix(1,0,0,1,480,260) translate(54.48222222222222 142.00958767361112)"/><use xlink:href="#R" transform="matrix(1,0,0,1,480,260) translate(327.6072222222222 142.00958767361112)"/><use xlink:href="#S" transform="matrix(1,0,0,1,480,260) translate(338.2495833333333 142.00958767361112)"/><use xlink:href="#G" transform="matrix(1,0,0,1,480,260) translate(18 163.79865017361112)"/><use xlink:href="#T" transform="matrix(1,0,0,1,480,260) translate(36.47222222222222 163.79865017361112)"/><use xlink:href="#U" transform="matrix(1,0,0,1,480,260) translate(18 185.58771267361112)"/><path d="M604.7 688c0-4.42 3.6-8 8-8h254.6c4.4 0 8 3.58 8 8v144c0 4.42-3.6 8-8 8H612.7c-4.4 0-8-3.58-8-8z" stroke="#333" stroke-width="2" fill="#f9f8f8"/><path d="M604.7 726.26h270.6m-270.6 40.2h270.6" stroke="#333" stroke-width="2" fill="none"/><use xlink:href="#V" transform="matrix(1,0,0,1,612.7134973202091,688) translate(13.415798611111128 24.12087673611111)"/><g><use xlink:href="#W" transform="matrix(1,0,0,1,616.7134973202091,734.2625868055555) translate(0 19.39670138888889)"/><use xlink:href="#X" transform="matrix(1,0,0,1,616.7134973202091,734.2625868055555) translate(10.338541666666668 19.39670138888889)"/></g><g><use xlink:href="#Y" transform="matrix(1,0,0,1,616.7134973202091,774.47265625) translate(0 21.778808593749996)"/><use xlink:href="#Z" transform="matrix(1,0,0,1,616.7134973202091,774.47265625) translate(18.115234374999996 21.778808593749996)"/><use xlink:href="#aa" transform="matrix(1,0,0,1,616.7134973202091,774.47265625) translate(0 51.73876953125)"/><use xlink:href="#ab" transform="matrix(1,0,0,1,616.7134973202091,774.47265625) translate(16.630859374999996 51.73876953125)"/></g><path d="M240 586.6c0-4.42 3.58-8 8-8h242.85c4.42 0 8 3.58 8 8v152c0 4.42-3.58 8-8 8H248c-4.42 0-8-3.58-8-8z" stroke="#333" stroke-width="2" fill="#f9f8f8"/><path d="M240 624.86h258.85M240 665.06h258.85" stroke="#333" stroke-width="2" fill="none"/><g><use xlink:href="#ac" transform="matrix(1,0,0,1,248,586.5999999999999) translate(25.493055555555557 24.12087673611111)"/></g><g><use xlink:href="#ad" transform="matrix(1,0,0,1,252,632.8625868055555) translate(0 19.39670138888889)"/><use xlink:href="#X" transform="matrix(1,0,0,1,252,632.8625868055555) translate(16.102430555555557 19.39670138888889)"/></g><g><use xlink:href="#ae" transform="matrix(1,0,0,1,252,673.0726562499999) translate(0 21.77880859375)"/><use xlink:href="#af" transform="matrix(1,0,0,1,252,673.0726562499999) translate(18.115234375 21.77880859375)"/><use xlink:href="#ag" transform="matrix(1,0,0,1,252,673.0726562499999) translate(0 59.73876953125)"/><use xlink:href="#ah" transform="matrix(1,0,0,1,252,673.0726562499999) translate(16.2109375 59.73876953125)"/></g><path d="M597.27 488c0-4.42 3.58-8 8-8h254.57c4.42 0 8 3.58 8 8v144c0 4.42-3.58 8-8 8H605.27c-4.42 0-8-3.58-8-8z" stroke="#333" stroke-width="2" fill="#f9f8f8"/><path d="M597.27 526.26h270.57m-270.57 40.2h270.57" stroke="#333" stroke-width="2" fill="none"/><g><use xlink:href="#ai" transform="matrix(1,0,0,1,605.2661382714697,488) translate(24.70594618055557 24.12087673611111)"/></g><g><use xlink:href="#Y" transform="matrix(1,0,0,1,609.2661382714697,574.47265625) translate(0 21.778808593749996)"/><use xlink:href="#Z" transform="matrix(1,0,0,1,609.2661382714697,574.47265625) translate(18.115234374999996 21.778808593749996)"/><use xlink:href="#aa" transform="matrix(1,0,0,1,609.2661382714697,574.47265625) translate(0 51.73876953125)"/><use xlink:href="#aj" transform="matrix(1,0,0,1,609.2661382714697,574.47265625) translate(16.630859374999996 51.73876953125)"/></g><path d="M899.6 534.48h97.58" stroke="#333" stroke-width="2" fill="none"/><path d="M870.25 534.48l14.85-14.85 15.15 14.85-15.15 14.85z" stroke="#333" stroke-width="2" fill="#fff"/><path d="M979.82 544.66l17.22-10.18-17.22-10.18" stroke="#333" stroke-width="2" fill="none"/><g><use xlink:href="#ak" transform="matrix(1,0,0,1,960.6573269021491,508.8769029814834) translate(0 14.4)"/></g><path d="M595.27 580.5H560V738.5h42.7" stroke="#333" stroke-width="2" fill="none"/><path d="M596.27 581.5h-1.03v-2h1.03zM603.7 739.52h-1v-2h1z" fill="#333"/><path d="M524.34 661.9l34.66-.28" stroke="#333" stroke-width="2" fill="none"/><path d="M501.82 662.06l21.42-12.9.2 25.46z" stroke="#333" stroke-width="2" fill="#fff"/><path d="M558.97 661.62H560M1227.1 739h32.9V580.5h-32.9" stroke="#333" stroke-width="2" fill="none"/><path d="M1227.13 740h-1.02v-2h1.03zM1227.13 581.5h-1.02v-2h1.03z" fill="#333"/><path d="M1294.52 656l-33.52.08" stroke="#333" stroke-width="2" fill="none"/><path d="M1317.04 655.95l-21.5 12.78-.05-25.45z" stroke="#333" stroke-width="2" fill="#fff"/><path d="M1261.03 656.08H1260" stroke="#333" stroke-width="2" fill="none"/><g><path d="M1477.5 832c0 4.42-3.57 8-8 8h-210.7l-14-18.7c-2.65-3.54-2.65-9.27 0-12.8l14-18.7h210.7c4.43 0 8 3.57 8 8z" stroke="#666" stroke-width="2" fill="#ccc"/></g><g><use xlink:href="#al" transform="matrix(1,-2.4492935982947064e-16,2.4492935982947064e-16,1,1249.393891935692,789.7907550285091) translate(15.400607638888914 34.120876736111114)"/><use xlink:href="#am" transform="matrix(1,-2.4492935982947064e-16,2.4492935982947064e-16,1,1249.393891935692,789.7907550285091) translate(120.6740451388889 34.120876736111114)"/></g><path d="M480 860h479.9l40.1 40.1v160.47H480z" stroke="#666" stroke-width="2" fill="#f9f8f8" fill-opacity=".43"/><path d="M959.9 860.95v39.16h39.15" stroke="#666" stroke-width="2" fill="#f9f8f8" fill-opacity=".43"/><g><use xlink:href="#s" transform="matrix(1,0,0,1,480,860) translate(18 32.039279513888886)"/><use xlink:href="#t" transform="matrix(1,0,0,1,480,860) translate(35.5 32.039279513888886)"/><use xlink:href="#u" transform="matrix(1,0,0,1,480,860) translate(71.72200520833333 32.039279513888886)"/><use xlink:href="#v" transform="matrix(1,0,0,1,480,860) translate(139.59266493055554 32.039279513888886)"/><use xlink:href="#w" transform="matrix(1,0,0,1,480,860) translate(226.0147569444444 32.039279513888886)"/><use xlink:href="#x" transform="matrix(1,0,0,1,480,860) translate(272.93164062499994 32.039279513888886)"/><use xlink:href="#y" transform="matrix(1,0,0,1,480,860) translate(295.1043836805555 32.039279513888886)"/><use xlink:href="#z" transform="matrix(1,0,0,1,480,860) translate(327.6783854166666 32.039279513888886)"/><use xlink:href="#A" transform="matrix(1,0,0,1,480,860) translate(400.56727430555543 32.039279513888886)"/><use xlink:href="#B" transform="matrix(1,0,0,1,480,860) translate(18 54.85333767361112)"/><use xlink:href="#C" transform="matrix(1,0,0,1,480,860) translate(18 76.64240017361112)"/><use xlink:href="#D" transform="matrix(1,0,0,1,480,860) translate(103.00868055555557 76.64240017361112)"/><use xlink:href="#E" transform="matrix(1,0,0,1,480,860) translate(142.66145833333334 76.64240017361112)"/><use xlink:href="#F" transform="matrix(1,0,0,1,480,860) translate(198.33854166666669 76.64240017361112)"/><use xlink:href="#G" transform="matrix(1,0,0,1,480,860) translate(18 98.43146267361112)"/><use xlink:href="#H" transform="matrix(1,0,0,1,480,860) translate(36.47222222222222 98.43146267361112)"/><use xlink:href="#I" transform="matrix(1,0,0,1,480,860) translate(51.611111111111114 98.43146267361112)"/><use xlink:href="#J" transform="matrix(1,0,0,1,480,860) translate(61.489583333333336 98.43146267361112)"/><use xlink:href="#K" transform="matrix(1,0,0,1,480,860) translate(242.73090277777777 98.43146267361112)"/><use xlink:href="#L" transform="matrix(1,0,0,1,480,860) translate(252.609375 98.43146267361112)"/><use xlink:href="#M" transform="matrix(1,0,0,1,480,860) translate(277.5572916666667 98.43146267361112)"/><use xlink:href="#N" transform="matrix(1,0,0,1,480,860) translate(36.01 120.22052517361112)"/><use xlink:href="#O" transform="matrix(1,0,0,1,480,860) translate(54.48222222222222 120.22052517361112)"/><use xlink:href="#P" transform="matrix(1,0,0,1,480,860) translate(36.01 142.00958767361112)"/><use xlink:href="#an" transform="matrix(1,0,0,1,480,860) translate(54.48222222222222 142.00958767361112)"/><use xlink:href="#R" transform="matrix(1,0,0,1,480,860) translate(345.67145833333336 142.00958767361112)"/><use xlink:href="#S" transform="matrix(1,0,0,1,480,860) translate(356.31381944444445 142.00958767361112)"/><use xlink:href="#G" transform="matrix(1,0,0,1,480,860) translate(18 163.79865017361112)"/><use xlink:href="#T" transform="matrix(1,0,0,1,480,860) translate(36.47222222222222 163.79865017361112)"/><use xlink:href="#U" transform="matrix(1,0,0,1,480,860) translate(18 185.58771267361112)"/></g><path d="M732.55 478v-15.43" stroke="#666" stroke-width="2" fill="none"/><path d="M733.55 479h-2v-1.03h2zM733.55 462.6h-2v-1.03h2z" fill="#666"/><path d="M740 842v16" stroke="#666" stroke-width="2" fill="none"/><path d="M741 842.03h-2V841h2zM741 859h-2v-1.03h2z" fill="#666"/><path d="M612.55 620h240v60h-240z" fill="none"/><g><use xlink:href="#ao" transform="matrix(1,0,0,1,612.5526409512606,620) translate(104.16666666666669 41.099999999999994)"/></g><defs><path d="M33 0v-38h34V0H33" id="ap"/><g id="a"><use transform="matrix(0.11172839506172826,0,0,0.11172839506172826,0,0)" xlink:href="#ap"/><use transform="matrix(0.11172839506172826,0,0,0.11172839506172826,11.172839506172826,0)" xlink:href="#ap"/><use transform="matrix(0.11172839506172826,0,0,0.11172839506172826,22.345679012345652,0)" xlink:href="#ap"/></g><path fill="#333" d="M1018-1462h313L834 0H496L0-1462h313l275 870c22 71 66 250 78 322 7-61 27-170 75-322" id="aq"/><path fill="#333" d="M479-1407c-1 99-61 150-166 150-111 0-166-50-166-150 0-99 55-149 166-149s166 50 166 149zM465 0H160v-1118h305V0" id="ar"/><path fill="#333" d="M836-831c-99-39-182-77-306-82-139-6-173 83-92 144 51 39 327 139 383 188 71 62 119 126 119 249C940-74 747 21 463 20 305 20 202 0 94-45v-252c93 45 253 94 379 94 111 0 166-32 166-96 0-68-41-76-98-109-79-46-276-119-333-167-74-61-116-125-116-252 0-368 555-367 836-224" id="as"/><path fill="#333" d="M639-223c202 0 242-139 242-369v-526h305V0H952l-41-143h-16C834-43 709 20 551 20c-263 0-397-147-397-409v-729h305v653c1 148 42 242 180 242" id="at"/><path fill="#333" d="M618-1141c286 0 465 117 465 396V0H870l-59-152h-8C704-33 632 18 432 20 216 22 86-113 86-334c0-119 44-202 124-262 109-82 356-99 570-100 11-142-39-219-174-219-89 0-194 27-315 81l-101-206c129-67 271-101 428-101zm-71 938c137 0 235-88 233-223v-92c-190 3-382 4-381 186 0 86 49 129 148 129" id="au"/><path fill="#333" d="M465 0H160v-1556h305V0" id="av"/><path fill="#333" d="M1133-1128c-95-42-202-97-328-97-258 0-367 218-367 498 0 326 122 489 367 489 103 0 227-26 373-77v260C1058-5 924 20 776 20c-443 0-662-290-657-749 5-455 236-754 686-754 142 0 285 34 428 103" id="aw"/><path fill="#333" d="M451-930c71-134 228-244 436-200l-23 286c-220-45-399 61-399 275V0H160v-1118h231l45 188h15" id="ax"/><path fill="#333" d="M836-686c0-141-77-236-213-236-140 0-206 98-215 236h428zm223 627C946-4 838 19 666 20 308 22 92-191 92-551c0-356 187-588 529-588 314 0 504 195 501 508v148H401c5 169 104 277 279 276 158-2 261-33 379-88v236" id="ay"/><path fill="#333" d="M498-350c-2 85 52 126 133 127 53 0 117-12 192-35v227C747 3 654 20 543 20c-247 0-350-124-350-370v-539H47v-129l168-102 88-236h195v238h313v229H498v539" id="az"/><path fill="#333" d="M954-63C853 0 774 20 614 20 266 20 92-171 92-553c0-369 188-586 549-586 129 0 245 25 348 76l-90 236c-84-31-156-66-258-66-159 0-238 113-238 338 0 219 79 328 238 328 137 0 223-38 313-97v261" id="aA"/><path fill="#333" d="M633-893c-183 0-230 133-230 332s48 336 232 336c183 0 229-137 229-336s-47-332-231-332zm4-246c347 5 535 225 539 578S978 25 631 20C283 15 96-208 92-561c-4-355 196-583 545-578" id="aB"/><g id="b"><use transform="matrix(0.010850694444444444,0,0,0.010850694444444444,0,0)" xlink:href="#aq"/><use transform="matrix(0.010850694444444444,0,0,0.010850694444444444,14.442274305555555,0)" xlink:href="#ar"/><use transform="matrix(0.010850694444444444,0,0,0.010850694444444444,21.223958333333332,0)" xlink:href="#as"/><use transform="matrix(0.010850694444444444,0,0,0.010850694444444444,32.26996527777778,0)" xlink:href="#at"/><use transform="matrix(0.010850694444444444,0,0,0.010850694444444444,46.875,0)" xlink:href="#au"/><use transform="matrix(0.010850694444444444,0,0,0.010850694444444444,60.29730902777778,0)" xlink:href="#av"/><use transform="matrix(0.010850694444444444,0,0,0.010850694444444444,67.07899305555556,0)" xlink:href="#aw"/><use transform="matrix(0.010850694444444444,0,0,0.010850694444444444,81.23914930555556,0)" xlink:href="#ax"/><use transform="matrix(0.010850694444444444,0,0,0.010850694444444444,90.88541666666666,0)" xlink:href="#ay"/><use transform="matrix(0.010850694444444444,0,0,0.010850694444444444,104.01475694444441,0)" xlink:href="#az"/><use transform="matrix(0.010850694444444444,0,0,0.010850694444444444,113.66102430555556,0)" xlink:href="#au"/><use transform="matrix(0.010850694444444444,0,0,0.010850694444444444,127.08333333333331,0)" xlink:href="#aA"/><use transform="matrix(0.010850694444444444,0,0,0.010850694444444444,138.50911458333331,0)" xlink:href="#ay"/><use transform="matrix(0.010850694444444444,0,0,0.010850694444444444,151.6384548611111,0)" xlink:href="#aB"/><use transform="matrix(0.010850694444444444,0,0,0.010850694444444444,165.39713541666663,0)" xlink:href="#at"/><use transform="matrix(0.010850694444444444,0,0,0.010850694444444444,180.00217013888883,0)" xlink:href="#as"/></g><path fill="#333" d="M653-791h412v138H653v426H514v-426H104v-138h410v-428h139v428" id="aC"/><use transform="matrix(0.009765624999999998,0,0,0.009765624999999998,0,0)" xlink:href="#aC" id="c"/><path fill="#333" d="M588-1114c260 0 384 106 385 366V0H850l-33-156h-8C708-34 639 17 442 20 231 23 94-94 94-303c0-221 177-337 531-348l186-6c11-203-40-320-233-320-91 0-195 28-310 84l-51-127c97-53 229-94 371-94zM268-301c-1 123 81 184 207 184 203 0 334-120 332-323v-99c-257 14-539-7-539 238" id="aD"/><path fill="#333" d="M694-1116c270 0 399 125 398 401V0H926v-709c-1-177-76-266-252-266-250 0-332 133-332 400V0H176v-1096h135l27 150h8c62-101 190-170 348-170" id="aE"/><path fill="#333" d="M342 0H176v-1096h166V0zm-82-1282c-61 0-98-43-98-111 0-69 36-110 98-110 59 0 98 43 98 110s-39 111-98 111" id="aF"/><path fill="#333" d="M1368-1116c259 2 372 131 371 401V0h-166v-713c0-168-66-262-230-262-221 0-303 131-303 363V0H874v-713c-1-169-66-262-231-262-235 0-301 142-301 400V0H176v-1096h135l27 150h8c56-99 174-170 324-170 171 0 283 62 336 186h8c60-108 189-187 354-186" id="aG"/><path fill="#333" d="M354-322c-2 123 60 204 176 205 51 1 114-10 150-20v127C647 7 557 20 506 20 294 20 188-92 188-315v-652H31v-80l157-69 70-234h96v254h318v129H354v645" id="aH"/><path fill="#333" d="M621-1116c316 0 501 239 501 567 0 339-180 575-508 569S119-212 115-549c-4-339 178-567 506-567zm-5 141c-239 0-329 168-329 426 0 255 93 430 331 430s332-174 332-430-95-426-334-426" id="aI"/><path fill="#333" d="M383 324C201 116 82-188 82-561c0-378 120-688 301-901h162c-172 227-289 529-289 899 0 361 122 665 287 887H383" id="aJ"/><path fill="#333" d="M223-1462c182 213 301 524 301 901 0 373-119 679-301 885H63c166-222 287-526 287-887 0-369-117-672-289-899h162" id="aK"/><g id="d"><use transform="matrix(0.009765624999999998,0,0,0.009765624999999998,0,0)" xlink:href="#aD"/><use transform="matrix(0.009765624999999998,0,0,0.009765624999999998,11.123046874999998,0)" xlink:href="#aE"/><use transform="matrix(0.009765624999999998,0,0,0.009765624999999998,23.398437499999996,0)" xlink:href="#aF"/><use transform="matrix(0.009765624999999998,0,0,0.009765624999999998,28.457031249999996,0)" xlink:href="#aG"/><use transform="matrix(0.009765624999999998,0,0,0.009765624999999998,47.06054687499999,0)" xlink:href="#aD"/><use transform="matrix(0.009765624999999998,0,0,0.009765624999999998,58.18359374999999,0)" xlink:href="#aH"/><use transform="matrix(0.009765624999999998,0,0,0.009765624999999998,65.24414062499999,0)" xlink:href="#aF"/><use transform="matrix(0.009765624999999998,0,0,0.009765624999999998,70.30273437499999,0)" xlink:href="#aI"/><use transform="matrix(0.009765624999999998,0,0,0.009765624999999998,82.38281249999999,0)" xlink:href="#aE"/><use transform="matrix(0.009765624999999998,0,0,0.009765624999999998,94.65820312499999,0)" xlink:href="#aJ"/><use transform="matrix(0.009765624999999998,0,0,0.009765624999999998,100.57617187499999,0)" xlink:href="#aK"/></g><path fill="#333" d="M270 29c-76 0-118-48-118-135 0-84 38-135 118-136 81 0 123 51 123 136 0 82-44 135-123 135" id="aL"/><g id="e"><use transform="matrix(0.009765624999999998,0,0,0.009765624999999998,0,0)" xlink:href="#aL"/><use transform="matrix(0.009765624999999998,0,0,0.009765624999999998,5.322265624999999,0)" xlink:href="#aL"/><use transform="matrix(0.009765624999999998,0,0,0.009765624999999998,10.644531249999998,0)" xlink:href="#aL"/></g><path fill="#333" d="M1382 0h-309v-631H494V0H184v-1462h310v573h579v-573h309V0" id="aM"/><path fill="#333" d="M782-1139c293 0 422 256 422 578 0 230-70 418-202 512-65 46-141 69-228 69-131 0-234-48-309-143h-16c32 222 9 383 16 615H160v-1610h248l43 145h14c71-111 177-166 317-166zm111 574c0-190-40-330-209-330-184 0-221 128-219 332 2 209 40 336 223 336 137 0 205-113 205-338" id="aN"/><g id="f"><use transform="matrix(0.010850694444444444,0,0,0.010850694444444444,0,0)" xlink:href="#aq"/><use transform="matrix(0.010850694444444444,0,0,0.010850694444444444,14.442274305555555,0)" xlink:href="#ar"/><use transform="matrix(0.010850694444444444,0,0,0.010850694444444444,21.223958333333332,0)" xlink:href="#as"/><use transform="matrix(0.010850694444444444,0,0,0.010850694444444444,32.26996527777778,0)" xlink:href="#at"/><use transform="matrix(0.010850694444444444,0,0,0.010850694444444444,46.875,0)" xlink:href="#au"/><use transform="matrix(0.010850694444444444,0,0,0.010850694444444444,60.29730902777778,0)" xlink:href="#av"/><use transform="matrix(0.010850694444444444,0,0,0.010850694444444444,67.07899305555556,0)" xlink:href="#aM"/><use transform="matrix(0.010850694444444444,0,0,0.010850694444444444,84.08203125,0)" xlink:href="#ay"/><use transform="matrix(0.010850694444444444,0,0,0.010850694444444444,97.21137152777777,0)" xlink:href="#av"/><use transform="matrix(0.010850694444444444,0,0,0.010850694444444444,103.99305555555556,0)" xlink:href="#ar"/><use transform="matrix(0.010850694444444444,0,0,0.010850694444444444,110.77473958333331,0)" xlink:href="#aA"/><use transform="matrix(0.010850694444444444,0,0,0.010850694444444444,122.20052083333331,0)" xlink:href="#aB"/><use transform="matrix(0.010850694444444444,0,0,0.010850694444444444,135.95920138888886,0)" xlink:href="#aN"/><use transform="matrix(0.010850694444444444,0,0,0.010850694444444444,150.02170138888886,0)" xlink:href="#az"/><use transform="matrix(0.010850694444444444,0,0,0.010850694444444444,159.66796874999997,0)" xlink:href="#ay"/><use transform="matrix(0.010850694444444444,0,0,0.010850694444444444,172.79730902777774,0)" xlink:href="#ax"/></g><path fill="#333" d="M535-299c52-147 90-241 110-283l432-880h316L645 0H311L184-1462h295c17 340 55 666 55 1013 0 69-3 119-6 150h7" id="aO"/><path fill="#333" d="M653-1436c0 110-63 179-180 179-101 0-151-41-151-123-1-116 67-176 182-176 90-1 149 36 149 120zM338 0H37l237-1118h301" id="aP"/><path fill="#333" d="M571-913c-68 0-126 31-127 94 0 26 11 49 32 69s62 43 120 74c135 72 233 138 233 307 0 264-195 391-471 389C215 19 118 3 23-45v-248c105 60 211 90 319 90 92 0 180-37 182-121 0-29-12-54-37-77s-69-50-131-86c-132-78-217-127-217-295 0-241 172-357 426-357 134 0 255 32 363 95l-99 215c-93-56-179-84-258-84" id="aQ"/><path fill="#333" d="M395 20c-191 0-285-123-284-321 0-62 7-133 24-213l127-604h301L426-465c-30 107-28 242 92 242 61 0 117-38 167-114 119-182 153-529 216-781h301L965 0H735l21-207h-6C653-56 535 20 395 20" id="aR"/><path fill="#333" d="M608-1139c139 1 230 65 277 164h8l57-143h232L944 0H715l14-145h-4C636-35 529 20 406 20 192 20 90-154 90-385c0-266 113-534 261-655 79-65 164-99 257-99zM395-399c-1 104 35 176 129 176 46 0 90-22 133-67 87-92 142-257 142-441 0-88-54-165-140-164-45 0-87 25-129 72-76 86-135 265-135 424" id="aS"/><path fill="#333" d="M338 0H37l330-1556h301" id="aT"/><g id="g"><use transform="matrix(0.010850694444444444,0,0,0.010850694444444444,0,0)" xlink:href="#aO"/><use transform="matrix(0.010850694444444444,0,0,0.010850694444444444,13.10763888888889,0)" xlink:href="#aP"/><use transform="matrix(0.010850694444444444,0,0,0.010850694444444444,19.70486111111111,0)" xlink:href="#aQ"/><use transform="matrix(0.010850694444444444,0,0,0.010850694444444444,30.219184027777775,0)" xlink:href="#aR"/><use transform="matrix(0.010850694444444444,0,0,0.010850694444444444,43.64149305555556,0)" xlink:href="#aS"/><use transform="matrix(0.010850694444444444,0,0,0.010850694444444444,56.84678819444444,0)" xlink:href="#aT"/></g><path fill="#333" d="M870 0H53l309-1462h818l-54 254H614l-67 321h477l-55 254H492l-80 377h512" id="aU"/><path fill="#333" d="M696-922c-135 0-247 148-268 275 117 3 222-12 286-49 57-33 87-76 87-131 0-63-35-95-105-95zM592-207c150-3 210-32 330-86v227C807-9 677 20 532 20 256 20 90-138 90-412c0-283 128-528 306-638 95-59 200-89 319-89 217 0 374 102 375 305 0 125-56 220-167 288-119 73-305 107-528 102-17 145 58 240 197 237" id="aV"/><path fill="#333" d="M1470-1139c255-9 308 252 256 502L1593 0h-301l138-653c29-101 29-242-82-242-61 0-116 37-166 112-119 179-154 531-215 783H666l137-653c29-101 29-242-82-242-61 0-117 38-167 114C435-599 401-252 338 0H37l237-1118h230l-21 207h6c97-152 216-228 355-228 146 0 233 76 262 228h6c76-122 186-222 358-228" id="aW"/><path fill="#333" d="M844-1139c190 0 291 125 289 322 0 49-8 109-23 180L977 0H676l137-653c30-107 28-242-92-242-61 0-117 38-167 114C435-599 401-252 338 0H37l237-1118h230l-21 207h6c97-152 216-228 355-228" id="aX"/><path fill="#333" d="M410 20c-192 0-289-73-291-258 0-33 3-71 12-112l115-539H94l29-147 196-84 132-236h194l-49 238h283l-50 229H547L432-350c-18 73-1 127 82 127 43 0 97-12 162-35v225C602 2 513 20 410 20" id="aY"/><g id="h"><use transform="matrix(0.010850694444444444,0,0,0.010850694444444444,0,0)" xlink:href="#aU"/><use transform="matrix(0.010850694444444444,0,0,0.010850694444444444,12.044270833333332,0)" xlink:href="#aT"/><use transform="matrix(0.010850694444444444,0,0,0.010850694444444444,18.641493055555554,0)" xlink:href="#aV"/><use transform="matrix(0.010850694444444444,0,0,0.010850694444444444,31.022135416666664,0)" xlink:href="#aW"/><use transform="matrix(0.010850694444444444,0,0,0.010850694444444444,51.12847222222221,0)" xlink:href="#aV"/><use transform="matrix(0.010850694444444444,0,0,0.010850694444444444,63.50911458333333,0)" xlink:href="#aX"/><use transform="matrix(0.010850694444444444,0,0,0.010850694444444444,76.9314236111111,0)" xlink:href="#aY"/></g><path fill="#333" d="M981-899l-66 340h283v129H891L807 0H670l84-430H451L369 0H233l80-430H51v-129h287l68-340H129v-127h299l82-436h139l-82 436h305l84-436h134l-84 436h264v127H981zM475-559h303l66-340H541" id="aZ"/><use transform="matrix(0.010850694444444444,0,0,0.010850694444444444,0,0)" xlink:href="#aZ" id="i"/><g id="j"><use transform="matrix(0.010850694444444444,0,0,0.010850694444444444,0,0)" xlink:href="#aL"/><use transform="matrix(0.010850694444444444,0,0,0.010850694444444444,5.913628472222222,0)" xlink:href="#aL"/><use transform="matrix(0.010850694444444444,0,0,0.010850694444444444,11.827256944444445,0)" xlink:href="#aL"/></g><path fill="#333" d="M516-651H127v-142h389v-391h141v391h390v142H657v387H516v-387" id="ba"/><use transform="matrix(0.009765624999999998,0,0,0.009765624999999998,0,0)" xlink:href="#ba" id="k"/><path fill="#333" d="M395 20C197 20 98-140 98-350c0-281 108-539 267-665 84-66 175-101 274-101 140 0 231 83 276 192h11l67-172h127L887 0H754l26-209h-8C653-56 527 20 395 20zM270-346c0 138 53 227 179 227 65 0 128-32 193-93 115-108 214-325 216-538 1-130-78-226-203-225-69 0-133 29-193 86-114 107-192 324-192 543" id="bb"/><path fill="#333" d="M791-1116c166-2 276 98 274 264 0 53-9 112-23 180L899 0H729l148-692c13-69 20-117 20-144-2-90-51-143-149-139-156 7-254 112-322 231C314-549 290-247 227 0H59l234-1096h139l-22 203h10c64-81 126-139 186-173s121-50 185-50" id="bc"/><path fill="#333" d="M227 0H59l234-1096h168zm205-1282c-54 0-92-37-92-94 0-71 46-128 115-127 59 0 88 30 88 90 0 66-50 132-111 131" id="bd"/><path fill="#333" d="M1503-838c-1-87-50-142-143-137-144 7-235 110-298 223-40 71-70 155-91 252L864 0H696l148-692c33-145 35-283-119-283-149 0-239 112-303 231C316-546 289-246 227 0H59l234-1096h139l-22 203h10c58-79 116-136 174-171s117-52 178-52c157 0 232 99 246 246h8c57-83 118-146 183-186s130-60 196-60c169 0 267 95 266 266 0 45-6 105-22 178L1505 0h-170l148-692c13-69 20-118 20-146" id="be"/><path fill="#333" d="M303-365c-31 124-35 248 92 248 37 0 85-9 144-26v129C505 2 421 20 375 20c-162 0-258-76-258-237 0-44 6-94 18-150l127-602H90l14-73 185-78 125-228h98l-55 252h274l-26 127H432" id="bf"/><path fill="#333" d="M508 16C253 16 98-150 98-406c0-259 115-505 270-614 84-58 174-90 275-90 253-2 410 166 410 422 0 258-113 503-267 613-83 59-175 91-278 91zM270-397c-1 168 83 278 246 274 171-4 265-133 316-281 31-90 47-192 47-307 0-147-88-262-232-258-174 5-277 132-329 279-32 88-48 186-48 293" id="bg"/><path fill="#333" d="M229 324C29-17 45-526 202-899c80-192 208-380 384-563h157c-164 180-284 371-371 570C211-523 205-34 360 324H229" id="bh"/><path fill="#333" d="M354-1462c198 345 182 854 24 1228C297-42 170 144-4 324h-156C171-43 336-439 336-864c0-227-38-427-113-598h131" id="bi"/><g id="l"><use transform="matrix(0.009765624999999998,0,0,0.009765624999999998,0,0)" xlink:href="#bb"/><use transform="matrix(0.009765624999999998,0,0,0.009765624999999998,11.298828124999998,0)" xlink:href="#bc"/><use transform="matrix(0.009765624999999998,0,0,0.009765624999999998,22.841796874999996,0)" xlink:href="#bd"/><use transform="matrix(0.009765624999999998,0,0,0.009765624999999998,27.919921874999996,0)" xlink:href="#be"/><use transform="matrix(0.009765624999999998,0,0,0.009765624999999998,45.36132812499999,0)" xlink:href="#bb"/><use transform="matrix(0.009765624999999998,0,0,0.009765624999999998,56.66015624999999,0)" xlink:href="#bf"/><use transform="matrix(0.009765624999999998,0,0,0.009765624999999998,63.144531249999986,0)" xlink:href="#bd"/><use transform="matrix(0.009765624999999998,0,0,0.009765624999999998,68.22265624999999,0)" xlink:href="#bg"/><use transform="matrix(0.009765624999999998,0,0,0.009765624999999998,79.44335937499999,0)" xlink:href="#bc"/><use transform="matrix(0.009765624999999998,0,0,0.009765624999999998,90.98632812499999,0)" xlink:href="#bh"/><use transform="matrix(0.009765624999999998,0,0,0.009765624999999998,96.68945312499999,0)" xlink:href="#bi"/></g><path fill="#333" d="M143 29C80 28 43-8 43-74c0-98 56-169 152-168 61 1 96 39 96 105 0 91-57 167-148 166" id="bj"/><g id="m"><use transform="matrix(0.009765624999999998,0,0,0.009765624999999998,0,0)" xlink:href="#bj"/><use transform="matrix(0.009765624999999998,0,0,0.009765624999999998,5.058593749999999,0)" xlink:href="#bj"/><use transform="matrix(0.009765624999999998,0,0,0.009765624999999998,10.117187499999998,0)" xlink:href="#bj"/></g><path d="M27 0v-27h64v-190l-56 39v-29l58-41h29v221h61V0H27" id="bk"/><use transform="matrix(0.05,0,0,0.05,0,0)" xlink:href="#bk" id="n"/><path fill="#666" d="M1133-1128c-95-42-202-97-328-97-258 0-367 218-367 498 0 326 122 489 367 489 103 0 227-26 373-77v260C1058-5 924 20 776 20c-443 0-662-290-657-749 5-455 236-754 686-754 142 0 285 34 428 103" id="bl"/><path fill="#666" d="M633-893c-183 0-230 133-230 332s48 336 232 336c183 0 229-137 229-336s-47-332-231-332zm4-246c347 5 535 225 539 578S978 25 631 20C283 15 96-208 92-561c-4-355 196-583 545-578" id="bm"/><path fill="#666" d="M795-1139c261-1 398 148 397 410V0H887v-653c-1-148-42-242-180-242-202 0-242 139-242 369V0H160v-1118h233l41 143h17c62-102 185-163 344-164" id="bn"/><path fill="#666" d="M954-63C853 0 774 20 614 20 266 20 92-171 92-553c0-369 188-586 549-586 129 0 245 25 348 76l-90 236c-84-31-156-66-258-66-159 0-238 113-238 338 0 219 79 328 238 328 137 0 223-38 313-97v261" id="bo"/><path fill="#666" d="M451-930c71-134 228-244 436-200l-23 286c-220-45-399 61-399 275V0H160v-1118h231l45 188h15" id="bp"/><path fill="#666" d="M836-686c0-141-77-236-213-236-140 0-206 98-215 236h428zm223 627C946-4 838 19 666 20 308 22 92-191 92-551c0-356 187-588 529-588 314 0 504 195 501 508v148H401c5 169 104 277 279 276 158-2 261-33 379-88v236" id="bq"/><path fill="#666" d="M498-350c-2 85 52 126 133 127 53 0 117-12 192-35v227C747 3 654 20 543 20c-247 0-350-124-350-370v-539H47v-129l168-102 88-236h195v238h313v229H498v539" id="br"/><g id="o"><use transform="matrix(0.010850694444444444,0,0,0.010850694444444444,0,0)" xlink:href="#bl"/><use transform="matrix(0.010850694444444444,0,0,0.010850694444444444,14.16015625,0)" xlink:href="#bm"/><use transform="matrix(0.010850694444444444,0,0,0.010850694444444444,27.91883680555556,0)" xlink:href="#bn"/><use transform="matrix(0.010850694444444444,0,0,0.010850694444444444,42.52387152777778,0)" xlink:href="#bo"/><use transform="matrix(0.010850694444444444,0,0,0.010850694444444444,53.94965277777778,0)" xlink:href="#bp"/><use transform="matrix(0.010850694444444444,0,0,0.010850694444444444,63.595920138888886,0)" xlink:href="#bq"/><use transform="matrix(0.010850694444444444,0,0,0.010850694444444444,76.72526041666666,0)" xlink:href="#br"/><use transform="matrix(0.010850694444444444,0,0,0.010850694444444444,86.37152777777777,0)" xlink:href="#bq"/></g><path fill="#666" d="M596-1225c-134-8-223 103-163 219 11 21 33 41 61 60s93 53 196 102c137 65 230 130 281 196s76 147 76 242c-3 286-231 426-539 426C352 20 214-9 94-68v-288c159 68 260 115 438 120 123 3 211-41 211-155 0-73-44-105-95-141-63-46-329-160-390-220-78-77-147-167-147-315 0-273 208-420 495-416 177 2 298 46 434 103l-100 241c-131-51-199-78-344-86" id="bs"/><path fill="#666" d="M618-1141c286 0 465 117 465 396V0H870l-59-152h-8C704-33 632 18 432 20 216 22 86-113 86-334c0-119 44-202 124-262 109-82 356-99 570-100 11-142-39-219-174-219-89 0-194 27-315 81l-101-206c129-67 271-101 428-101zm-71 938c137 0 235-88 233-223v-92c-190 3-382 4-381 186 0 86 49 129 148 129" id="bt"/><path fill="#666" d="M549-1139c43 0 163 15 194 21h390v155l-175 45c32 50 48 106 48 168 2 289-261 415-574 373-89 78-53 146 121 146h190c229-1 375 93 377 311 0 131-55 232-164 304S691 492 487 492c-156 0-275-28-357-82S6 280 6 182C6 26 113-51 254-84c-55-22-119-89-117-162 3-107 68-140 144-190C169-483 89-600 90-756c1-259 185-383 459-383zM467 14c-100-2-199 51-197 144 3 184 368 146 487 90 62-30 93-71 93-123 0-42-19-70-55-87-64-30-222-23-328-24zm82-569c118 0 165-80 166-197 0-135-55-202-166-202-112 0-168 67-168 202 0 117 52 197 168 197" id="bu"/><path fill="#666" d="M0-1118h334l211 629c18 55 30 119 37 194h6c7-69 23-133 43-194l207-629h327L692 143C611 389 392 544 70 475V233c95 21 196 18 262-37 50-42 89-123 112-204" id="bv"/><g id="p"><use transform="matrix(0.010850694444444444,0,0,0.010850694444444444,0,0)" xlink:href="#bs"/><use transform="matrix(0.010850694444444444,0,0,0.010850694444444444,12.239583333333332,0)" xlink:href="#br"/><use transform="matrix(0.010850694444444444,0,0,0.010850694444444444,21.885850694444443,0)" xlink:href="#bp"/><use transform="matrix(0.010850694444444444,0,0,0.010850694444444444,31.532118055555554,0)" xlink:href="#bt"/><use transform="matrix(0.010850694444444444,0,0,0.010850694444444444,44.95442708333333,0)" xlink:href="#br"/><use transform="matrix(0.010850694444444444,0,0,0.010850694444444444,54.60069444444444,0)" xlink:href="#bq"/><use transform="matrix(0.010850694444444444,0,0,0.010850694444444444,67.73003472222221,0)" xlink:href="#bu"/><use transform="matrix(0.010850694444444444,0,0,0.010850694444444444,80.28428819444443,0)" xlink:href="#bv"/></g><path fill="#666" d="M389-571L29-1118h346l217 356 219-356h346L793-571 1174 0H827L592-383 356 0H10" id="bw"/><g id="q"><use transform="matrix(0.010850694444444444,0,0,0.010850694444444444,0,0)" xlink:href="#bl"/><use transform="matrix(0.010850694444444444,0,0,0.010850694444444444,14.16015625,0)" xlink:href="#bm"/><use transform="matrix(0.010850694444444444,0,0,0.010850694444444444,27.91883680555556,0)" xlink:href="#bn"/><use transform="matrix(0.010850694444444444,0,0,0.010850694444444444,42.52387152777778,0)" xlink:href="#br"/><use transform="matrix(0.010850694444444444,0,0,0.010850694444444444,52.170138888888886,0)" xlink:href="#bq"/><use transform="matrix(0.010850694444444444,0,0,0.010850694444444444,64.85460069444444,0)" xlink:href="#bw"/><use transform="matrix(0.010850694444444444,0,0,0.010850694444444444,77.70182291666666,0)" xlink:href="#br"/></g><g id="r"><use transform="matrix(0.010850694444444444,0,0,0.010850694444444444,0,0)" xlink:href="#bs"/><use transform="matrix(0.010850694444444444,0,0,0.010850694444444444,12.239583333333332,0)" xlink:href="#br"/><use transform="matrix(0.010850694444444444,0,0,0.010850694444444444,21.885850694444443,0)" xlink:href="#bp"/><use transform="matrix(0.010850694444444444,0,0,0.010850694444444444,31.532118055555554,0)" xlink:href="#bt"/><use transform="matrix(0.010850694444444444,0,0,0.010850694444444444,44.95442708333333,0)" xlink:href="#br"/><use transform="matrix(0.010850694444444444,0,0,0.010850694444444444,54.60069444444444,0)" xlink:href="#bq"/><use transform="matrix(0.010850694444444444,0,0,0.010850694444444444,67.73003472222221,0)" xlink:href="#bu"/><use transform="matrix(0.010850694444444444,0,0,0.010850694444444444,80.28428819444443,0)" xlink:href="#bv"/></g><path fill="#090" d="M731-1462L186 0H20l545-1462h166" id="bx"/><g id="s"><use transform="matrix(0.008680555555555556,0,0,0.008680555555555556,0,0)" xlink:href="#bx"/><use transform="matrix(0.008680555555555556,0,0,0.008680555555555556,6.527777777777778,0)" xlink:href="#bx"/></g><path fill="#090" d="M651 0H481v-1311H18v-151h1096v151H651V0" id="by"/><path fill="#090" d="M690-1114c271 2 402 123 402 399V0H926v-709c-1-177-76-266-252-266-251 0-332 135-332 402V0H176v-1556h166c-4 200 8 426-8 612h10c61-100 187-171 346-170" id="bz"/><path fill="#090" d="M995-51C878-2 799 19 639 20c-329 2-524-221-524-559 0-326 172-577 481-577 278 0 451 210 446 493v105H287c4 242 121 392 358 393 118 0 235-25 350-74v148zM864-653c2-195-85-324-270-324-190 0-288 139-303 324h573" id="bA"/><g id="t"><use transform="matrix(0.008897569444444444,0,0,0.008897569444444444,0,0)" xlink:href="#by"/><use transform="matrix(0.008897569444444444,0,0,0.008897569444444444,10.080946180555555,0)" xlink:href="#bz"/><use transform="matrix(0.008897569444444444,0,0,0.008897569444444444,21.26519097222222,0)" xlink:href="#bA"/></g><path fill="#090" d="M287-543c-1 247 91 418 323 418 91 0 185-20 281-59v147C818 1 725 20 614 20c-329 0-499-221-499-561 0-349 172-575 510-575 96 0 221 26 282 57l-51 141c-61-25-157-50-235-51-223 0-334 142-334 426" id="bB"/><path fill="#090" d="M621-1116c316 0 501 239 501 567 0 339-180 575-508 569S119-212 115-549c-4-339 178-567 506-567zm-5 141c-239 0-329 168-329 426 0 255 93 430 331 430s332-174 332-430-95-426-334-426" id="bC"/><path fill="#090" d="M694-1116c270 0 399 125 398 401V0H926v-709c-1-177-76-266-252-266-250 0-332 133-332 400V0H176v-1096h135l27 150h8c62-101 190-170 348-170" id="bD"/><path fill="#090" d="M354-322c-2 123 60 204 176 205 51 1 114-10 150-20v127C647 7 557 20 506 20 294 20 188-92 188-315v-652H31v-80l157-69 70-234h96v254h318v129H354v645" id="bE"/><path fill="#090" d="M440-561L59-1096h189l289 420 288-420h187L631-561 1032 0H844L537-444 227 0H39" id="bF"/><g id="u"><use transform="matrix(0.008897569444444444,0,0,0.008897569444444444,0,0)" xlink:href="#bB"/><use transform="matrix(0.008897569444444444,0,0,0.008897569444444444,8.675130208333332,0)" xlink:href="#bC"/><use transform="matrix(0.008897569444444444,0,0,0.008897569444444444,19.681423611111107,0)" xlink:href="#bD"/><use transform="matrix(0.008897569444444444,0,0,0.008897569444444444,30.86566840277777,0)" xlink:href="#bE"/><use transform="matrix(0.008897569444444444,0,0,0.008897569444444444,37.29861111111111,0)" xlink:href="#bA"/><use transform="matrix(0.008897569444444444,0,0,0.008897569444444444,47.15711805555555,0)" xlink:href="#bF"/><use transform="matrix(0.008897569444444444,0,0,0.008897569444444444,56.70421006944444,0)" xlink:href="#bE"/></g><path fill="#090" d="M115-545c0-330 146-571 454-571 149 0 263 54 342 162h13c-20-185-8-401-11-602h166V0H944l-22-147h-9C836-36 722 20 569 20c-309 0-454-234-454-565zm172 2c0 249 78 424 303 424 257 0 327-150 323-426-4-282-68-432-325-432-220 0-301 191-301 434" id="bG"/><path fill="#090" d="M342 0H176v-1556h166V0" id="bH"/><path fill="#090" d="M125-741c0-247 161-377 414-375 57 0 109 7 155 20h379v105l-203 24c37 48 72 129 72 219 0 255-227 390-504 345-71 37-106 84-106 141 0 78 66 88 164 88h194c219-1 369 87 369 293 0 121-49 213-146 277s-239 96-426 96c-250 0-448-83-448-306C39 36 147-58 283-86c-52-23-102-79-99-152 4-104 57-143 133-192-107-42-192-164-192-311zM438-25c-143-1-242 70-239 209s131 181 290 181c139 0 242-21 309-63s101-98 101-169c0-147-88-158-262-158H438zm94-970c-158 0-243 88-243 250 0 153 93 233 246 233 162 0 243-79 243-236 0-165-82-247-246-247" id="bI"/><path fill="#090" d="M588-1114c260 0 384 106 385 366V0H850l-33-156h-8C708-34 639 17 442 20 231 23 94-94 94-303c0-221 177-337 531-348l186-6c11-203-40-320-233-320-91 0-195 28-310 84l-51-127c97-53 229-94 371-94zM268-301c-1 123 81 184 207 184 203 0 334-120 332-323v-99c-257 14-539-7-539 238" id="bJ"/><path fill="#090" d="M502-977c-130 0-238 32-238 139 0 75 39 101 95 134 33 19 97 46 192 81 130 48 217 95 263 143s69 108 69 181C883-73 695 20 449 20 304 20 190-3 109-49v-154c91 47 216 86 344 86 149 0 270-36 270-168 0-43-21-76-55-109-56-55-367-158-434-208-74-55-128-109-128-225 0-327 490-342 754-217l-59 135c-110-45-210-68-299-68" id="bK"/><g id="v"><use transform="matrix(0.008897569444444444,0,0,0.008897569444444444,0,0)" xlink:href="#bG"/><use transform="matrix(0.008897569444444444,0,0,0.008897569444444444,11.166449652777777,0)" xlink:href="#bA"/><use transform="matrix(0.008897569444444444,0,0,0.008897569444444444,21.389756944444443,0)" xlink:href="#bH"/><use transform="matrix(0.008897569444444444,0,0,0.008897569444444444,25.998697916666664,0)" xlink:href="#bA"/><use transform="matrix(0.008897569444444444,0,0,0.008897569444444444,36.22200520833333,0)" xlink:href="#bI"/><use transform="matrix(0.008897569444444444,0,0,0.008897569444444444,46.20507812499999,0)" xlink:href="#bJ"/><use transform="matrix(0.008897569444444444,0,0,0.008897569444444444,56.339409722222214,0)" xlink:href="#bE"/><use transform="matrix(0.008897569444444444,0,0,0.008897569444444444,62.77235243055555,0)" xlink:href="#bA"/><use transform="matrix(0.008897569444444444,0,0,0.008897569444444444,72.99565972222221,0)" xlink:href="#bK"/></g><path fill="#090" d="M1169-178c39-215 75-309 230-918h172L1268 0h-197c-99-332-184-548-272-911h-8C712-564 610-319 514 0H322L23-1096h174c71 275 124 485 161 629s59 241 64 291h8c76-328 186-611 279-920h180l196 629c37 115 63 211 76 289h8" id="bL"/><path fill="#090" d="M340-893c80-153 237-262 467-211l-23 154c-45-10-85-15-120-15-184-3-322 182-322 377V0H176v-1096h137l19 203h8" id="bM"/><path fill="#090" d="M340-561c134-179 332-366 485-535h197L578-629 1053 0H852L465-518 340-410V0H176v-1556h164c-4 336 9 669-8 995h8" id="bN"/><g id="w"><use transform="matrix(0.008897569444444444,0,0,0.008897569444444444,0,0)" xlink:href="#bL"/><use transform="matrix(0.008897569444444444,0,0,0.008897569444444444,14.173828125,0)" xlink:href="#bC"/><use transform="matrix(0.008897569444444444,0,0,0.008897569444444444,25.180121527777775,0)" xlink:href="#bM"/><use transform="matrix(0.008897569444444444,0,0,0.008897569444444444,32.618489583333336,0)" xlink:href="#bN"/></g><g id="x"><use transform="matrix(0.008897569444444444,0,0,0.008897569444444444,0,0)" xlink:href="#bE"/><use transform="matrix(0.008897569444444444,0,0,0.008897569444444444,6.432942708333333,0)" xlink:href="#bC"/></g><g id="y"><use transform="matrix(0.008897569444444444,0,0,0.008897569444444444,0,0)" xlink:href="#bE"/><use transform="matrix(0.008897569444444444,0,0,0.008897569444444444,6.432942708333333,0)" xlink:href="#bz"/><use transform="matrix(0.008897569444444444,0,0,0.008897569444444444,17.6171875,0)" xlink:href="#bA"/></g><path fill="#090" d="M526-162c88-293 120-356 326-934h178L559 152c-47 123-102 209-163 262-93 80-237 94-380 61V342c184 39 305-9 367-180L444 6 2-1096h178c103 283 263 645 338 934h8" id="bO"/><g id="z"><use transform="matrix(0.008897569444444444,0,0,0.008897569444444444,0,0)" xlink:href="#bK"/><use transform="matrix(0.008897569444444444,0,0,0.008897569444444444,8.692925347222221,0)" xlink:href="#bE"/><use transform="matrix(0.008897569444444444,0,0,0.008897569444444444,15.125868055555554,0)" xlink:href="#bM"/><use transform="matrix(0.008897569444444444,0,0,0.008897569444444444,22.199435763888882,0)" xlink:href="#bJ"/><use transform="matrix(0.008897569444444444,0,0,0.008897569444444444,32.33376736111111,0)" xlink:href="#bE"/><use transform="matrix(0.008897569444444444,0,0,0.008897569444444444,38.76671006944444,0)" xlink:href="#bA"/><use transform="matrix(0.008897569444444444,0,0,0.008897569444444444,48.99001736111111,0)" xlink:href="#bI"/><use transform="matrix(0.008897569444444444,0,0,0.008897569444444444,58.97309027777778,0)" xlink:href="#bO"/></g><path fill="#090" d="M686 20c-159 0-273-61-344-161h-12L295 0H176v-1556h166c-2 198 6 423-8 606h8c77-109 192-164 344-164 310 0 455 234 455 565 0 329-147 569-455 569zm283-571c0-257-72-424-307-424-256 0-320 146-320 426s68 430 324 430c228 0 303-184 303-432" id="bP"/><path fill="#090" d="M25 352c109-1 151-60 151-172v-1276h166V168c0 216-100 324-299 324-63 0-115-8-154-25V332c46 13 91 20 136 20zm235-1634c-61 0-98-43-98-111 0-69 36-110 98-110 59 0 98 43 98 110s-39 111-98 111" id="bQ"/><g id="A"><use transform="matrix(0.008897569444444444,0,0,0.008897569444444444,0,0)" xlink:href="#bC"/><use transform="matrix(0.008897569444444444,0,0,0.008897569444444444,11.006293402777777,0)" xlink:href="#bP"/><use transform="matrix(0.008897569444444444,0,0,0.008897569444444444,22.172743055555554,0)" xlink:href="#bQ"/><use transform="matrix(0.008897569444444444,0,0,0.008897569444444444,26.781684027777775,0)" xlink:href="#bA"/><use transform="matrix(0.008897569444444444,0,0,0.008897569444444444,37.00499131944444,0)" xlink:href="#bB"/><use transform="matrix(0.008897569444444444,0,0,0.008897569444444444,45.680121527777764,0)" xlink:href="#bE"/></g><path fill="#666" d="M1141-549c0 329-147 569-455 569-159 0-273-61-344-161h-12c23 199 7 418 12 633H176v-1588h135l23 150h8c77-108 175-170 344-170 311 0 455 237 455 567zm-172-2c0-242-88-424-307-424-256 0-323 154-320 426 3 280 68 430 324 430 213 0 303-196 303-432" id="bR"/><path fill="#666" d="M340-893c80-153 237-262 467-211l-23 154c-45-10-85-15-120-15-184-3-322 182-322 377V0H176v-1096h137l19 203h8" id="bS"/><path fill="#666" d="M621-1116c316 0 501 239 501 567 0 339-180 575-508 569S119-212 115-549c-4-339 178-567 506-567zm-5 141c-239 0-329 168-329 426 0 255 93 430 331 430s332-174 332-430-95-426-334-426" id="bT"/><path fill="#666" d="M354-322c-2 123 60 204 176 205 51 1 114-10 150-20v127C647 7 557 20 506 20 294 20 188-92 188-315v-652H31v-80l157-69 70-234h96v254h318v129H354v645" id="bU"/><path fill="#666" d="M995-51C878-2 799 19 639 20c-329 2-524-221-524-559 0-326 172-577 481-577 278 0 451 210 446 493v105H287c4 242 121 392 358 393 118 0 235-25 350-74v148zM864-653c2-195-85-324-270-324-190 0-288 139-303 324h573" id="bV"/><path fill="#666" d="M287-543c-1 247 91 418 323 418 91 0 185-20 281-59v147C818 1 725 20 614 20c-329 0-499-221-499-561 0-349 172-575 510-575 96 0 221 26 282 57l-51 141c-61-25-157-50-235-51-223 0-334 142-334 426" id="bW"/><path fill="#666" d="M115-545c0-330 146-571 454-571 149 0 263 54 342 162h13c-20-185-8-401-11-602h166V0H944l-22-147h-9C836-36 722 20 569 20c-309 0-454-234-454-565zm172 2c0 249 78 424 303 424 257 0 327-150 323-426-4-282-68-432-325-432-220 0-301 191-301 434" id="bX"/><g id="C"><use transform="matrix(0.008680555555555556,0,0,0.008680555555555556,0,0)" xlink:href="#bR"/><use transform="matrix(0.008680555555555556,0,0,0.008680555555555556,10.894097222222223,0)" xlink:href="#bS"/><use transform="matrix(0.008680555555555556,0,0,0.008680555555555556,17.79513888888889,0)" xlink:href="#bT"/><use transform="matrix(0.008680555555555556,0,0,0.008680555555555556,28.53298611111111,0)" xlink:href="#bU"/><use transform="matrix(0.008680555555555556,0,0,0.008680555555555556,34.80902777777778,0)" xlink:href="#bV"/><use transform="matrix(0.008680555555555556,0,0,0.008680555555555556,44.782986111111114,0)" xlink:href="#bW"/><use transform="matrix(0.008680555555555556,0,0,0.008680555555555556,53.246527777777786,0)" xlink:href="#bU"/><use transform="matrix(0.008680555555555556,0,0,0.008680555555555556,59.52256944444445,0)" xlink:href="#bV"/><use transform="matrix(0.008680555555555556,0,0,0.008680555555555556,69.49652777777779,0)" xlink:href="#bX"/></g><path fill="#666" d="M516-150c94-315 146-423 332-946h178L610 0H416L0-1096h178c98 281 253 670 330 946h8" id="bY"/><path fill="#666" d="M342 0H176v-1096h166V0zm-82-1282c-61 0-98-43-98-111 0-69 36-110 98-110 59 0 98 43 98 110s-39 111-98 111" id="bZ"/><g id="D"><use transform="matrix(0.008680555555555556,0,0,0.008680555555555556,0,0)" xlink:href="#bY"/><use transform="matrix(0.008680555555555556,0,0,0.008680555555555556,8.90625,0)" xlink:href="#bT"/><use transform="matrix(0.008680555555555556,0,0,0.008680555555555556,19.64409722222222,0)" xlink:href="#bZ"/><use transform="matrix(0.008680555555555556,0,0,0.008680555555555556,24.140625,0)" xlink:href="#bX"/></g><path fill="#666" d="M1368-1116c259 2 372 131 371 401V0h-166v-713c0-168-66-262-230-262-221 0-303 131-303 363V0H874v-713c-1-169-66-262-231-262-235 0-301 142-301 400V0H176v-1096h135l27 150h8c56-99 174-170 324-170 171 0 283 62 336 186h8c60-108 189-187 354-186" id="ca"/><path fill="#666" d="M383 324C201 116 82-188 82-561c0-378 120-688 301-901h162c-172 227-289 529-289 899 0 361 122 665 287 887H383" id="cb"/><g id="E"><use transform="matrix(0.008680555555555556,0,0,0.008680555555555556,0,0)" xlink:href="#ca"/><use transform="matrix(0.008680555555555556,0,0,0.008680555555555556,16.536458333333336,0)" xlink:href="#bT"/><use transform="matrix(0.008680555555555556,0,0,0.008680555555555556,26.91840277777778,0)" xlink:href="#bY"/><use transform="matrix(0.008680555555555556,0,0,0.008680555555555556,35.82465277777778,0)" xlink:href="#bV"/><use transform="matrix(0.008680555555555556,0,0,0.008680555555555556,45.798611111111114,0)" xlink:href="#cb"/></g><path fill="#666" d="M223-1462c182 213 301 524 301 901 0 373-119 679-301 885H63c166-222 287-526 287-887 0-369-117-672-289-899h162" id="cc"/><path fill="#666" d="M61-639c157-3 246-45 246-190v-306c-1-217 173-330 398-327v139c-153 4-230 70-230 199v295c0 143-74 228-223 254v12c149 26 223 111 223 254v297c0 143 86 192 230 196v140C472 324 307 219 307-2v-303c-1-147-95-191-246-193v-141" id="cd"/><g id="F"><use transform="matrix(0.008680555555555556,0,0,0.008680555555555556,0,0)" xlink:href="#cc"/><use transform="matrix(0.008680555555555556,0,0,0.008680555555555556,5.260416666666667,0)" xlink:href="#cd"/></g><path fill="#666" d="M575-1430c-169 0-190 146-184 334h279v129H391V0H225v-967H29v-75l196-60c-15-299 97-465 353-465 58 0 126 12 204 35l-43 133c-64-21-119-31-164-31" id="ce"/><g id="H"><use transform="matrix(0.008680555555555556,0,0,0.008680555555555556,0,0)" xlink:href="#bZ"/><use transform="matrix(0.008680555555555556,0,0,0.008680555555555556,4.496527777777778,0)" xlink:href="#ce"/></g><use transform="matrix(0.008680555555555556,0,0,0.008680555555555556,0,0)" xlink:href="#cb" id="I"/><path fill="#666" d="M1128-1036c0 321-241 464-585 461H371V0H201v-1462h379c365 0 548 142 548 426zm-176 8c0-218-150-286-391-287H371v594h153c270-3 428-62 428-307" id="cf"/><path fill="#666" d="M588-1114c260 0 384 106 385 366V0H850l-33-156h-8C708-34 639 17 442 20 231 23 94-94 94-303c0-221 177-337 531-348l186-6c11-203-40-320-233-320-91 0-195 28-310 84l-51-127c97-53 229-94 371-94zM268-301c-1 123 81 184 207 184 203 0 334-120 332-323v-99c-257 14-539-7-539 238" id="cg"/><path fill="#666" d="M502-977c-130 0-238 32-238 139 0 75 39 101 95 134 33 19 97 46 192 81 130 48 217 95 263 143s69 108 69 181C883-73 695 20 449 20 304 20 190-3 109-49v-154c91 47 216 86 344 86 149 0 270-36 270-168 0-43-21-76-55-109-56-55-367-158-434-208-74-55-128-109-128-225 0-327 490-342 754-217l-59 135c-110-45-210-68-299-68" id="ch"/><path fill="#666" d="M270 29c-76 0-118-48-118-135 0-84 38-135 118-136 81 0 123 51 123 136 0 82-44 135-123 135" id="ci"/><path fill="#666" d="M125-741c0-247 161-377 414-375 57 0 109 7 155 20h379v105l-203 24c37 48 72 129 72 219 0 255-227 390-504 345-71 37-106 84-106 141 0 78 66 88 164 88h194c219-1 369 87 369 293 0 121-49 213-146 277s-239 96-426 96c-250 0-448-83-448-306C39 36 147-58 283-86c-52-23-102-79-99-152 4-104 57-143 133-192-107-42-192-164-192-311zM438-25c-143-1-242 70-239 209s131 181 290 181c139 0 242-21 309-63s101-98 101-169c0-147-88-158-262-158H438zm94-970c-158 0-243 88-243 250 0 153 93 233 246 233 162 0 243-79 243-236 0-165-82-247-246-247" id="cj"/><path fill="#666" d="M1198-240c-25-390-10-810-14-1222h159V0h-194L350-1227h-8c30 405 10 805 16 1227H201v-1462h192l797 1222h8" id="ck"/><path fill="#666" d="M694-1116c270 0 399 125 398 401V0H926v-709c-1-177-76-266-252-266-250 0-332 133-332 400V0H176v-1096h135l27 150h8c62-101 190-170 348-170" id="cl"/><g id="J"><use transform="matrix(0.008680555555555556,0,0,0.008680555555555556,0,0)" xlink:href="#bU"/><use transform="matrix(0.008680555555555556,0,0,0.008680555555555556,6.276041666666667,0)" xlink:href="#bZ"/><use transform="matrix(0.008680555555555556,0,0,0.008680555555555556,10.772569444444445,0)" xlink:href="#ca"/><use transform="matrix(0.008680555555555556,0,0,0.008680555555555556,27.30902777777778,0)" xlink:href="#bV"/><use transform="matrix(0.008680555555555556,0,0,0.008680555555555556,37.282986111111114,0)" xlink:href="#cf"/><use transform="matrix(0.008680555555555556,0,0,0.008680555555555556,47.986111111111114,0)" xlink:href="#cg"/><use transform="matrix(0.008680555555555556,0,0,0.008680555555555556,57.87326388888889,0)" xlink:href="#ch"/><use transform="matrix(0.008680555555555556,0,0,0.008680555555555556,66.35416666666667,0)" xlink:href="#ch"/><use transform="matrix(0.008680555555555556,0,0,0.008680555555555556,74.83506944444446,0)" xlink:href="#bV"/><use transform="matrix(0.008680555555555556,0,0,0.008680555555555556,84.80902777777779,0)" xlink:href="#bX"/><use transform="matrix(0.008680555555555556,0,0,0.008680555555555556,95.70312500000001,0)" xlink:href="#ci"/><use transform="matrix(0.008680555555555556,0,0,0.008680555555555556,100.43402777777779,0)" xlink:href="#cj"/><use transform="matrix(0.008680555555555556,0,0,0.008680555555555556,110.17361111111111,0)" xlink:href="#bV"/><use transform="matrix(0.008680555555555556,0,0,0.008680555555555556,120.14756944444444,0)" xlink:href="#bU"/><use transform="matrix(0.008680555555555556,0,0,0.008680555555555556,126.42361111111111,0)" xlink:href="#ck"/><use transform="matrix(0.008680555555555556,0,0,0.008680555555555556,139.82638888888889,0)" xlink:href="#cg"/><use transform="matrix(0.008680555555555556,0,0,0.008680555555555556,149.71354166666663,0)" xlink:href="#cl"/><use transform="matrix(0.008680555555555556,0,0,0.008680555555555556,160.625,0)" xlink:href="#bT"/><use transform="matrix(0.008680555555555556,0,0,0.008680555555555556,171.36284722222223,0)" xlink:href="#cb"/></g><use transform="matrix(0.008680555555555556,0,0,0.008680555555555556,0,0)" xlink:href="#cc" id="K"/><path fill="#666" d="M104-393l783-326-783-373v-149l961 479v98L104-242v-151" id="cm"/><path fill="#666" d="M119-858v-137h930v137H119zm0 409v-137h930v137H119" id="cn"/><g id="L"><use transform="matrix(0.008680555555555556,0,0,0.008680555555555556,0,0)" xlink:href="#cm"/><use transform="matrix(0.008680555555555556,0,0,0.008680555555555556,10.164930555555555,0)" xlink:href="#cn"/></g><path fill="#666" d="M690-1114c271 2 402 123 402 399V0H926v-709c-1-177-76-266-252-266-251 0-332 135-332 402V0H176v-1556h166c-4 200 8 426-8 612h10c61-100 187-171 346-170" id="co"/><path fill="#666" d="M342 0H176v-1556h166V0" id="cp"/><path fill="#666" d="M651 0H481v-1311H18v-151h1096v151H651V0" id="cq"/><g id="M"><use transform="matrix(0.008680555555555556,0,0,0.008680555555555556,0,0)" xlink:href="#bU"/><use transform="matrix(0.008680555555555556,0,0,0.008680555555555556,6.276041666666667,0)" xlink:href="#co"/><use transform="matrix(0.008680555555555556,0,0,0.008680555555555556,17.1875,0)" xlink:href="#bZ"/><use transform="matrix(0.008680555555555556,0,0,0.008680555555555556,21.68402777777778,0)" xlink:href="#ch"/><use transform="matrix(0.008680555555555556,0,0,0.008680555555555556,30.164930555555557,0)" xlink:href="#ci"/><use transform="matrix(0.008680555555555556,0,0,0.008680555555555556,34.895833333333336,0)" xlink:href="#bX"/><use transform="matrix(0.008680555555555556,0,0,0.008680555555555556,45.78993055555556,0)" xlink:href="#bV"/><use transform="matrix(0.008680555555555556,0,0,0.008680555555555556,55.76388888888889,0)" xlink:href="#cp"/><use transform="matrix(0.008680555555555556,0,0,0.008680555555555556,60.26041666666667,0)" xlink:href="#bU"/><use transform="matrix(0.008680555555555556,0,0,0.008680555555555556,66.53645833333334,0)" xlink:href="#cg"/><use transform="matrix(0.008680555555555556,0,0,0.008680555555555556,76.42361111111111,0)" xlink:href="#cq"/><use transform="matrix(0.008680555555555556,0,0,0.008680555555555556,86.25868055555556,0)" xlink:href="#bZ"/><use transform="matrix(0.008680555555555556,0,0,0.008680555555555556,90.75520833333333,0)" xlink:href="#ca"/><use transform="matrix(0.008680555555555556,0,0,0.008680555555555556,107.29166666666666,0)" xlink:href="#bV"/><use transform="matrix(0.008680555555555556,0,0,0.008680555555555556,117.26562499999999,0)" xlink:href="#cc"/><use transform="matrix(0.008680555555555556,0,0,0.008680555555555556,122.52604166666666,0)" xlink:href="#cd"/></g><g id="O"><use transform="matrix(0.008680555555555556,0,0,0.008680555555555556,0,0)" xlink:href="#ci"/><use transform="matrix(0.008680555555555556,0,0,0.008680555555555556,4.730902777777778,0)" xlink:href="#ci"/><use transform="matrix(0.008680555555555556,0,0,0.008680555555555556,9.461805555555555,0)" xlink:href="#ci"/></g><path fill="#666" d="M791-1139c262-1 402 148 401 410V0H887v-653c0-161-60-242-180-242-201 0-242 142-242 369V0H160v-1556h305c-1 210 6 368-14 581h16c68-109 176-164 324-164" id="cr"/><path fill="#666" d="M479-1407c-1 99-61 150-166 150-111 0-166-50-166-150 0-99 55-149 166-149s166 50 166 149zM465 0H160v-1118h305V0" id="cs"/><path fill="#666" d="M836-831c-99-39-182-77-306-82-139-6-173 83-92 144 51 39 327 139 383 188 71 62 119 126 119 249C940-74 747 21 463 20 305 20 202 0 94-45v-252c93 45 253 94 379 94 111 0 166-32 166-96 0-68-41-76-98-109-79-46-276-119-333-167-74-61-116-125-116-252 0-368 555-367 836-224" id="ct"/><path fill="#666" d="M293 27c-110 0-177-61-176-170 0-113 63-170 176-170 109-1 174 61 174 170 0 105-67 170-174 170" id="cu"/><path fill="#666" d="M426 0L0-1118h319l216 637c24 81 39 157 45 229h6c3-64 15-141 45-229l215-637h319L739 0H426" id="cv"/><path fill="#666" d="M639-223c202 0 242-139 242-369v-526h305V0H952l-41-143h-16C834-43 709 20 551 20c-263 0-397-147-397-409v-729h305v653c1 148 42 242 180 242" id="cw"/><path fill="#666" d="M465 0H160v-1556h305V0" id="cx"/><path fill="#666" d="M1458 0c3-430-10-709 15-1145h-9L1087 0H803L451-1147h-9c31 483 15 690 19 1147H184v-1462h422L952-344h6l367-1118h422V0h-289" id="cy"/><path fill="#666" d="M1384-895c-176 0-222 133-223 334V0H856v-653c-1-144-37-242-168-242-78 0-135 29-170 86s-53 152-53 283V0H160v-1118h233l41 143h17c56-98 174-164 325-164 167 0 281 55 340 164h27c55-99 179-165 330-164 265 2 385 133 385 410V0h-306v-653c-1-144-37-242-168-242" id="cz"/><path fill="#666" d="M383 324C201 116 82-188 82-561c0-378 120-688 301-901h250c-169 228-285 531-285 899 0 362 119 666 283 887H383" id="cA"/><g id="Q"><use transform="matrix(0.008680555555555556,0,0,0.008680555555555556,0,0)" xlink:href="#br"/><use transform="matrix(0.008680555555555556,0,0,0.008680555555555556,7.717013888888889,0)" xlink:href="#cr"/><use transform="matrix(0.008680555555555556,0,0,0.008680555555555556,19.401041666666668,0)" xlink:href="#cs"/><use transform="matrix(0.008680555555555556,0,0,0.008680555555555556,24.82638888888889,0)" xlink:href="#ct"/><use transform="matrix(0.008680555555555556,0,0,0.008680555555555556,33.66319444444444,0)" xlink:href="#cu"/><use transform="matrix(0.008680555555555556,0,0,0.008680555555555556,38.732638888888886,0)" xlink:href="#cv"/><use transform="matrix(0.008680555555555556,0,0,0.008680555555555556,48.84548611111111,0)" xlink:href="#cs"/><use transform="matrix(0.008680555555555556,0,0,0.008680555555555556,54.27083333333333,0)" xlink:href="#ct"/><use transform="matrix(0.008680555555555556,0,0,0.008680555555555556,63.107638888888886,0)" xlink:href="#cw"/><use transform="matrix(0.008680555555555556,0,0,0.008680555555555556,74.79166666666666,0)" xlink:href="#bt"/><use transform="matrix(0.008680555555555556,0,0,0.008680555555555556,85.52951388888889,0)" xlink:href="#cx"/><use transform="matrix(0.008680555555555556,0,0,0.008680555555555556,90.95486111111111,0)" xlink:href="#cy"/><use transform="matrix(0.008680555555555556,0,0,0.008680555555555556,107.71701388888887,0)" xlink:href="#bm"/><use transform="matrix(0.008680555555555556,0,0,0.008680555555555556,118.72395833333333,0)" xlink:href="#bn"/><use transform="matrix(0.008680555555555556,0,0,0.008680555555555556,130.40798611111111,0)" xlink:href="#ct"/><use transform="matrix(0.008680555555555556,0,0,0.008680555555555556,139.24479166666666,0)" xlink:href="#br"/><use transform="matrix(0.008680555555555556,0,0,0.008680555555555556,146.96180555555554,0)" xlink:href="#bq"/><use transform="matrix(0.008680555555555556,0,0,0.008680555555555556,157.46527777777777,0)" xlink:href="#bp"/><use transform="matrix(0.008680555555555556,0,0,0.008680555555555556,165.53819444444443,0)" xlink:href="#cu"/><use transform="matrix(0.008680555555555556,0,0,0.008680555555555556,170.60763888888889,0)" xlink:href="#bt"/><use transform="matrix(0.008680555555555556,0,0,0.008680555555555556,181.34548611111111,0)" xlink:href="#bn"/><use transform="matrix(0.008680555555555556,0,0,0.008680555555555556,193.02951388888889,0)" xlink:href="#cs"/><use transform="matrix(0.008680555555555556,0,0,0.008680555555555556,198.45486111111111,0)" xlink:href="#cz"/><use transform="matrix(0.008680555555555556,0,0,0.008680555555555556,215.91145833333334,0)" xlink:href="#bt"/><use transform="matrix(0.008680555555555556,0,0,0.008680555555555556,226.64930555555557,0)" xlink:href="#br"/><use transform="matrix(0.008680555555555556,0,0,0.008680555555555556,234.36631944444446,0)" xlink:href="#cs"/><use transform="matrix(0.008680555555555556,0,0,0.008680555555555556,239.79166666666669,0)" xlink:href="#bm"/><use transform="matrix(0.008680555555555556,0,0,0.008680555555555556,250.79861111111114,0)" xlink:href="#bn"/><use transform="matrix(0.008680555555555556,0,0,0.008680555555555556,262.4826388888889,0)" xlink:href="#cA"/></g><path fill="#666" d="M311-1462c182 213 301 524 301 901 0 373-119 679-301 885H63c163-221 283-525 283-887 0-368-116-672-285-899h250" id="cB"/><use transform="matrix(0.008680555555555556,0,0,0.008680555555555556,0,0)" xlink:href="#cB" id="R"/><path fill="#666" d="M444-238l15 23C424-80 366 79 283 264H63c43-177 77-345 101-502h280zM293-799c-110 0-176-60-176-170 0-113 63-170 176-170 109-1 174 61 174 170 0 107-67 170-174 170" id="cC"/><use transform="matrix(0.008680555555555556,0,0,0.008680555555555556,0,0)" xlink:href="#cC" id="S"/><path fill="#666" d="M299-309c1-162 80-227 223-254v-12c-149-26-223-111-223-254v-295c0-129-76-195-227-199v-139c227-3 395 111 395 327v306c4 146 91 186 248 190v141c-153 2-247 45-248 193V-2c-2 220-162 326-395 326V184c142-4 227-54 227-196v-297" id="cD"/><use transform="matrix(0.008680555555555556,0,0,0.008680555555555556,0,0)" xlink:href="#cD" id="T"/><use transform="matrix(0.008680555555555556,0,0,0.008680555555555556,0,0)" xlink:href="#cD" id="U"/><path fill="#333" d="M795-1139c261-1 398 148 397 410V0H887v-653c-1-148-42-242-180-242-202 0-242 139-242 369V0H160v-1118h233l41 143h17c62-102 185-163 344-164" id="cE"/><g id="V"><use transform="matrix(0.010850694444444444,0,0,0.010850694444444444,0,0)" xlink:href="#aM"/><use transform="matrix(0.010850694444444444,0,0,0.010850694444444444,17.003038194444443,0)" xlink:href="#ay"/><use transform="matrix(0.010850694444444444,0,0,0.010850694444444444,30.13237847222222,0)" xlink:href="#av"/><use transform="matrix(0.010850694444444444,0,0,0.010850694444444444,36.9140625,0)" xlink:href="#ar"/><use transform="matrix(0.010850694444444444,0,0,0.010850694444444444,43.69574652777778,0)" xlink:href="#aA"/><use transform="matrix(0.010850694444444444,0,0,0.010850694444444444,55.12152777777778,0)" xlink:href="#aB"/><use transform="matrix(0.010850694444444444,0,0,0.010850694444444444,68.88020833333333,0)" xlink:href="#aN"/><use transform="matrix(0.010850694444444444,0,0,0.010850694444444444,82.94270833333333,0)" xlink:href="#az"/><use transform="matrix(0.010850694444444444,0,0,0.010850694444444444,92.58897569444444,0)" xlink:href="#ay"/><use transform="matrix(0.010850694444444444,0,0,0.010850694444444444,105.71831597222221,0)" xlink:href="#ax"/><use transform="matrix(0.010850694444444444,0,0,0.010850694444444444,115.80946180555556,0)" xlink:href="#aw"/><use transform="matrix(0.010850694444444444,0,0,0.010850694444444444,129.96961805555554,0)" xlink:href="#aB"/><use transform="matrix(0.010850694444444444,0,0,0.010850694444444444,143.7282986111111,0)" xlink:href="#cE"/><use transform="matrix(0.010850694444444444,0,0,0.010850694444444444,158.33333333333331,0)" xlink:href="#az"/><use transform="matrix(0.010850694444444444,0,0,0.010850694444444444,167.97960069444443,0)" xlink:href="#ax"/><use transform="matrix(0.010850694444444444,0,0,0.010850694444444444,177.62586805555554,0)" xlink:href="#aB"/><use transform="matrix(0.010850694444444444,0,0,0.010850694444444444,191.38454861111111,0)" xlink:href="#av"/><use transform="matrix(0.010850694444444444,0,0,0.010850694444444444,198.16623263888883,0)" xlink:href="#av"/><use transform="matrix(0.010850694444444444,0,0,0.010850694444444444,204.94791666666663,0)" xlink:href="#ay"/><use transform="matrix(0.010850694444444444,0,0,0.010850694444444444,218.0772569444444,0)" xlink:href="#ax"/></g><path fill="#333" d="M84-473v-152h491v152H84" id="cF"/><use transform="matrix(0.008680555555555556,0,0,0.008680555555555556,0,0)" xlink:href="#cF" id="W"/><g id="X"><use transform="matrix(0.008680555555555556,0,0,0.008680555555555556,0,0)" xlink:href="#aL"/><use transform="matrix(0.008680555555555556,0,0,0.008680555555555556,4.730902777777778,0)" xlink:href="#aL"/><use transform="matrix(0.008680555555555556,0,0,0.008680555555555556,9.461805555555555,0)" xlink:href="#aL"/></g><use transform="matrix(0.009765624999999998,0,0,0.009765624999999998,0,0)" xlink:href="#aZ" id="Y"/><path fill="#333" d="M516-150c94-315 146-423 332-946h178L610 0H416L0-1096h178c98 281 253 670 330 946h8" id="cG"/><path fill="#333" d="M995-51C878-2 799 19 639 20c-329 2-524-221-524-559 0-326 172-577 481-577 278 0 451 210 446 493v105H287c4 242 121 392 358 393 118 0 235-25 350-74v148zM864-653c2-195-85-324-270-324-190 0-288 139-303 324h573" id="cH"/><g id="Z"><use transform="matrix(0.009765624999999998,0,0,0.009765624999999998,0,0)" xlink:href="#aG"/><use transform="matrix(0.009765624999999998,0,0,0.009765624999999998,18.603515624999996,0)" xlink:href="#aI"/><use transform="matrix(0.009765624999999998,0,0,0.009765624999999998,30.283203124999993,0)" xlink:href="#cG"/><use transform="matrix(0.009765624999999998,0,0,0.009765624999999998,40.30273437499999,0)" xlink:href="#cH"/><use transform="matrix(0.009765624999999998,0,0,0.009765624999999998,51.52343749999999,0)" xlink:href="#aJ"/><use transform="matrix(0.009765624999999998,0,0,0.009765624999999998,57.44140624999999,0)" xlink:href="#aK"/></g><use transform="matrix(0.009765624999999998,0,0,0.009765624999999998,0,0)" xlink:href="#aC" id="aa"/><g id="ab"><use transform="matrix(0.009765624999999998,0,0,0.009765624999999998,0,0)" xlink:href="#aL"/><use transform="matrix(0.009765624999999998,0,0,0.009765624999999998,5.322265624999999,0)" xlink:href="#aL"/><use transform="matrix(0.009765624999999998,0,0,0.009765624999999998,10.644531249999998,0)" xlink:href="#aL"/></g><path fill="#333" d="M1217-1130c-117-62-172-97-312-97-215 0-336 143-407 319-43 105-64 218-64 339 1 215 78 328 287 329 97 0 210-26 338-77v260C926-6 793 20 659 20c-345 1-536-220-536-573 0-355 166-672 382-817 223-150 607-147 830-10" id="cI"/><path fill="#333" d="M805-696c0-131-48-197-143-197-50 0-94 21-134 61-78 78-135 263-135 422 0 123 50 185 150 185 127 0 193-116 229-233 22-73 33-152 33-238zm-121-443c263 0 424 175 424 443 0 284-101 512-274 626-89 59-194 90-316 90C262 20 90-154 90-410c0-288 103-522 278-638 90-60 195-91 316-91" id="cJ"/><path fill="#333" d="M489-911c124-178 242-257 449-217l-66 290c-244-69-382 123-428 338L338 0H37l237-1118h230l-21 207h6" id="cK"/><g id="ac"><use transform="matrix(0.010850694444444444,0,0,0.010850694444444444,0,0)" xlink:href="#aU"/><use transform="matrix(0.010850694444444444,0,0,0.010850694444444444,12.044270833333332,0)" xlink:href="#aT"/><use transform="matrix(0.010850694444444444,0,0,0.010850694444444444,18.641493055555554,0)" xlink:href="#aV"/><use transform="matrix(0.010850694444444444,0,0,0.010850694444444444,31.022135416666664,0)" xlink:href="#aW"/><use transform="matrix(0.010850694444444444,0,0,0.010850694444444444,51.12847222222221,0)" xlink:href="#aV"/><use transform="matrix(0.010850694444444444,0,0,0.010850694444444444,63.50911458333333,0)" xlink:href="#aX"/><use transform="matrix(0.010850694444444444,0,0,0.010850694444444444,76.9314236111111,0)" xlink:href="#aY"/><use transform="matrix(0.010850694444444444,0,0,0.010850694444444444,86.04600694444443,0)" xlink:href="#cI"/><use transform="matrix(0.010850694444444444,0,0,0.010850694444444444,99.64192708333331,0)" xlink:href="#cJ"/><use transform="matrix(0.010850694444444444,0,0,0.010850694444444444,112.64105902777776,0)" xlink:href="#aX"/><use transform="matrix(0.010850694444444444,0,0,0.010850694444444444,126.06336805555553,0)" xlink:href="#aY"/><use transform="matrix(0.010850694444444444,0,0,0.010850694444444444,135.17795138888886,0)" xlink:href="#cK"/><use transform="matrix(0.010850694444444444,0,0,0.010850694444444444,144.08637152777774,0)" xlink:href="#cJ"/><use transform="matrix(0.010850694444444444,0,0,0.010850694444444444,157.0855034722222,0)" xlink:href="#aT"/><use transform="matrix(0.010850694444444444,0,0,0.010850694444444444,163.68272569444443,0)" xlink:href="#aT"/><use transform="matrix(0.010850694444444444,0,0,0.010850694444444444,170.27994791666666,0)" xlink:href="#aV"/><use transform="matrix(0.010850694444444444,0,0,0.010850694444444444,182.66059027777777,0)" xlink:href="#cK"/></g><use transform="matrix(0.008680555555555556,0,0,0.008680555555555556,0,0)" xlink:href="#aZ" id="ad"/><use transform="matrix(0.009765625,0,0,0.009765625,0,0)" xlink:href="#aZ" id="ae"/><path fill="#333" d="M223 0L98-1096h168c27 283 81 700 88 975h6c187-416 312-607 504-975h178L451 0H223" id="cL"/><path fill="#333" d="M817-59C704-8 636 18 492 20 245 23 98-141 98-391c0-259 120-515 272-629 83-63 172-96 271-96 187 0 307 79 307 252 0 120-56 213-166 282-115 72-291 106-508 103-23 208 46 364 248 358 126-4 186-33 295-84v146zm-35-791c0-80-59-123-151-123-69 0-133 31-193 94S331-729 299-618c155 1 279-19 361-60 81-40 122-97 122-172" id="cM"/><g id="af"><use transform="matrix(0.009765625,0,0,0.009765625,0,0)" xlink:href="#be"/><use transform="matrix(0.009765625,0,0,0.009765625,17.44140625,0)" xlink:href="#bg"/><use transform="matrix(0.009765625,0,0,0.009765625,28.26171875,0)" xlink:href="#cL"/><use transform="matrix(0.009765625,0,0,0.009765625,37.5,0)" xlink:href="#cM"/><use transform="matrix(0.009765625,0,0,0.009765625,47.36328125,0)" xlink:href="#bh"/><use transform="matrix(0.009765625,0,0,0.009765625,53.06640625,0)" xlink:href="#bi"/></g><use transform="matrix(0.009765625,0,0,0.009765625,0,0)" xlink:href="#ba" id="ag"/><g id="ah"><use transform="matrix(0.009765625,0,0,0.009765625,0,0)" xlink:href="#bj"/><use transform="matrix(0.009765625,0,0,0.009765625,5.05859375,0)" xlink:href="#bj"/><use transform="matrix(0.009765625,0,0,0.009765625,10.1171875,0)" xlink:href="#bj"/></g><path fill="#333" d="M1458 0c3-430-10-709 15-1145h-9L1087 0H803L451-1147h-9c31 483 15 690 19 1147H184v-1462h422L952-344h6l367-1118h422V0h-289" id="cN"/><g id="ai"><use transform="matrix(0.010850694444444444,0,0,0.010850694444444444,0,0)" xlink:href="#cN"/><use transform="matrix(0.010850694444444444,0,0,0.010850694444444444,20.95269097222222,0)" xlink:href="#aB"/><use transform="matrix(0.010850694444444444,0,0,0.010850694444444444,34.71137152777778,0)" xlink:href="#cE"/><use transform="matrix(0.010850694444444444,0,0,0.010850694444444444,49.31640625,0)" xlink:href="#as"/><use transform="matrix(0.010850694444444444,0,0,0.010850694444444444,60.36241319444444,0)" xlink:href="#az"/><use transform="matrix(0.010850694444444444,0,0,0.010850694444444444,70.00868055555556,0)" xlink:href="#ay"/><use transform="matrix(0.010850694444444444,0,0,0.010850694444444444,83.13802083333333,0)" xlink:href="#ax"/><use transform="matrix(0.010850694444444444,0,0,0.010850694444444444,93.22916666666666,0)" xlink:href="#aw"/><use transform="matrix(0.010850694444444444,0,0,0.010850694444444444,107.38932291666666,0)" xlink:href="#aB"/><use transform="matrix(0.010850694444444444,0,0,0.010850694444444444,121.14800347222221,0)" xlink:href="#cE"/><use transform="matrix(0.010850694444444444,0,0,0.010850694444444444,135.75303819444443,0)" xlink:href="#az"/><use transform="matrix(0.010850694444444444,0,0,0.010850694444444444,145.39930555555554,0)" xlink:href="#ax"/><use transform="matrix(0.010850694444444444,0,0,0.010850694444444444,155.04557291666666,0)" xlink:href="#aB"/><use transform="matrix(0.010850694444444444,0,0,0.010850694444444444,168.8042534722222,0)" xlink:href="#av"/><use transform="matrix(0.010850694444444444,0,0,0.010850694444444444,175.58593749999997,0)" xlink:href="#av"/><use transform="matrix(0.010850694444444444,0,0,0.010850694444444444,182.36762152777774,0)" xlink:href="#ay"/><use transform="matrix(0.010850694444444444,0,0,0.010850694444444444,195.49696180555551,0)" xlink:href="#ax"/></g><g id="aj"><use transform="matrix(0.009765624999999998,0,0,0.009765624999999998,0,0)" xlink:href="#aL"/><use transform="matrix(0.009765624999999998,0,0,0.009765624999999998,5.322265624999999,0)" xlink:href="#aL"/><use transform="matrix(0.009765624999999998,0,0,0.009765624999999998,10.644531249999998,0)" xlink:href="#aL"/><use transform="matrix(0.009765624999999998,0,0,0.009765624999999998,15.966796874999996,0)" xlink:href="#aL"/></g><use transform="matrix(0.05,0,0,0.05,0,0)" xlink:href="#bk" id="ak"/><g id="al"><use transform="matrix(0.010850694444444444,0,0,0.010850694444444444,0,0)" xlink:href="#bl"/><use transform="matrix(0.010850694444444444,0,0,0.010850694444444444,14.16015625,0)" xlink:href="#bm"/><use transform="matrix(0.010850694444444444,0,0,0.010850694444444444,27.91883680555556,0)" xlink:href="#bn"/><use transform="matrix(0.010850694444444444,0,0,0.010850694444444444,42.52387152777778,0)" xlink:href="#bo"/><use transform="matrix(0.010850694444444444,0,0,0.010850694444444444,53.94965277777778,0)" xlink:href="#bp"/><use transform="matrix(0.010850694444444444,0,0,0.010850694444444444,63.595920138888886,0)" xlink:href="#bq"/><use transform="matrix(0.010850694444444444,0,0,0.010850694444444444,76.72526041666666,0)" xlink:href="#br"/><use transform="matrix(0.010850694444444444,0,0,0.010850694444444444,86.37152777777777,0)" xlink:href="#bq"/></g><g id="am"><use transform="matrix(0.010850694444444444,0,0,0.010850694444444444,0,0)" xlink:href="#bs"/><use transform="matrix(0.010850694444444444,0,0,0.010850694444444444,12.239583333333332,0)" xlink:href="#br"/><use transform="matrix(0.010850694444444444,0,0,0.010850694444444444,21.885850694444443,0)" xlink:href="#bp"/><use transform="matrix(0.010850694444444444,0,0,0.010850694444444444,31.532118055555554,0)" xlink:href="#bt"/><use transform="matrix(0.010850694444444444,0,0,0.010850694444444444,44.95442708333333,0)" xlink:href="#br"/><use transform="matrix(0.010850694444444444,0,0,0.010850694444444444,54.60069444444444,0)" xlink:href="#bq"/><use transform="matrix(0.010850694444444444,0,0,0.010850694444444444,67.73003472222221,0)" xlink:href="#bu"/><use transform="matrix(0.010850694444444444,0,0,0.010850694444444444,80.28428819444443,0)" xlink:href="#bv"/></g><path fill="#666" d="M1382 0h-309v-631H494V0H184v-1462h310v573h579v-573h309V0" id="cO"/><path fill="#666" d="M782-1139c293 0 422 256 422 578 0 230-70 418-202 512-65 46-141 69-228 69-131 0-234-48-309-143h-16c32 222 9 383 16 615H160v-1610h248l43 145h14c71-111 177-166 317-166zm111 574c0-190-40-330-209-330-184 0-221 128-219 332 2 209 40 336 223 336 137 0 205-113 205-338" id="cP"/><g id="an"><use transform="matrix(0.008680555555555556,0,0,0.008680555555555556,0,0)" xlink:href="#br"/><use transform="matrix(0.008680555555555556,0,0,0.008680555555555556,7.717013888888889,0)" xlink:href="#cr"/><use transform="matrix(0.008680555555555556,0,0,0.008680555555555556,19.401041666666668,0)" xlink:href="#cs"/><use transform="matrix(0.008680555555555556,0,0,0.008680555555555556,24.82638888888889,0)" xlink:href="#ct"/><use transform="matrix(0.008680555555555556,0,0,0.008680555555555556,33.66319444444444,0)" xlink:href="#cu"/><use transform="matrix(0.008680555555555556,0,0,0.008680555555555556,38.732638888888886,0)" xlink:href="#cv"/><use transform="matrix(0.008680555555555556,0,0,0.008680555555555556,48.84548611111111,0)" xlink:href="#cs"/><use transform="matrix(0.008680555555555556,0,0,0.008680555555555556,54.27083333333333,0)" xlink:href="#ct"/><use transform="matrix(0.008680555555555556,0,0,0.008680555555555556,63.107638888888886,0)" xlink:href="#cw"/><use transform="matrix(0.008680555555555556,0,0,0.008680555555555556,74.79166666666666,0)" xlink:href="#bt"/><use transform="matrix(0.008680555555555556,0,0,0.008680555555555556,85.52951388888889,0)" xlink:href="#cx"/><use transform="matrix(0.008680555555555556,0,0,0.008680555555555556,90.95486111111111,0)" xlink:href="#cO"/><use transform="matrix(0.008680555555555556,0,0,0.008680555555555556,104.55729166666667,0)" xlink:href="#bq"/><use transform="matrix(0.008680555555555556,0,0,0.008680555555555556,115.0607638888889,0)" xlink:href="#cx"/><use transform="matrix(0.008680555555555556,0,0,0.008680555555555556,120.48611111111113,0)" xlink:href="#cs"/><use transform="matrix(0.008680555555555556,0,0,0.008680555555555556,125.91145833333336,0)" xlink:href="#bo"/><use transform="matrix(0.008680555555555556,0,0,0.008680555555555556,135.05208333333337,0)" xlink:href="#bm"/><use transform="matrix(0.008680555555555556,0,0,0.008680555555555556,146.05902777777783,0)" xlink:href="#cP"/><use transform="matrix(0.008680555555555556,0,0,0.008680555555555556,157.30902777777783,0)" xlink:href="#br"/><use transform="matrix(0.008680555555555556,0,0,0.008680555555555556,165.0260416666667,0)" xlink:href="#bq"/><use transform="matrix(0.008680555555555556,0,0,0.008680555555555556,175.5295138888889,0)" xlink:href="#bp"/><use transform="matrix(0.008680555555555556,0,0,0.008680555555555556,183.6024305555556,0)" xlink:href="#cu"/><use transform="matrix(0.008680555555555556,0,0,0.008680555555555556,188.67187500000009,0)" xlink:href="#bt"/><use transform="matrix(0.008680555555555556,0,0,0.008680555555555556,199.40972222222229,0)" xlink:href="#bn"/><use transform="matrix(0.008680555555555556,0,0,0.008680555555555556,211.09375000000009,0)" xlink:href="#cs"/><use transform="matrix(0.008680555555555556,0,0,0.008680555555555556,216.51909722222229,0)" xlink:href="#cz"/><use transform="matrix(0.008680555555555556,0,0,0.008680555555555556,233.9756944444445,0)" xlink:href="#bt"/><use transform="matrix(0.008680555555555556,0,0,0.008680555555555556,244.71354166666674,0)" xlink:href="#br"/><use transform="matrix(0.008680555555555556,0,0,0.008680555555555556,252.43055555555563,0)" xlink:href="#cs"/><use transform="matrix(0.008680555555555556,0,0,0.008680555555555556,257.8559027777778,0)" xlink:href="#bm"/><use transform="matrix(0.008680555555555556,0,0,0.008680555555555556,268.8628472222223,0)" xlink:href="#bn"/><use transform="matrix(0.008680555555555556,0,0,0.008680555555555556,280.54687500000006,0)" xlink:href="#cA"/></g><g id="ao"><use transform="matrix(0.10555555555555542,0,0,0.10555555555555542,0,0)" xlink:href="#ap"/><use transform="matrix(0.10555555555555542,0,0,0.10555555555555542,10.555555555555541,0)" xlink:href="#ap"/><use transform="matrix(0.10555555555555542,0,0,0.10555555555555542,21.111111111111082,0)" xlink:href="#ap"/></g></defs></g></svg>